SplineFontDB: 3.2
FontName: Multivers-Regular
FullName: Multivers Regular
FamilyName: Multivers
Weight: Regular
Copyright: 
Version: 1.000
ItalicAngle: 0
UnderlinePosition: -199
UnderlineWidth: 38
Ascent: 800
Descent: 200
InvalidEm: 0
sfntRevision: 0x00010000
LayerCount: 2
Layer: 0 1 "Back" 1
Layer: 1 1 "Fore" 0
XUID: [1021 473 -325923738 3809896]
StyleMap: 0x0040
FSType: 0
OS2Version: 4
OS2_WeightWidthSlopeOnly: 0
OS2_UseTypoMetrics: 0
CreationTime: 1659194366
ModificationTime: 1733473016
PfmFamily: 81
TTFWeight: 400
TTFWidth: 5
LineGap: 0
VLineGap: 0
Panose: 0 0 0 0 0 0 0 0 0 0
OS2TypoAscent: 970
OS2TypoAOffset: 0
OS2TypoDescent: -250
OS2TypoDOffset: 0
OS2TypoLinegap: 0
OS2WinAscent: 986
OS2WinAOffset: 0
OS2WinDescent: 350
OS2WinDOffset: 0
HheadAscent: 970
HheadAOffset: 0
HheadDescent: -250
HheadDOffset: 0
OS2SubXSize: 650
OS2SubYSize: 600
OS2SubXOff: 0
OS2SubYOff: 75
OS2SupXSize: 650
OS2SupYSize: 600
OS2SupXOff: 0
OS2SupYOff: 350
OS2StrikeYSize: 38
OS2StrikeYPos: 301
OS2CapHeight: 720
OS2XHeight: 510
OS2Vendor: 'NONE'
OS2CodePages: 00000093.00000000
OS2UnicodeRanges: a000006f.0000006a.00000000.00000000
Lookup: 1 0 0 "'aalt' Access All Alternates in Latin lookup 0" { "'aalt' Access All Alternates in Latin lookup 0 subtable"  } ['aalt' ('DFLT' <'dflt' > 'latn' <'AZE ' 'CAT ' 'CRT ' 'KAZ ' 'MOL ' 'ROM ' 'TAT ' 'TRK ' 'dflt' > ) ]
Lookup: 3 0 0 "'aalt' Access All Alternates in Latin lookup 1" { "'aalt' Access All Alternates in Latin lookup 1 subtable"  } ['aalt' ('DFLT' <'dflt' > 'latn' <'AZE ' 'CAT ' 'CRT ' 'KAZ ' 'MOL ' 'ROM ' 'TAT ' 'TRK ' 'dflt' > ) ]
Lookup: 6 0 0 "'ccmp' Glyph Composition/Decomposition in Latin lookup 2" { "'ccmp' Glyph Composition/Decomposition in Latin lookup 2 subtable"  } ['ccmp' ('DFLT' <'dflt' > 'latn' <'AZE ' 'CAT ' 'CRT ' 'KAZ ' 'MOL ' 'ROM ' 'TAT ' 'TRK ' 'dflt' > ) ]
Lookup: 1 0 0 "Single Substitution lookup 3" { "Single Substitution lookup 3 subtable"  } []

StartChar: .notdef
Encoding: 65536 -1 0
Width: 654
Flags: W
LayerCount: 2
Fore
SplineSet
84 0 m 1,0,-1
 84 720 l 1,1,-1
 570 720 l 1,2,-1
 570 0 l 1,3,-1
 84 0 l 1,0,-1
165 71 m 1,4,-1
 490 71 l 1,5,-1
 490 649 l 1,6,-1
 165 649 l 1,7,-1
 165 71 l 1,4,-1
EndSplineSet
Validated: 1
EndChar

StartChar: A
Encoding: 65 65 1
Width: 693
GlyphClass: 2
Flags: W
AnchorPoint: "Anchor-3" 659 0 basechar 0
AnchorPoint: "Anchor-2" 347 0 basechar 0
AnchorPoint: "Anchor-0" 347 720 basechar 0
LayerCount: 2
Fore
SplineSet
35 0 m 1,0,-1
 297 720 l 1,1,-1
 367 720 l 1,2,-1
 112 0 l 1,3,-1
 35 0 l 1,0,-1
576 0 m 1,4,-1
 321 720 l 1,5,-1
 396 720 l 1,6,-1
 659 0 l 1,7,-1
 576 0 l 1,4,-1
166 289 m 1,8,-1
 524 289 l 1,9,-1
 524 219 l 1,10,-1
 166 219 l 1,11,-1
 166 289 l 1,8,-1
EndSplineSet
Validated: 5
Substitution2: "Single Substitution lookup 17 subtable" ordfeminine
Substitution2: "'aalt' Access All Alternates in Latin lookup 0 subtable" ordfeminine
EndChar

StartChar: AE
Encoding: 198 198 12
Width: 902
Flags: W
LayerCount: 2
Fore
SplineSet
35 0 m 1,0,-1
 297 720 l 1,1,-1
 368 720 l 1,2,-1
 112 0 l 1,3,-1
 35 0 l 1,0,-1
455 0 m 1,4,-1
 455 720 l 1,5,-1
 535 720 l 1,6,-1
 535 0 l 1,7,-1
 455 0 l 1,4,-1
497 0 m 1,8,-1
 497 71 l 1,9,-1
 834 71 l 1,10,-1
 834 0 l 1,11,-1
 497 0 l 1,8,-1
212 340 m 1,12,-1
 212 410 l 1,13,-1
 800 410 l 1,14,-1
 800 340 l 1,15,-1
 212 340 l 1,12,-1
319 649 m 1,16,-1
 319 720 l 1,17,-1
 826 720 l 1,18,-1
 826 649 l 1,19,-1
 319 649 l 1,16,-1
EndSplineSet
Validated: 5
EndChar

StartChar: B
Encoding: 66 66 13
Width: 611
Flags: W
LayerCount: 2
Fore
SplineSet
137 0 m 1,0,-1
 137 67 l 1,1,-1
 350 67 l 2,2,3
 414 67 414 67 452 103 c 128,-1,4
 490 139 490 139 490 201 c 0,5,6
 490 266 490 266 450 305.5 c 128,-1,7
 410 345 410 345 343 345 c 2,8,-1
 137 345 l 1,9,-1
 137 410 l 1,10,-1
 333 410 l 2,11,12
 399 410 399 410 436 443 c 128,-1,13
 473 476 473 476 473 536 c 0,14,15
 473 592 473 592 438 622.5 c 128,-1,16
 403 653 403 653 338 653 c 2,17,-1
 137 653 l 1,18,-1
 137 720 l 1,19,-1
 344 720 l 2,20,21
 440 720 440 720 496.5 673 c 128,-1,22
 553 626 553 626 553 544 c 0,23,24
 553 493 553 493 530.5 453 c 128,-1,25
 508 413 508 413 468.5 391 c 128,-1,26
 429 369 429 369 377 369 c 1,27,-1
 381 390 l 1,28,29
 436 390 436 390 479.5 364.5 c 128,-1,30
 523 339 523 339 548 294.5 c 128,-1,31
 573 250 573 250 573 193 c 0,32,33
 573 135 573 135 546 91.5 c 128,-1,34
 519 48 519 48 470 24 c 128,-1,35
 421 0 421 0 356 0 c 2,36,-1
 137 0 l 1,0,-1
84 0 m 1,37,-1
 84 720 l 1,38,-1
 165 720 l 1,39,-1
 165 0 l 1,40,-1
 84 0 l 1,37,-1
EndSplineSet
Validated: 5
EndChar

StartChar: C
Encoding: 67 67 14
Width: 706
GlyphClass: 2
Flags: W
AnchorPoint: "Anchor-2" 371 0 basechar 0
AnchorPoint: "Anchor-0" 371 720 basechar 0
LayerCount: 2
Fore
SplineSet
372 -10 m 0,0,1
 302 -10 302 -10 242.5 17 c 128,-1,2
 183 44 183 44 139.5 93.5 c 128,-1,3
 96 143 96 143 72.5 210.5 c 128,-1,4
 49 278 49 278 49 360 c 256,5,6
 49 442 49 442 72.5 509.5 c 128,-1,7
 96 577 96 577 139 626.5 c 128,-1,8
 182 676 182 676 241.5 703 c 128,-1,9
 301 730 301 730 372 730 c 0,10,11
 450 730 450 730 511.5 697 c 128,-1,12
 573 664 573 664 612 603.5 c 128,-1,13
 651 543 651 543 660 462 c 1,14,-1
 579 462 l 1,15,16
 569 554 569 554 514 605.5 c 128,-1,17
 459 657 459 657 372 657 c 0,18,19
 300 657 300 657 245.5 620 c 128,-1,20
 191 583 191 583 161 516.5 c 128,-1,21
 131 450 131 450 131 360 c 0,22,23
 131 271 131 271 161 204 c 128,-1,24
 191 137 191 137 245.5 100 c 128,-1,25
 300 63 300 63 372 63 c 0,26,27
 460 63 460 63 515.5 115.5 c 128,-1,28
 571 168 571 168 581 258 c 1,29,-1
 661 258 l 1,30,31
 653 177 653 177 613.5 116.5 c 128,-1,32
 574 56 574 56 512.5 23 c 128,-1,33
 451 -10 451 -10 372 -10 c 0,0,1
EndSplineSet
Validated: 1
EndChar

StartChar: D
Encoding: 68 68 19
Width: 720
GlyphClass: 2
Flags: W
AnchorPoint: "Anchor-2" 360 0 basechar 0
AnchorPoint: "Anchor-0" 360 720 basechar 0
LayerCount: 2
Fore
SplineSet
133 0 m 1,0,-1
 133 71 l 1,1,-1
 314 71 l 2,2,3
 400 71 400 71 461.5 107 c 128,-1,4
 523 143 523 143 556 209 c 128,-1,5
 589 275 589 275 589 364 c 0,6,7
 589 452 589 452 556 516 c 128,-1,8
 523 580 523 580 462 614.5 c 128,-1,9
 401 649 401 649 314 649 c 2,10,-1
 132 649 l 1,11,-1
 132 720 l 1,12,-1
 314 720 l 2,13,14
 422 720 422 720 502.5 676 c 128,-1,15
 583 632 583 632 627 551.5 c 128,-1,16
 671 471 671 471 671 362 c 256,17,18
 671 253 671 253 626.5 171.5 c 128,-1,19
 582 90 582 90 502 45 c 128,-1,20
 422 0 422 0 315 0 c 2,21,-1
 133 0 l 1,0,-1
84 0 m 1,22,-1
 84 720 l 1,23,-1
 165 720 l 1,24,-1
 165 0 l 1,25,-1
 84 0 l 1,22,-1
EndSplineSet
Validated: 5
EndChar

StartChar: Eth
Encoding: 208 208 20
Width: 720
GlyphClass: 2
Flags: W
AnchorPoint: "Anchor-2" 360 0 basechar 0
AnchorPoint: "Anchor-0" 360 720 basechar 0
LayerCount: 2
Fore
SplineSet
0 327 m 1,0,-1
 0 393 l 1,1,-1
 363 393 l 1,2,-1
 363 327 l 1,3,-1
 0 327 l 1,0,-1
133 0 m 1,4,-1
 133 71 l 1,5,-1
 314 71 l 2,6,7
 400 71 400 71 461.5 107 c 128,-1,8
 523 143 523 143 556 209 c 128,-1,9
 589 275 589 275 589 364 c 0,10,11
 589 452 589 452 556 516 c 128,-1,12
 523 580 523 580 462 614.5 c 128,-1,13
 401 649 401 649 314 649 c 2,14,-1
 132 649 l 1,15,-1
 132 720 l 1,16,-1
 314 720 l 2,17,18
 422 720 422 720 502.5 676 c 128,-1,19
 583 632 583 632 627 551.5 c 128,-1,20
 671 471 671 471 671 362 c 256,21,22
 671 253 671 253 626.5 171.5 c 128,-1,23
 582 90 582 90 502 45 c 128,-1,24
 422 0 422 0 315 0 c 2,25,-1
 133 0 l 1,4,-1
84 0 m 1,26,-1
 84 720 l 1,27,-1
 165 720 l 1,28,-1
 165 0 l 1,29,-1
 84 0 l 1,26,-1
EndSplineSet
Validated: 5
EndChar

StartChar: E
Encoding: 69 69 23
Width: 610
GlyphClass: 2
Flags: W
AnchorPoint: "Anchor-3" 511 0 basechar 0
AnchorPoint: "Anchor-2" 305 0 basechar 0
AnchorPoint: "Anchor-0" 315 720 basechar 0
LayerCount: 2
Fore
SplineSet
84 0 m 1,0,-1
 84 720 l 1,1,-1
 165 720 l 1,2,-1
 165 0 l 1,3,-1
 84 0 l 1,0,-1
126 0 m 1,4,-1
 126 71 l 1,5,-1
 543 71 l 1,6,-1
 543 0 l 1,7,-1
 126 0 l 1,4,-1
126 340 m 1,8,-1
 126 410 l 1,9,-1
 508 410 l 1,10,-1
 508 340 l 1,11,-1
 126 340 l 1,8,-1
126 649 m 1,12,-1
 126 720 l 1,13,-1
 535 720 l 1,14,-1
 535 649 l 1,15,-1
 126 649 l 1,12,-1
EndSplineSet
Validated: 5
EndChar

StartChar: F
Encoding: 70 70 32
Width: 574
Flags: W
LayerCount: 2
Fore
SplineSet
84 0 m 1,0,-1
 84 720 l 1,1,-1
 165 720 l 1,2,-1
 165 0 l 1,3,-1
 84 0 l 1,0,-1
126 310 m 1,4,-1
 126 380 l 1,5,-1
 492 380 l 1,6,-1
 492 310 l 1,7,-1
 126 310 l 1,4,-1
126 649 m 1,8,-1
 126 720 l 1,9,-1
 519 720 l 1,10,-1
 519 649 l 1,11,-1
 126 649 l 1,8,-1
EndSplineSet
Validated: 5
EndChar

StartChar: G
Encoding: 71 71 33
Width: 730
GlyphClass: 2
Flags: W
AnchorPoint: "Anchor-2" 375 0 basechar 0
AnchorPoint: "Anchor-0" 375 720 basechar 0
LayerCount: 2
Fore
SplineSet
392 -10 m 0,0,1
 286 -10 286 -10 209 34.5 c 128,-1,2
 132 79 132 79 90.5 160.5 c 128,-1,3
 49 242 49 242 49 354 c 128,-1,4
 49 466 49 466 90 550.5 c 128,-1,5
 131 635 131 635 204.5 682.5 c 128,-1,6
 278 730 278 730 375 730 c 0,7,8
 451 730 451 730 512.5 700 c 128,-1,9
 574 670 574 670 613 616.5 c 128,-1,10
 652 563 652 563 660 492 c 1,11,-1
 579 492 l 1,12,13
 571 569 571 569 516.5 614.5 c 128,-1,14
 462 660 462 660 378 660 c 0,15,16
 303 660 303 660 247.5 621.5 c 128,-1,17
 192 583 192 583 161.5 515.5 c 128,-1,18
 131 448 131 448 131 356 c 0,19,20
 131 260 131 260 162.5 197.5 c 0,21,22
 198 129 198 129 253.3671875 95.439453125 c 0,23,24
 300 68 300 68 402.5 65.5 c 132,-1,25
 505 63 505 63 581 95 c 5,26,-1
 581 309 l 1,27,-1
 395 309 l 1,28,-1
 395 379 l 1,29,-1
 661 379 l 1,30,-1
 661 38 l 1,31,32
 524 -10 524 -10 392 -10 c 0,0,1
EndSplineSet
Validated: 33
Substitution2: "'ss07' Style Set 7 in Latin lookup 28 subtable" G.ss07
Substitution2: "'aalt' Access All Alternates in Latin lookup 0 subtable" G.ss07
EndChar

StartChar: H
Encoding: 72 72 37
Width: 707
GlyphClass: 2
Flags: W
AnchorPoint: "Anchor-2" 353 0 basechar 0
AnchorPoint: "Anchor-0" 353 720 basechar 0
LayerCount: 2
Fore
SplineSet
84 0 m 1,0,-1
 84 720 l 1,1,-1
 165 720 l 1,2,-1
 165 0 l 1,3,-1
 84 0 l 1,0,-1
542 0 m 1,4,-1
 542 720 l 1,5,-1
 623 720 l 1,6,-1
 623 0 l 1,7,-1
 542 0 l 1,4,-1
126 410 m 1,8,-1
 577 410 l 1,9,-1
 577 340 l 1,10,-1
 126 340 l 1,11,-1
 126 410 l 1,8,-1
EndSplineSet
Validated: 5
EndChar

StartChar: Hbar
Encoding: 294 294 38
Width: 707
GlyphClass: 2
Flags: W
AnchorPoint: "Anchor-2" 353 0 basechar 0
AnchorPoint: "Anchor-0" 353 720 basechar 0
LayerCount: 2
Fore
SplineSet
0 542 m 1,0,-1
 0 608 l 1,1,-1
 707 608 l 1,2,-1
 707 542 l 1,3,-1
 0 542 l 1,0,-1
84 0 m 1,4,-1
 84 720 l 1,5,-1
 165 720 l 1,6,-1
 165 0 l 1,7,-1
 84 0 l 1,4,-1
542 0 m 1,8,-1
 542 720 l 1,9,-1
 623 720 l 1,10,-1
 623 0 l 1,11,-1
 542 0 l 1,8,-1
126 410 m 1,12,-1
 577 410 l 1,13,-1
 577 340 l 1,14,-1
 126 340 l 1,15,-1
 126 410 l 1,12,-1
EndSplineSet
Validated: 5
EndChar

StartChar: I
Encoding: 73 73 39
Width: 249
GlyphClass: 2
Flags: W
AnchorPoint: "Anchor-3" 147 0 basechar 0
AnchorPoint: "Anchor-2" 124 0 basechar 0
AnchorPoint: "Anchor-0" 124 720 basechar 0
LayerCount: 2
Fore
SplineSet
84 0 m 1,0,-1
 84 720 l 1,1,-1
 165 720 l 1,2,-1
 165 0 l 1,3,-1
 84 0 l 1,0,-1
EndSplineSet
EndChar

StartChar: J
Encoding: 74 74 48
Width: 437
Flags: W
LayerCount: 2
Fore
SplineSet
136 -10 m 0,0,1
 69 -9 69 -9 19 0 c 1,2,-1
 19 72 l 5,3,4
 84 58 84 58 145.5 59.5 c 128,-1,5
 207 61 207 61 242.5 91 c 128,-1,6
 278 121 278 121 278 184 c 2,7,-1
 278 720 l 1,8,-1
 359 720 l 1,9,-1
 359 181 l 2,10,11
 359 84 359 84 301.5 37 c 0,12,13
 242 -11 242 -11 136 -10 c 0,0,1
EndSplineSet
Validated: 33
Substitution2: "'ss08' Style Set 8 in Latin lookup 29 subtable" J.ss08
Substitution2: "'aalt' Access All Alternates in Latin lookup 0 subtable" J.ss08
EndChar

StartChar: K
Encoding: 75 75 49
Width: 664
GlyphClass: 2
Flags: W
AnchorPoint: "Anchor-2" 343 0 basechar 0
AnchorPoint: "Anchor-0" 332 720 basechar 0
LayerCount: 2
Fore
SplineSet
84 0 m 1,0,-1
 84 720 l 1,1,-1
 165 720 l 1,2,-1
 165 0 l 1,3,-1
 84 0 l 1,0,-1
156 374 m 1,4,-1
 511 720 l 1,5,-1
 621 720 l 1,6,-1
 259 374 l 1,7,-1
 156 374 l 1,4,-1
526 0 m 1,8,-1
 154 374 l 1,9,-1
 259 374 l 1,10,-1
 641 0 l 1,11,-1
 526 0 l 1,8,-1
EndSplineSet
Validated: 5
Substitution2: "'ss04' Style Set 4 in Latin lookup 25 subtable" K.ss04
Substitution2: "'aalt' Access All Alternates in Latin lookup 0 subtable" K.ss04
EndChar

StartChar: L
Encoding: 76 76 51
Width: 561
GlyphClass: 2
Flags: W
AnchorPoint: "Anchor-2" 316 0 basechar 0
AnchorPoint: "Anchor-1" 375 720 basechar 0
AnchorPoint: "Anchor-0" 123 720 basechar 0
LayerCount: 2
Fore
SplineSet
84 0 m 1,0,-1
 84 720 l 1,1,-1
 165 720 l 1,2,-1
 165 0 l 1,3,-1
 84 0 l 1,0,-1
126 0 m 1,4,-1
 126 71 l 1,5,-1
 513 71 l 1,6,-1
 513 0 l 1,7,-1
 126 0 l 1,4,-1
EndSplineSet
Validated: 5
EndChar

StartChar: Lslash
Encoding: 321 321 55
Width: 561
GlyphClass: 2
Flags: W
AnchorPoint: "Anchor-2" 316 0 basechar 0
AnchorPoint: "Anchor-1" 375 720 basechar 0
AnchorPoint: "Anchor-0" 123 720 basechar 0
LayerCount: 2
Fore
SplineSet
129 345 m 1,0,-1
 0 292 l 1,1,-1
 0 356 l 1,2,-1
 127 408 l 1,3,-1
 129 345 l 1,0,-1
127 412 m 1,4,-1
 307 486 l 1,5,-1
 307 423 l 1,6,-1
 129 349 l 1,7,-1
 127 412 l 1,4,-1
84 0 m 1,8,-1
 84 720 l 1,9,-1
 165 720 l 1,10,-1
 165 0 l 1,11,-1
 84 0 l 1,8,-1
126 0 m 1,12,-1
 126 71 l 1,13,-1
 513 71 l 1,14,-1
 513 0 l 1,15,-1
 126 0 l 1,12,-1
EndSplineSet
Validated: 5
EndChar

StartChar: M
Encoding: 77 77 56
Width: 877
Flags: W
LayerCount: 2
Fore
SplineSet
84 0 m 1,0,-1
 84 720 l 1,1,-1
 207 720 l 1,2,-1
 457 28 l 1,3,-1
 420 28 l 1,4,-1
 668 720 l 1,5,-1
 793 720 l 1,6,-1
 793 0 l 1,7,-1
 713 0 l 1,8,-1
 713 670 l 1,9,-1
 723 670 l 1,10,-1
 483 0 l 1,11,-1
 387 0 l 1,12,-1
 148 665 l 1,13,-1
 158 665 l 1,14,-1
 158 0 l 1,15,-1
 84 0 l 1,0,-1
EndSplineSet
Validated: 5
Substitution2: "'ss06' Style Set 6 in Latin lookup 27 subtable" M.ss06
Substitution2: "'aalt' Access All Alternates in Latin lookup 0 subtable" M.ss06
EndChar

StartChar: N
Encoding: 78 78 57
Width: 707
GlyphClass: 2
Flags: W
AnchorPoint: "Anchor-2" 354 0 basechar 0
AnchorPoint: "Anchor-0" 354 720 basechar 0
LayerCount: 2
Fore
SplineSet
84 0 m 1,0,-1
 84 720 l 1,1,-1
 169 720 l 1,2,-1
 558 114 l 1,3,-1
 547 112 l 1,4,-1
 547 720 l 1,5,-1
 623 720 l 1,6,-1
 623 0 l 1,7,-1
 538 0 l 1,8,-1
 149 606 l 1,9,-1
 161 608 l 1,10,-1
 161 0 l 1,11,-1
 84 0 l 1,0,-1
EndSplineSet
Validated: 5
EndChar

StartChar: Eng
Encoding: 330 330 62
Width: 707
Flags: W
LayerCount: 2
Fore
SplineSet
84 0 m 1,0,-1
 84 720 l 1,1,-1
 169 720 l 1,2,-1
 568 114 l 1,3,-1
 547 112 l 1,4,-1
 547 720 l 1,5,-1
 623 720 l 1,6,-1
 623 0 l 1,7,-1
 548 0 l 1,8,-1
 149 606 l 1,9,-1
 161 608 l 1,10,-1
 161 0 l 1,11,-1
 84 0 l 1,0,-1
474 -215 m 0,12,13
 448 -215 448 -215 431 -211.5 c 128,-1,14
 414 -208 414 -208 405 -205 c 1,15,-1
 405 -135 l 1,16,17
 415 -138 415 -138 431 -141 c 128,-1,18
 447 -144 447 -144 468 -144 c 0,19,20
 513 -144 513 -144 529 -127.5 c 128,-1,21
 545 -111 545 -111 545 -77 c 2,22,-1
 545 25 l 1,23,-1
 623 25 l 1,24,-1
 623 -80 l 2,25,26
 623 -140 623 -140 588 -177.5 c 128,-1,27
 553 -215 553 -215 474 -215 c 0,12,13
EndSplineSet
Validated: 5
EndChar

StartChar: O
Encoding: 79 79 63
Width: 750
GlyphClass: 2
Flags: W
AnchorPoint: "Anchor-3" 510 20 basechar 0
AnchorPoint: "Anchor-2" 375 0 basechar 0
AnchorPoint: "Anchor-1" 730 720 basechar 0
AnchorPoint: "Anchor-0" 375 720 basechar 0
LayerCount: 2
Fore
SplineSet
375 -10 m 0,0,1
 303 -10 303 -10 243.5 17.5 c 128,-1,2
 184 45 184 45 140.5 95 c 128,-1,3
 97 145 97 145 73 213 c 128,-1,4
 49 281 49 281 49 363 c 0,5,6
 49 471 49 471 90.5 554 c 128,-1,7
 132 637 132 637 205.5 683.5 c 128,-1,8
 279 730 279 730 374 730 c 0,9,10
 471 730 471 730 544.5 683.5 c 128,-1,11
 618 637 618 637 660 554 c 128,-1,12
 702 471 702 471 702 362 c 0,13,14
 702 280 702 280 677.5 212 c 128,-1,15
 653 144 653 144 609.5 94.5 c 128,-1,16
 566 45 566 45 506 17.5 c 128,-1,17
 446 -10 446 -10 375 -10 c 0,0,1
374 63 m 256,18,19
 447 63 447 63 502 101 c 128,-1,20
 557 139 557 139 588 207.5 c 128,-1,21
 619 276 619 276 619 364 c 256,22,23
 619 452 619 452 588.5 518 c 128,-1,24
 558 584 558 584 503 620.5 c 128,-1,25
 448 657 448 657 374 657 c 256,26,27
 300 657 300 657 245.5 620.5 c 128,-1,28
 191 584 191 584 161 518 c 128,-1,29
 131 452 131 452 131 364 c 0,30,31
 131 275 131 275 161.5 207 c 128,-1,32
 192 139 192 139 246.5 101 c 128,-1,33
 301 63 301 63 374 63 c 256,18,19
EndSplineSet
Validated: 1
Substitution2: "Single Substitution lookup 17 subtable" ordmasculine
Substitution2: "'aalt' Access All Alternates in Latin lookup 0 subtable" ordmasculine
EndChar

StartChar: Oslash
Encoding: 216 216 70
Width: 750
GlyphClass: 2
Flags: W
AnchorPoint: "Anchor-3" 510 20 basechar 0
AnchorPoint: "Anchor-2" 375 0 basechar 0
AnchorPoint: "Anchor-1" 730 720 basechar 0
AnchorPoint: "Anchor-0" 375 720 basechar 0
LayerCount: 2
Fore
SplineSet
106 -10 m 1,0,-1
 57 29 l 1,1,-1
 644 730 l 1,2,-1
 693 691 l 1,3,-1
 106 -10 l 1,0,-1
375 -10 m 0,4,5
 303 -10 303 -10 243.5 17.5 c 128,-1,6
 184 45 184 45 140.5 95 c 128,-1,7
 97 145 97 145 73 213 c 128,-1,8
 49 281 49 281 49 363 c 0,9,10
 49 471 49 471 90.5 554 c 128,-1,11
 132 637 132 637 205.5 683.5 c 128,-1,12
 279 730 279 730 374 730 c 0,13,14
 471 730 471 730 544.5 683.5 c 128,-1,15
 618 637 618 637 660 554 c 128,-1,16
 702 471 702 471 702 362 c 0,17,18
 702 280 702 280 677.5 212 c 128,-1,19
 653 144 653 144 609.5 94.5 c 128,-1,20
 566 45 566 45 506 17.5 c 128,-1,21
 446 -10 446 -10 375 -10 c 0,4,5
374 63 m 256,22,23
 447 63 447 63 502 101 c 128,-1,24
 557 139 557 139 588 207.5 c 128,-1,25
 619 276 619 276 619 364 c 256,26,27
 619 452 619 452 588.5 518 c 128,-1,28
 558 584 558 584 503 620.5 c 128,-1,29
 448 657 448 657 374 657 c 256,30,31
 300 657 300 657 245.5 620.5 c 128,-1,32
 191 584 191 584 161 518 c 128,-1,33
 131 452 131 452 131 364 c 0,34,35
 131 275 131 275 161.5 207 c 128,-1,36
 192 139 192 139 246.5 101 c 128,-1,37
 301 63 301 63 374 63 c 256,22,23
EndSplineSet
Validated: 5
EndChar

StartChar: OE
Encoding: 338 338 72
Width: 1014
Flags: W
LayerCount: 2
Fore
SplineSet
403 -10 m 0,0,1
 294 -10 294 -10 214.5 37 c 128,-1,2
 135 84 135 84 92 167.5 c 128,-1,3
 49 251 49 251 49 361 c 0,4,5
 49 470 49 470 92 553 c 128,-1,6
 135 636 135 636 214.5 683 c 128,-1,7
 294 730 294 730 403 730 c 0,8,9
 446 730 446 730 479.5 726 c 128,-1,10
 513 722 513 722 540 713 c 1,11,-1
 540 633 l 1,12,13
 519 645 519 645 482 651 c 128,-1,14
 445 657 445 657 403 657 c 0,15,16
 315 657 315 657 254 620.5 c 128,-1,17
 193 584 193 584 162 517.5 c 128,-1,18
 131 451 131 451 131 361 c 256,19,20
 131 271 131 271 162 203.5 c 128,-1,21
 193 136 193 136 254 99.5 c 128,-1,22
 315 63 315 63 403 63 c 0,23,24
 445 63 445 63 482 69 c 128,-1,25
 519 75 519 75 540 87 c 1,26,-1
 540 7 l 1,27,28
 513 -2 513 -2 479.5 -6 c 128,-1,29
 446 -10 446 -10 403 -10 c 0,0,1
507 0 m 1,30,-1
 507 720 l 1,31,-1
 939 720 l 1,32,-1
 939 649 l 1,33,-1
 587 649 l 1,34,-1
 587 410 l 1,35,-1
 912 410 l 1,36,-1
 912 340 l 1,37,-1
 587 340 l 1,38,-1
 587 71 l 1,39,-1
 947 71 l 1,40,-1
 947 0 l 1,41,-1
 507 0 l 1,30,-1
EndSplineSet
Validated: 5
EndChar

StartChar: P
Encoding: 80 80 73
Width: 628
Flags: W
LayerCount: 2
Fore
SplineSet
84 0 m 1,0,-1
 84 720 l 1,1,-1
 351 720 l 2,2,3
 427 720 427 720 479.5 695 c 128,-1,4
 532 670 532 670 560 623 c 128,-1,5
 588 576 588 576 588 510 c 256,6,7
 588 444 588 444 560 396.5 c 128,-1,8
 532 349 532 349 479.5 323 c 128,-1,9
 427 297 427 297 351 297 c 2,10,-1
 143 297 l 1,11,-1
 143 368 l 1,12,-1
 348 368 l 2,13,14
 426 368 426 368 467 405 c 128,-1,15
 508 442 508 442 508 510 c 256,16,17
 508 578 508 578 467.5 613.5 c 128,-1,18
 427 649 427 649 348 649 c 2,19,-1
 165 649 l 1,20,-1
 165 0 l 1,21,-1
 84 0 l 1,0,-1
EndSplineSet
Validated: 5
EndChar

StartChar: Thorn
Encoding: 222 222 74
Width: 628
Flags: W
LayerCount: 2
Fore
SplineSet
143 161 m 1,0,-1
 143 232 l 1,1,-1
 347 232 l 2,2,3
 426 232 426 232 467 268 c 128,-1,4
 508 304 508 304 508 370 c 256,5,6
 508 436 508 436 467 472 c 128,-1,7
 426 508 426 508 347 508 c 2,8,-1
 143 508 l 1,9,-1
 143 579 l 1,10,-1
 350 579 l 2,11,12
 425 579 425 579 478 553.5 c 128,-1,13
 531 528 531 528 559.5 481.5 c 128,-1,14
 588 435 588 435 588 370 c 0,15,16
 588 306 588 306 559.5 259 c 128,-1,17
 531 212 531 212 478 186.5 c 128,-1,18
 425 161 425 161 350 161 c 2,19,-1
 143 161 l 1,0,-1
84 0 m 1,20,-1
 84 720 l 1,21,-1
 165 720 l 1,22,-1
 165 0 l 1,23,-1
 84 0 l 1,20,-1
EndSplineSet
Validated: 5
EndChar

StartChar: Q
Encoding: 81 81 75
Width: 751
Flags: W
LayerCount: 2
Fore
SplineSet
374 59 m 0,0,1
 449 59 449 59 503.5 98.5 c 128,-1,2
 558 138 558 138 588.5 207 c 128,-1,3
 619 276 619 276 619 364 c 128,-1,4
 619 452 619 452 588.5 518 c 128,-1,5
 558 584 558 584 503 620.5 c 128,-1,6
 448 657 448 657 374 657 c 128,-1,7
 300 657 300 657 245.5 620.5 c 128,-1,8
 191 584 191 584 161 518 c 128,-1,9
 131 452 131 452 131 364 c 0,10,11
 131 275 131 275 161.5 206 c 128,-1,12
 192 137 192 137 246.5 98 c 128,-1,13
 301 59 301 59 374 59 c 0,0,1
478 35 m 1,14,-1
 728 71 l 1,15,-1
 728 0 l 1,16,17
 670 0 670 0 630 -1.5 c 128,-1,18
 590 -3 590 -3 556 -5 c 128,-1,19
 522 -7 522 -7 483.5 -8.5 c 128,-1,20
 445 -10 445 -10 391 -10 c 0,21,22
 284 -10 284 -10 207 37.5 c 128,-1,23
 130 85 130 85 89.5 169.5 c 128,-1,24
 49 254 49 254 49 363 c 0,25,26
 49 471 49 471 90.5 554 c 128,-1,27
 132 637 132 637 205.5 683.5 c 128,-1,28
 279 730 279 730 374 730 c 0,29,30
 471 730 471 730 544.5 683.5 c 128,-1,31
 618 637 618 637 660 554 c 128,-1,32
 702 471 702 471 702 362 c 0,33,34
 702 281 702 281 676.5 212.5 c 128,-1,35
 651 144 651 144 601.5 98 c 128,-1,36
 552 52 552 52 478 35 c 1,14,-1
EndSplineSet
Validated: 1
Substitution2: "'ss09' Style Set 9 in Latin lookup 30 subtable" Q.ss09
Substitution2: "'aalt' Access All Alternates in Latin lookup 0 subtable" Q.ss09
EndChar

StartChar: R
Encoding: 65537 -1 76
Width: 628
GlyphClass: 2
Flags: W
AnchorPoint: "Anchor-2" 314 0 basechar 0
AnchorPoint: "Anchor-0" 314 720 basechar 0
LayerCount: 2
Fore
SplineSet
84 0 m 1,0,-1
 84 720 l 1,1,-1
 334 720 l 2,2,3
 409 720 409 720 461.5 695 c 128,-1,4
 514 670 514 670 541.5 625.5 c 128,-1,5
 569 581 569 581 569 520 c 256,6,7
 569 459 569 459 541.5 413.5 c 128,-1,8
 514 368 514 368 461.5 342.5 c 128,-1,9
 409 317 409 317 334 317 c 2,10,-1
 143 317 l 1,11,-1
 143 388 l 1,12,-1
 331 388 l 2,13,14
 408 388 408 388 448.5 423.5 c 128,-1,15
 489 459 489 459 489 520 c 0,16,17
 489 580 489 580 449 614.5 c 128,-1,18
 409 649 409 649 331 649 c 2,19,-1
 165 649 l 1,20,-1
 165 0 l 1,21,-1
 84 0 l 1,0,-1
487 0 m 1,22,-1
 122 359 l 1,23,-1
 230 359 l 1,24,-1
 606 0 l 1,25,-1
 487 0 l 1,22,-1
EndSplineSet
Validated: 5
Substitution2: "'calt' Contextual Alternates in Latin lookup 26 subtable" R.ss05
Substitution2: "'aalt' Access All Alternates in Latin lookup 0 subtable" R.ss05
EndChar

StartChar: S
Encoding: 83 83 80
Width: 584
GlyphClass: 2
Flags: W
AnchorPoint: "Anchor-2" 301 0 basechar 0
AnchorPoint: "Anchor-0" 301 720 basechar 0
LayerCount: 2
Fore
SplineSet
316 -9 m 0,0,1
 195 -9 195 -9 123.5 53 c 128,-1,2
 52 115 52 115 41 230 c 1,3,-1
 119 230 l 1,4,5
 129 147 129 147 178.5 104.5 c 128,-1,6
 228 62 228 62 316 62 c 0,7,8
 390 62 390 62 427.5 91 c 128,-1,9
 465 120 465 120 465 177 c 0,10,11
 465 225 465 225 439 254.5 c 128,-1,12
 413 284 413 284 359 305 c 2,13,-1
 241 351 l 2,14,15
 155 384 155 384 113 430 c 128,-1,16
 71 476 71 476 71 544 c 0,17,18
 71 601 71 601 99 642.5 c 128,-1,19
 127 684 127 684 178 707.5 c 128,-1,20
 229 731 229 731 296 731 c 0,21,22
 401 731 401 731 463 674.5 c 128,-1,23
 525 618 525 618 534 514 c 1,24,-1
 456 514 l 1,25,26
 444 590 444 590 405.5 625 c 128,-1,27
 367 660 367 660 294 660 c 0,28,29
 226 660 226 660 188 631.5 c 128,-1,30
 150 603 150 603 150 551 c 0,31,32
 150 507 150 507 176.5 479 c 128,-1,33
 203 451 203 451 260 430 c 2,34,-1
 384 381 l 2,35,36
 464 351 464 351 503.5 301 c 128,-1,37
 543 251 543 251 543 178 c 0,38,39
 543 89 543 89 484 40 c 128,-1,40
 425 -9 425 -9 316 -9 c 0,0,1
EndSplineSet
Validated: 1
EndChar

StartChar: uni1E9E
Encoding: 7838 7838 85
Width: 684
Flags: W
LayerCount: 2
Fore
SplineSet
397 -9 m 0,0,1
 359 -9 359 -9 325 -4.5 c 128,-1,2
 291 0 291 0 268 10 c 1,3,-1
 268 85 l 1,4,5
 291 74 291 74 325 68 c 128,-1,6
 359 62 359 62 398 62 c 0,7,8
 482 62 482 62 522 94 c 128,-1,9
 562 126 562 126 562 190 c 0,10,11
 562 252 562 252 517 293 c 128,-1,12
 472 334 472 334 367 366 c 1,13,-1
 342 375 l 1,14,-1
 557 645 l 1,15,-1
 556 586 l 1,16,17
 523 624 523 624 477.5 642 c 128,-1,18
 432 660 432 660 373 660 c 0,19,20
 270 660 270 660 217.5 606 c 128,-1,21
 165 552 165 552 165 444 c 2,22,-1
 165 0 l 1,23,-1
 84 0 l 1,24,-1
 84 444 l 2,25,26
 84 585 84 585 159 658 c 128,-1,27
 234 731 234 731 377 731 c 0,28,29
 457 731 457 731 517.5 706.5 c 128,-1,30
 578 682 578 682 637 625 c 1,31,-1
 436 371 l 1,32,-1
 409 429 l 1,33,34
 526 393 526 393 584.5 330 c 128,-1,35
 643 267 643 267 643 182 c 0,36,37
 643 122 643 122 614.5 79 c 128,-1,38
 586 36 586 36 531 13.5 c 128,-1,39
 476 -9 476 -9 397 -9 c 0,0,1
EndSplineSet
Validated: 5
EndChar

StartChar: T
Encoding: 84 84 86
Width: 619
GlyphClass: 2
Flags: W
AnchorPoint: "Anchor-2" 309 0 basechar 0
AnchorPoint: "Anchor-0" 309 720 basechar 0
LayerCount: 2
Fore
SplineSet
269 0 m 1,0,-1
 269 649 l 1,1,-1
 34 649 l 1,2,-1
 34 720 l 1,3,-1
 585 720 l 1,4,-1
 585 649 l 1,5,-1
 350 649 l 1,6,-1
 350 596 l 4,7,-1
 350 0 l 1,8,-1
 269 0 l 1,0,-1
EndSplineSet
Validated: 1
EndChar

StartChar: U
Encoding: 85 85 89
Width: 683
GlyphClass: 2
Flags: W
AnchorPoint: "Anchor-3" 474 20 basechar 0
AnchorPoint: "Anchor-2" 341 0 basechar 0
AnchorPoint: "Anchor-1" 663 720 basechar 0
AnchorPoint: "Anchor-0" 341 720 basechar 0
LayerCount: 2
Fore
SplineSet
340 -10 m 0,0,1
 216 -10 216 -10 147 66.5 c 128,-1,2
 78 143 78 143 78 279 c 2,3,-1
 78 720 l 1,4,-1
 159 720 l 1,5,-1
 159 275 l 2,6,7
 159 172 159 172 206 117.5 c 128,-1,8
 253 63 253 63 340 63 c 0,9,10
 430 63 430 63 477 117 c 128,-1,11
 524 171 524 171 524 275 c 2,12,-1
 524 720 l 1,13,-1
 605 720 l 1,14,-1
 605 278 l 2,15,16
 605 143 605 143 535.5 66.5 c 128,-1,17
 466 -10 466 -10 340 -10 c 0,0,1
EndSplineSet
Validated: 1
EndChar

StartChar: V
Encoding: 86 86 99
Width: 693
Flags: W
LayerCount: 2
Fore
SplineSet
297 0 m 1,0,-1
 35 720 l 1,1,-1
 120 720 l 1,2,-1
 363 38 l 1,3,-1
 336 38 l 1,4,-1
 578 720 l 1,5,-1
 659 720 l 1,6,-1
 396 0 l 1,7,-1
 297 0 l 1,0,-1
EndSplineSet
Validated: 5
EndChar

StartChar: W
Encoding: 87 87 100
Width: 1031
GlyphClass: 2
Flags: W
AnchorPoint: "Anchor-2" 516 0 basechar 0
AnchorPoint: "Anchor-0" 516 720 basechar 0
LayerCount: 2
Fore
SplineSet
247 0 m 1,0,-1
 48 720 l 1,1,-1
 130 720 l 1,2,-1
 308 58 l 1,3,-1
 294 58 l 1,4,-1
 468 720 l 1,5,-1
 567 720 l 1,6,-1
 743 58 l 1,7,-1
 728 58 l 1,8,-1
 905 720 l 1,9,-1
 983 720 l 1,10,-1
 784 0 l 1,11,-1
 685 0 l 1,12,-1
 510 642 l 1,13,-1
 522 642 l 1,14,-1
 346 0 l 1,15,-1
 247 0 l 1,0,-1
EndSplineSet
Validated: 5
EndChar

StartChar: X
Encoding: 88 88 105
Width: 658
Flags: W
LayerCount: 2
Fore
SplineSet
527 0 m 1,0,-1
 304 338 l 1,1,-1
 52 720 l 1,2,-1
 145 720 l 1,3,-1
 354 403 l 1,4,-1
 620 0 l 1,5,-1
 527 0 l 1,0,-1
315 401 m 1,6,-1
 532 720 l 1,7,-1
 619 720 l 1,8,-1
 357 334 l 1,9,-1
 315 401 l 1,6,-1
346 330 m 1,10,-1
 122 0 l 1,11,-1
 36 0 l 1,12,-1
 303 398 l 1,13,-1
 346 330 l 1,10,-1
EndSplineSet
Validated: 5
EndChar

StartChar: Y
Encoding: 89 89 106
Width: 648
GlyphClass: 2
Flags: W
AnchorPoint: "Anchor-2" 324 0 basechar 0
AnchorPoint: "Anchor-0" 324 720 basechar 0
LayerCount: 2
Fore
SplineSet
284 0 m 1,0,-1
 284 327 l 1,1,-1
 23 720 l 1,2,-1
 120 720 l 1,3,-1
 346 375 l 1,4,-1
 310 375 l 1,5,-1
 536 720 l 1,6,-1
 626 720 l 1,7,-1
 364 327 l 1,8,-1
 364 0 l 1,9,-1
 284 0 l 1,0,-1
EndSplineSet
Validated: 5
EndChar

StartChar: Z
Encoding: 90 90 111
Width: 602
GlyphClass: 2
Flags: W
AnchorPoint: "Anchor-2" 301 0 basechar 0
AnchorPoint: "Anchor-0" 301 720 basechar 0
LayerCount: 2
Fore
SplineSet
60 0 m 1,0,-1
 60 61 l 1,1,-1
 463 689 l 1,2,-1
 492 649 l 1,3,-1
 70 649 l 1,4,-1
 70 720 l 1,5,-1
 538 720 l 1,6,-1
 538 659 l 1,7,-1
 135 31 l 1,8,-1
 106 71 l 1,9,-1
 547 71 l 1,10,-1
 547 0 l 1,11,-1
 60 0 l 1,0,-1
EndSplineSet
Validated: 5
EndChar

StartChar: K.ss04
Encoding: 65559 -1 133
Width: 664
GlyphClass: 2
Flags: W
AnchorPoint: "Anchor-2" 343 0 basechar 0
AnchorPoint: "Anchor-0" 332 720 basechar 0
LayerCount: 2
Fore
SplineSet
84 0 m 1,0,-1
 84 720 l 1,1,-1
 165 720 l 1,2,-1
 165 0 l 1,3,-1
 84 0 l 1,0,-1
103 256 m 1,4,-1
 516 720 l 1,5,-1
 621 720 l 1,6,-1
 326 396 l 1,7,-1
 309 387 l 1,8,-1
 132 193 l 1,9,-1
 103 256 l 1,4,-1
539 0 m 1,10,-1
 249 413 l 1,11,-1
 340 415 l 1,12,-1
 641 0 l 1,13,-1
 539 0 l 1,10,-1
EndSplineSet
Validated: 5
EndChar

StartChar: R.ss05
Encoding: 82 82 135
Width: 621
GlyphClass: 2
Flags: WO
AnchorPoint: "Anchor-2" 322 0 basechar 0
AnchorPoint: "Anchor-0" 313 720 basechar 0
LayerCount: 2
Fore
SplineSet
84 0 m 1,0,-1
 84 720 l 1,1,-1
 334 720 l 17,2,3
 407 720 407 720 459.5 696 c 129,-1,4
 512 672 512 672 540.5 628 c 129,-1,5
 569 584 569 584 569 525 c 1,6,7
 569 451 569 451 523 404 c 129,-1,8
 477 357 477 357 385 336 c 1,9,-1
 392 362 l 1,10,11
 471 363 471 363 510 326 c 129,-1,12
 549 289 549 289 557.5 210.5 c 1,13,14
 566 140 566 140 575.5 70.5 c 5,15,16
 586 19 586 19 595 0 c 1,17,18
 551 0 551 0 507 0 c 1,19,20
 501 13 501 13 489.75 93 c 1,21,22
 488 106 488 106 477 199 c 1,23,24
 470 261 470 261 440.5 287.5 c 1,25,26
 404 321 404 321 339 321 c 9,27,-1
 143 321 l 1,28,-1
 143 388 l 1,29,-1
 331 388 l 17,30,31
 405 388 405 388 447 423.5 c 129,-1,32
 489 459 489 459 489 521 c 1,33,34
 489 582 489 582 448 615.5 c 129,-1,35
 407 649 407 649 331 649 c 9,36,-1
 165 649 l 1,37,-1
 165 0 l 1,38,-1
 84 0 l 1,0,-1
EndSplineSet
EndChar

StartChar: M.ss06
Encoding: 65561 -1 139
Width: 856
Flags: W
LayerCount: 2
Fore
SplineSet
64 0 m 1,0,-1
 130 720 l 1,1,-1
 242 720 l 1,2,-1
 439 28 l 1,3,-1
 416 28 l 1,4,-1
 612 720 l 1,5,-1
 725 720 l 1,6,-1
 792 0 l 1,7,-1
 712 0 l 1,8,-1
 647 670 l 1,9,-1
 671 670 l 1,10,-1
 482 0 l 1,11,-1
 367 0 l 1,12,-1
 180 665 l 1,13,-1
 202 665 l 1,14,-1
 138 0 l 1,15,-1
 64 0 l 1,0,-1
EndSplineSet
Validated: 5
EndChar

StartChar: G.ss07
Encoding: 65562 -1 140
Width: 729
GlyphClass: 2
Flags: W
AnchorPoint: "Anchor-2" 375 0 basechar 0
AnchorPoint: "Anchor-0" 375 720 basechar 0
LayerCount: 2
Fore
SplineSet
380 -10 m 0,0,1
 281 -10 281 -10 206 37 c 128,-1,2
 131 84 131 84 90 167.5 c 128,-1,3
 49 251 49 251 49 357 c 0,4,5
 49 468 49 468 91 551.5 c 128,-1,6
 133 635 133 635 208 682.5 c 128,-1,7
 283 730 283 730 380 730 c 0,8,9
 462 730 462 730 523.5 698 c 128,-1,10
 585 666 585 666 622.5 612 c 128,-1,11
 660 558 660 558 669 492 c 1,12,-1
 588 492 l 1,13,14
 582 537 582 537 557 574.5 c 128,-1,15
 532 612 532 612 488 634.5 c 128,-1,16
 444 657 444 657 382 657 c 0,17,18
 305 657 305 657 248.5 620 c 128,-1,19
 192 583 192 583 161.5 515.5 c 128,-1,20
 131 448 131 448 131 357 c 0,21,22
 131 269 131 269 160.5 202.5 c 128,-1,23
 190 136 190 136 246.5 99.5 c 128,-1,24
 303 63 303 63 383 63 c 0,25,26
 445 63 445 63 495 89 c 128,-1,27
 545 115 545 115 574 173.5 c 128,-1,28
 603 232 603 232 603 330 c 1,29,-1
 680 330 l 1,30,31
 680 214 680 214 640 138.5 c 128,-1,32
 600 63 600 63 532 26.5 c 128,-1,33
 464 -10 464 -10 380 -10 c 0,0,1
622 300 m 1,34,-1
 401 300 l 1,35,-1
 401 371 l 1,36,-1
 680 371 l 1,37,-1
 680 330 l 1,38,-1
 622 300 l 1,34,-1
EndSplineSet
Validated: 5
EndChar

StartChar: J.ss08
Encoding: 65566 -1 144
Width: 597
Flags: W
LayerCount: 2
Fore
SplineSet
288 -10 m 0,0,1
 221 -10 221 -10 169.5 18 c 128,-1,2
 118 46 118 46 88 99 c 128,-1,3
 58 152 58 152 58 225 c 1,4,-1
 137 225 l 1,5,6
 137 146 137 146 180 104.5 c 128,-1,7
 223 63 223 63 287 63 c 0,8,9
 331 63 331 63 365 82 c 128,-1,10
 399 101 399 101 419 140 c 128,-1,11
 439 179 439 179 439 239 c 2,12,-1
 439 720 l 1,13,-1
 519 720 l 1,14,-1
 519 242 l 2,15,16
 519 160 519 160 489 104 c 128,-1,17
 459 48 459 48 407.5 19 c 128,-1,18
 356 -10 356 -10 288 -10 c 0,0,1
EndSplineSet
Validated: 1
EndChar

StartChar: Q.ss09
Encoding: 65567 -1 145
Width: 750
Flags: W
LayerCount: 2
Fore
SplineSet
375 -10 m 0,0,1
 303 -10 303 -10 243.5 17.5 c 128,-1,2
 184 45 184 45 140.5 95 c 128,-1,3
 97 145 97 145 73 213 c 128,-1,4
 49 281 49 281 49 363 c 0,5,6
 49 471 49 471 90.5 554 c 128,-1,7
 132 637 132 637 205.5 683.5 c 128,-1,8
 279 730 279 730 374 730 c 0,9,10
 471 730 471 730 544.5 683.5 c 128,-1,11
 618 637 618 637 660 554 c 128,-1,12
 702 471 702 471 702 362 c 0,13,14
 702 280 702 280 677.5 212 c 128,-1,15
 653 144 653 144 609.5 94.5 c 128,-1,16
 566 45 566 45 506 17.5 c 128,-1,17
 446 -10 446 -10 375 -10 c 0,0,1
374 63 m 0,18,19
 429 63 429 63 474 84.5 c 128,-1,20
 519 106 519 106 551.5 146.5 c 128,-1,21
 584 187 584 187 601.5 242 c 128,-1,22
 619 297 619 297 619 364 c 0,23,24
 619 452 619 452 588.5 518 c 128,-1,25
 558 584 558 584 503 620.5 c 128,-1,26
 448 657 448 657 374 657 c 256,27,28
 300 657 300 657 245.5 620.5 c 128,-1,29
 191 584 191 584 161 518 c 128,-1,30
 131 452 131 452 131 364 c 0,31,32
 131 275 131 275 161.5 207 c 128,-1,33
 192 139 192 139 246.5 101 c 128,-1,34
 301 63 301 63 374 63 c 0,18,19
378 222 m 1,35,-1
 440 257 l 1,36,-1
 638 -86 l 1,37,-1
 576 -121 l 1,38,-1
 378 222 l 1,35,-1
EndSplineSet
Validated: 5
EndChar

StartChar: a
Encoding: 97 97 150
Width: 515
GlyphClass: 2
Flags: W
AnchorPoint: "Anchor-3" 456 0 basechar 0
AnchorPoint: "Anchor-2" 258 0 basechar 0
AnchorPoint: "Anchor-0" 262 510 basechar 0
LayerCount: 2
Fore
SplineSet
379 0 m 1,0,1
 375 17 375 17 373 39 c 128,-1,2
 371 61 371 61 371 94 c 1,3,-1
 366 94 l 1,4,-1
 366 345 l 2,5,6
 366 400 366 400 342.5 426.5 c 128,-1,7
 319 453 319 453 266.5 453 c 128,-1,8
 214 453 214 453 179.5 429 c 0,9,10
 148 408 148 408 144 362 c 1,11,-1
 69 362 l 1,12,13
 73 438 73 438 127 478 c 0,14,15
 184 520 184 520 267 520 c 0,16,17
 358 520 358 520 400.5 476 c 128,-1,18
 443 432 443 432 443 345 c 2,19,-1
 443 94 l 2,20,21
 443 72 443 72 446 45.5 c 128,-1,22
 449 19 449 19 456 0 c 1,23,-1
 379 0 l 1,0,1
210 -10 m 0,24,25
 134 -10 134 -10 89.5 28 c 128,-1,26
 45 66 45 66 45 132 c 0,27,28
 45 197 45 197 89 234.5 c 128,-1,29
 133 272 133 272 218 285 c 152,-1,30
 303 298 303 298 388 306 c 1,31,-1
 388 257 l 5,32,33
 310 242 310 242 243.5 230 c 152,-1,34
 177 218 177 218 149.5 196.5 c 128,-1,35
 122 175 122 175 122 135 c 0,36,37
 122 97 122 97 147.5 77 c 128,-1,38
 173 57 173 57 222 57 c 0,39,40
 286 57 286 57 326 87.5 c 128,-1,41
 366 118 366 118 366 168 c 1,42,-1
 379 96 l 1,43,44
 363 45 363 45 318.5 17.5 c 128,-1,45
 274 -10 274 -10 210 -10 c 0,24,25
EndSplineSet
Validated: 5
Substitution2: "'ss02' Style Set 2 in Latin lookup 23 subtable" a.ss02
Substitution2: "Single Substitution lookup 17 subtable" ordfeminine
AlternateSubs2: "'aalt' Access All Alternates in Latin lookup 1 subtable" a.ss02 ordfeminine
EndChar

StartChar: ae
Encoding: 230 230 161
Width: 834
Flags: W
LayerCount: 2
Fore
SplineSet
357 134 m 1,0,-1
 357 345 l 2,1,2
 357 400 357 400 332.5 426.5 c 128,-1,3
 308 453 308 453 255 453 c 256,4,5
 202 453 202 453 171 429 c 128,-1,6
 140 405 140 405 136 362 c 1,7,-1
 60 362 l 1,8,9
 64 436 64 436 117 478 c 128,-1,10
 170 520 170 520 259 520 c 256,11,12
 348 520 348 520 392 476 c 128,-1,13
 436 432 436 432 436 345 c 2,14,-1
 436 134 l 1,15,-1
 357 134 l 1,0,-1
207 -10 m 0,16,17
 132 -10 132 -10 88.5 27.5 c 128,-1,18
 45 65 45 65 45 128 c 0,19,20
 45 190 45 190 86.5 229 c 128,-1,21
 128 268 128 268 217 285 c 2,22,-1
 379 315 l 1,23,-1
 379 250 l 1,24,-1
 230 224 l 2,25,26
 174 214 174 214 149 191 c 128,-1,27
 124 168 124 168 124 131 c 0,28,29
 124 96 124 96 148.5 76.5 c 128,-1,30
 173 57 173 57 220 57 c 0,31,32
 260 57 260 57 291 71 c 128,-1,33
 322 85 322 85 339.5 110 c 128,-1,34
 357 135 357 135 357 168 c 1,35,-1
 419 134 l 1,36,37
 389 55 389 55 332.5 22.5 c 128,-1,38
 276 -10 276 -10 207 -10 c 0,16,17
581 -10 m 0,39,40
 514 -10 514 -10 465.5 24 c 128,-1,41
 417 58 417 58 391 118 c 128,-1,42
 365 178 365 178 365 257 c 0,43,44
 365 335 365 335 392.5 394.5 c 128,-1,45
 420 454 420 454 469.5 487 c 128,-1,46
 519 520 519 520 585 520 c 0,47,48
 650 520 650 520 697 489.5 c 128,-1,49
 744 459 744 459 769 402.5 c 128,-1,50
 794 346 794 346 794 269 c 0,51,52
 794 259 794 259 793.5 250.5 c 128,-1,53
 793 242 793 242 792 232 c 1,54,-1
 413 232 l 1,55,-1
 413 298 l 1,56,-1
 744 298 l 1,57,-1
 718 261 l 1,58,59
 718 355 718 355 684.5 404 c 128,-1,60
 651 453 651 453 584 453 c 0,61,62
 542 453 542 453 508.5 429 c 128,-1,63
 475 405 475 405 455.5 361 c 128,-1,64
 436 317 436 317 436 257 c 0,65,66
 436 166 436 166 476 111.5 c 128,-1,67
 516 57 516 57 585 57 c 0,68,69
 629 57 629 57 660 79.5 c 128,-1,70
 691 102 691 102 706 144 c 1,71,-1
 781 144 l 1,72,73
 758 73 758 73 706 31.5 c 128,-1,74
 654 -10 654 -10 581 -10 c 0,39,40
EndSplineSet
Validated: 5
EndChar

StartChar: b
Encoding: 98 98 162
Width: 586
Flags: W
LayerCount: 2
Fore
SplineSet
321 -9 m 0,0,1
 252 -9 252 -9 205 25 c 128,-1,2
 158 59 158 59 141 122 c 1,3,-1
 151 125 l 1,4,-1
 151 0 l 1,5,-1
 78 0 l 1,6,-1
 78 720 l 1,7,-1
 157 720 l 1,8,-1
 157 393 l 1,9,-1
 146 397 l 1,10,11
 164 455 164 455 212.5 487.5 c 128,-1,12
 261 520 261 520 328 520 c 0,13,14
 394 520 394 520 442.5 487.5 c 128,-1,15
 491 455 491 455 518 396 c 128,-1,16
 545 337 545 337 545 258 c 0,17,18
 545 177 545 177 517 117 c 128,-1,19
 489 57 489 57 439 24 c 128,-1,20
 389 -9 389 -9 321 -9 c 0,0,1
309 60 m 0,21,22
 383 60 383 60 423.5 112 c 128,-1,23
 464 164 464 164 464 257 c 0,24,25
 464 348 464 348 423 399.5 c 128,-1,26
 382 451 382 451 309 451 c 256,27,28
 236 451 236 451 194 399 c 128,-1,29
 152 347 152 347 152 254 c 0,30,31
 152 163 152 163 194 111.5 c 128,-1,32
 236 60 236 60 309 60 c 0,21,22
EndSplineSet
Validated: 5
EndChar

StartChar: c
Encoding: 99 99 163
Width: 514
GlyphClass: 2
Flags: W
AnchorPoint: "Anchor-2" 269 0 basechar 0
AnchorPoint: "Anchor-0" 273 510 basechar 0
LayerCount: 2
Fore
SplineSet
272 -10 m 0,0,1
 204 -10 204 -10 152 24 c 128,-1,2
 100 58 100 58 70 118.5 c 128,-1,3
 40 179 40 179 40 257 c 256,4,5
 40 335 40 335 70 394 c 128,-1,6
 100 453 100 453 152.5 486.5 c 128,-1,7
 205 520 205 520 272 520 c 0,8,9
 327 520 327 520 371 498 c 128,-1,10
 415 476 415 476 443 435 c 128,-1,11
 471 394 471 394 478 339 c 1,12,-1
 405 339 l 1,13,14
 396 390 396 390 362 421.5 c 128,-1,15
 328 453 328 453 273 453 c 0,16,17
 226 453 226 453 192 429 c 128,-1,18
 158 405 158 405 139 361 c 128,-1,19
 120 317 120 317 120 257 c 256,20,21
 120 197 120 197 139 152 c 128,-1,22
 158 107 158 107 192.5 82 c 128,-1,23
 227 57 227 57 274 57 c 0,24,25
 327 57 327 57 362 88.5 c 128,-1,26
 397 120 397 120 406 170 c 1,27,-1
 479 170 l 1,28,29
 471 117 471 117 442 76 c 128,-1,30
 413 35 413 35 369.5 12.5 c 128,-1,31
 326 -10 326 -10 272 -10 c 0,0,1
EndSplineSet
Validated: 1
EndChar

StartChar: d
Encoding: 100 100 168
Width: 586
GlyphClass: 2
Flags: W
AnchorPoint: "Anchor-2" 293 0 basechar 0
AnchorPoint: "Anchor-1" 576 720 basechar 0
AnchorPoint: "Anchor-0" 293 738 basechar 0
LayerCount: 2
Fore
SplineSet
435 0 m 1,0,-1
 435 117 l 1,1,-1
 444 113 l 1,2,3
 426 56 426 56 377.5 23 c 128,-1,4
 329 -10 329 -10 262 -10 c 256,5,6
 195 -10 195 -10 145.5 23 c 128,-1,7
 96 56 96 56 69 114.5 c 128,-1,8
 42 173 42 173 42 253 c 256,9,10
 42 333 42 333 69.5 393 c 128,-1,11
 97 453 97 453 147.5 486 c 128,-1,12
 198 519 198 519 265 519 c 0,13,14
 334 519 334 519 381.5 485 c 128,-1,15
 429 451 429 451 445 388 c 1,16,-1
 430 385 l 1,17,-1
 430 720 l 1,18,-1
 508 720 l 1,19,-1
 508 0 l 1,20,-1
 435 0 l 1,0,-1
277 59 m 0,21,22
 351 59 351 59 392.5 111 c 128,-1,23
 434 163 434 163 434 256 c 0,24,25
 434 347 434 347 392 398.5 c 128,-1,26
 350 450 350 450 277 450 c 256,27,28
 204 450 204 450 163 398.5 c 128,-1,29
 122 347 122 347 122 253 c 0,30,31
 122 162 122 162 163 110.5 c 128,-1,32
 204 59 204 59 277 59 c 0,21,22
EndSplineSet
Validated: 5
EndChar

StartChar: eth
Encoding: 240 240 169
Width: 572
Flags: W
LayerCount: 2
Fore
SplineSet
274 -10 m 0,0,1
 208 -10 208 -10 154.5 19.5 c 128,-1,2
 101 49 101 49 70 105 c 128,-1,3
 39 161 39 161 39 241 c 0,4,5
 39 322 39 322 70 378.5 c 128,-1,6
 101 435 101 435 153 465 c 128,-1,7
 205 495 205 495 268 495 c 0,8,9
 320 495 320 495 362.5 476.5 c 128,-1,10
 405 458 405 458 434 423.5 c 128,-1,11
 463 389 463 389 471 343 c 1,12,-1
 451 299 l 1,13,-1
 451 357 l 2,14,15
 451 457 451 457 409.5 526 c 128,-1,16
 368 595 368 595 290.5 630.5 c 128,-1,17
 213 666 213 666 103 666 c 1,18,-1
 113 730 l 1,19,20
 208 730 208 730 284.5 704.5 c 128,-1,21
 361 679 361 679 416 630.5 c 128,-1,22
 471 582 471 582 501 510.5 c 128,-1,23
 531 439 531 439 531 345 c 0,24,25
 531 173 531 173 462 81.5 c 128,-1,26
 393 -10 393 -10 274 -10 c 0,0,1
271 61 m 0,27,28
 320 61 320 61 357.5 83 c 128,-1,29
 395 105 395 105 416.5 147 c 128,-1,30
 438 189 438 189 438 251 c 0,31,32
 438 310 438 310 415 348.5 c 128,-1,33
 392 387 392 387 354.5 407 c 128,-1,34
 317 427 317 427 273 427 c 0,35,36
 205 427 205 427 162.5 381 c 128,-1,37
 120 335 120 335 120 242 c 0,38,39
 120 182 120 182 140 141.5 c 128,-1,40
 160 101 160 101 194.5 81 c 128,-1,41
 229 61 229 61 271 61 c 0,27,28
184 529 m 1,42,-1
 153 578 l 1,43,-1
 427 755 l 1,44,-1
 458 706 l 1,45,-1
 184 529 l 1,42,-1
EndSplineSet
Validated: 5
EndChar

StartChar: dcroat
Encoding: 273 273 171
Width: 586
GlyphClass: 2
Flags: W
AnchorPoint: "Anchor-2" 293 0 basechar 0
AnchorPoint: "Anchor-1" 576 720 basechar 0
AnchorPoint: "Anchor-0" 293 738 basechar 0
LayerCount: 2
Fore
SplineSet
260 595 m 1,0,-1
 260 652 l 1,1,-1
 586 652 l 1,2,-1
 586 595 l 1,3,-1
 260 595 l 1,0,-1
435 0 m 1,4,-1
 435 117 l 1,5,-1
 444 113 l 1,6,7
 426 56 426 56 377.5 23 c 128,-1,8
 329 -10 329 -10 262 -10 c 256,9,10
 195 -10 195 -10 145.5 23 c 128,-1,11
 96 56 96 56 69 114.5 c 128,-1,12
 42 173 42 173 42 253 c 256,13,14
 42 333 42 333 69.5 393 c 128,-1,15
 97 453 97 453 147.5 486 c 128,-1,16
 198 519 198 519 265 519 c 0,17,18
 334 519 334 519 381.5 485 c 128,-1,19
 429 451 429 451 445 388 c 1,20,-1
 430 385 l 1,21,-1
 430 720 l 1,22,-1
 508 720 l 1,23,-1
 508 0 l 1,24,-1
 435 0 l 1,4,-1
277 59 m 0,25,26
 351 59 351 59 392.5 111 c 128,-1,27
 434 163 434 163 434 256 c 0,28,29
 434 347 434 347 392 398.5 c 128,-1,30
 350 450 350 450 277 450 c 256,31,32
 204 450 204 450 163 398.5 c 128,-1,33
 122 347 122 347 122 253 c 0,34,35
 122 162 122 162 163 110.5 c 128,-1,36
 204 59 204 59 277 59 c 0,25,26
EndSplineSet
Validated: 5
EndChar

StartChar: e
Encoding: 101 101 172
Width: 544
GlyphClass: 2
Flags: W
AnchorPoint: "Anchor-3" 395 20 basechar 0
AnchorPoint: "Anchor-2" 272 0 basechar 0
AnchorPoint: "Anchor-0" 283 510 basechar 0
LayerCount: 2
Fore
SplineSet
278 -10 m 0,0,1
 208 -10 208 -10 154.5 24 c 128,-1,2
 101 58 101 58 70.5 118 c 128,-1,3
 40 178 40 178 40 257 c 0,4,5
 40 335 40 335 70 394.5 c 128,-1,6
 100 454 100 454 155 487 c 128,-1,7
 210 520 210 520 282 520 c 0,8,9
 350 520 350 520 400 489.5 c 128,-1,10
 450 459 450 459 477 402.5 c 128,-1,11
 504 346 504 346 504 269 c 0,12,13
 504 259 504 259 503.5 250.5 c 128,-1,14
 503 242 503 242 502 232 c 1,15,-1
 98 232 l 1,16,-1
 98 298 l 1,17,-1
 454 298 l 1,18,-1
 428 261 l 1,19,20
 428 355 428 355 390 404 c 128,-1,21
 352 453 352 453 281 453 c 0,22,23
 208 453 208 453 164 400.5 c 128,-1,24
 120 348 120 348 120 257 c 256,25,26
 120 166 120 166 164 111.5 c 128,-1,27
 208 57 208 57 282 57 c 0,28,29
 330 57 330 57 365.5 79.5 c 128,-1,30
 401 102 401 102 416 144 c 1,31,-1
 491 144 l 1,32,33
 468 73 468 73 411.5 31.5 c 128,-1,34
 355 -10 355 -10 278 -10 c 0,0,1
EndSplineSet
Validated: 5
EndChar

StartChar: f
Encoding: 102 102 181
Width: 341
Flags: W
LayerCount: 2
Fore
SplineSet
117 0 m 1,0,-1
 117 587 l 2,1,2
 117 655 117 655 156 692.5 c 128,-1,3
 195 730 195 730 275 730 c 0,4,5
 295 730 295 730 306 728 c 128,-1,6
 317 726 317 726 325 723 c 1,7,-1
 325 661 l 1,8,9
 318 663 318 663 306 665 c 128,-1,10
 294 667 294 667 281 667 c 0,11,12
 237 667 237 667 216 645 c 128,-1,13
 195 623 195 623 195 582 c 2,14,-1
 195 0 l 1,15,-1
 117 0 l 1,0,-1
16 443 m 1,16,-1
 16 510 l 1,17,-1
 314 510 l 1,18,-1
 314 443 l 1,19,-1
 16 443 l 1,16,-1
EndSplineSet
Validated: 5
EndChar

StartChar: g
Encoding: 103 103 182
Width: 586
GlyphClass: 2
Flags: W
AnchorPoint: "Anchor-2" 293 -205 basechar 0
AnchorPoint: "Anchor-0" 278 510 basechar 0
LayerCount: 2
Fore
SplineSet
274 -215 m 0,0,1
 186 -215 186 -215 128 -173 c 128,-1,2
 70 -131 70 -131 58 -61 c 1,3,-1
 132 -61 l 1,4,5
 142 -101 142 -101 179 -124.5 c 128,-1,6
 216 -148 216 -148 279 -148 c 0,7,8
 354 -148 354 -148 392 -107 c 128,-1,9
 430 -66 430 -66 430 13 c 2,10,-1
 430 127 l 1,11,-1
 439 125 l 1,12,13
 424 68 424 68 375 34 c 128,-1,14
 326 0 326 0 258 0 c 0,15,16
 193 0 193 0 144 32.5 c 128,-1,17
 95 65 95 65 68.5 122.5 c 128,-1,18
 42 180 42 180 42 258 c 256,19,20
 42 336 42 336 69.5 395 c 128,-1,21
 97 454 97 454 148 486.5 c 128,-1,22
 199 519 199 519 267 519 c 0,23,24
 336 519 336 519 382.5 484.5 c 128,-1,25
 429 450 429 450 444 387 c 1,26,-1
 435 386 l 1,27,-1
 435 510 l 1,28,-1
 508 510 l 1,29,-1
 508 14 l 2,30,31
 508 -92 508 -92 445.5 -153.5 c 128,-1,32
 383 -215 383 -215 274 -215 c 0,0,1
278 68 m 256,33,34
 350 68 350 68 392 119.5 c 128,-1,35
 434 171 434 171 434 262 c 0,36,37
 434 350 434 350 392 400.5 c 128,-1,38
 350 451 350 451 278 451 c 0,39,40
 205 451 205 451 163.5 400.5 c 128,-1,41
 122 350 122 350 122 259 c 0,42,43
 122 171 122 171 164 119.5 c 128,-1,44
 206 68 206 68 278 68 c 256,33,34
EndSplineSet
Validated: 5
EndChar

StartChar: h
Encoding: 104 104 186
Width: 579
GlyphClass: 2
Flags: W
AnchorPoint: "Anchor-2" 307 0 basechar 0
AnchorPoint: "Anchor-0" 307 510 basechar 0
LayerCount: 2
Fore
SplineSet
78 0 m 1,0,-1
 78 720 l 1,1,-1
 157 720 l 1,2,-1
 157 0 l 1,3,-1
 78 0 l 1,0,-1
429 0 m 1,4,-1
 429 339 l 2,5,6
 429 395 429 395 401.5 423 c 128,-1,7
 374 451 374 451 319 451 c 0,8,9
 271 451 271 451 234 429.5 c 128,-1,10
 197 408 197 408 177 370.5 c 128,-1,11
 157 333 157 333 157 283 c 1,12,-1
 144 400 l 1,13,14
 169 456 169 456 220.5 488 c 128,-1,15
 272 520 272 520 337 520 c 0,16,17
 414 520 414 520 460.5 476 c 128,-1,18
 507 432 507 432 507 359 c 2,19,-1
 507 0 l 1,20,-1
 429 0 l 1,4,-1
EndSplineSet
Validated: 5
EndChar

StartChar: hbar
Encoding: 295 295 187
Width: 579
GlyphClass: 2
Flags: W
AnchorPoint: "Anchor-2" 307 0 basechar 0
AnchorPoint: "Anchor-0" 307 510 basechar 0
LayerCount: 2
Fore
SplineSet
0 595 m 1,0,-1
 0 652 l 1,1,-1
 327 652 l 1,2,-1
 327 595 l 1,3,-1
 0 595 l 1,0,-1
78 0 m 1,4,-1
 78 720 l 1,5,-1
 157 720 l 1,6,-1
 157 0 l 1,7,-1
 78 0 l 1,4,-1
429 0 m 1,8,-1
 429 339 l 2,9,10
 429 395 429 395 401.5 423 c 128,-1,11
 374 451 374 451 319 451 c 0,12,13
 271 451 271 451 234 429.5 c 128,-1,14
 197 408 197 408 177 370.5 c 128,-1,15
 157 333 157 333 157 283 c 1,16,-1
 144 400 l 1,17,18
 169 456 169 456 220.5 488 c 128,-1,19
 272 520 272 520 337 520 c 0,20,21
 414 520 414 520 460.5 476 c 128,-1,22
 507 432 507 432 507 359 c 2,23,-1
 507 0 l 1,24,-1
 429 0 l 1,8,-1
EndSplineSet
Validated: 5
EndChar

StartChar: dotlessi
Encoding: 305 305 189
Width: 235
GlyphClass: 2
Flags: W
AnchorPoint: "Anchor-3" 157 0 basechar 0
AnchorPoint: "Anchor-2" 117 0 basechar 0
AnchorPoint: "Anchor-0" 117 510 basechar 0
LayerCount: 2
Fore
SplineSet
78 0 m 1,0,-1
 78 510 l 1,1,-1
 157 510 l 1,2,-1
 157 0 l 1,3,-1
 78 0 l 1,0,-1
EndSplineSet
Validated: 1
EndChar

StartChar: uni0237
Encoding: 567 567 199
Width: 235
GlyphClass: 2
Flags: W
AnchorPoint: "Anchor-2" 117 -205 basechar 0
AnchorPoint: "Anchor-0" 117 510 basechar 0
LayerCount: 2
Fore
SplineSet
17 -215 m 0,0,1
 -2 -215 -2 -215 -13.5 -213 c 128,-1,2
 -25 -211 -25 -211 -33 -208 c 1,3,-1
 -33 -146 l 1,4,5
 -26 -148 -26 -148 -14 -150 c 128,-1,6
 -2 -152 -2 -152 11 -152 c 0,7,8
 49 -152 49 -152 63.5 -135.5 c 128,-1,9
 78 -119 78 -119 78 -87 c 2,10,-1
 78 510 l 1,11,-1
 157 510 l 1,12,-1
 157 -91 l 2,13,14
 157 -150 157 -150 123.5 -182.5 c 128,-1,15
 90 -215 90 -215 17 -215 c 0,0,1
EndSplineSet
Validated: 1
EndChar

StartChar: k
Encoding: 107 107 200
Width: 518
GlyphClass: 2
Flags: W
AnchorPoint: "Anchor-2" 280 0 basechar 0
AnchorPoint: "Anchor-0" 260 740 basechar 0
LayerCount: 2
Fore
SplineSet
78 0 m 1,0,-1
 78 738 l 1,1,-1
 157 738 l 1,2,-1
 157 0 l 1,3,-1
 78 0 l 1,0,-1
400 0 m 1,4,-1
 139 265 l 1,5,-1
 390 510 l 1,6,-1
 496 510 l 1,7,-1
 215 243 l 1,8,-1
 219 289 l 1,9,-1
 506 0 l 1,10,-1
 400 0 l 1,4,-1
EndSplineSet
Validated: 5
Substitution2: "'ss04' Style Set 4 in Latin lookup 25 subtable" k.ss04
Substitution2: "'aalt' Access All Alternates in Latin lookup 0 subtable" k.ss04
EndChar

StartChar: l
Encoding: 108 108 202
Width: 235
GlyphClass: 2
Flags: W
AnchorPoint: "Anchor-2" 117 0 basechar 0
AnchorPoint: "Anchor-1" 224 740 basechar 0
AnchorPoint: "Anchor-0" 117 740 basechar 0
LayerCount: 2
Fore
SplineSet
78 0 m 1,0,-1
 78 740 l 5,1,-1
 157 740 l 5,2,-1
 157 0 l 1,3,-1
 78 0 l 1,0,-1
EndSplineSet
EndChar

StartChar: lslash
Encoding: 322 322 206
Width: 252
GlyphClass: 2
Flags: W
AnchorPoint: "Anchor-2" 126 0 basechar 0
AnchorPoint: "Anchor-1" 233 720 basechar 0
AnchorPoint: "Anchor-0" 126 720 basechar 0
LayerCount: 2
Fore
SplineSet
129 346 m 1,0,-1
 0 293 l 1,1,-1
 0 356 l 1,2,-1
 127 408 l 1,3,-1
 129 346 l 1,0,-1
127 412 m 1,4,-1
 252 464 l 1,5,-1
 252 401 l 1,6,-1
 129 350 l 1,7,-1
 127 412 l 1,4,-1
87 0 m 1,8,-1
 87 720 l 1,9,-1
 165 720 l 1,10,-1
 165 0 l 1,11,-1
 87 0 l 1,8,-1
EndSplineSet
Validated: 5
EndChar

StartChar: m
Encoding: 109 109 207
Width: 891
Flags: W
LayerCount: 2
Fore
SplineSet
78 0 m 1,0,-1
 78 510 l 1,1,-1
 152 510 l 1,2,-1
 152 393 l 1,3,-1
 157 393 l 1,4,-1
 157 0 l 1,5,-1
 78 0 l 1,0,-1
409 0 m 1,6,-1
 409 344 l 2,7,8
 409 399 409 399 384.5 425 c 128,-1,9
 360 451 360 451 313 451 c 0,10,11
 268 451 268 451 233 429.5 c 128,-1,12
 198 408 198 408 177.5 370.5 c 128,-1,13
 157 333 157 333 157 283 c 1,14,-1
 144 400 l 1,15,16
 169 456 169 456 219 488 c 128,-1,17
 269 520 269 520 328 520 c 0,18,19
 400 520 400 520 444 477.5 c 128,-1,20
 488 435 488 435 488 363 c 2,21,-1
 488 0 l 1,22,-1
 409 0 l 1,6,-1
741 0 m 1,23,-1
 741 344 l 2,24,25
 741 399 741 399 716 425 c 128,-1,26
 691 451 691 451 644 451 c 0,27,28
 600 451 600 451 564.5 429.5 c 128,-1,29
 529 408 529 408 508.5 370.5 c 128,-1,30
 488 333 488 333 488 283 c 1,31,-1
 468 401 l 1,32,33
 494 456 494 456 545.5 488 c 128,-1,34
 597 520 597 520 657 520 c 0,35,36
 728 520 728 520 773.5 477.5 c 128,-1,37
 819 435 819 435 819 363 c 2,38,-1
 819 0 l 1,39,-1
 741 0 l 1,23,-1
EndSplineSet
Validated: 5
EndChar

StartChar: n
Encoding: 110 110 208
Width: 579
GlyphClass: 2
Flags: W
AnchorPoint: "Anchor-2" 304 0 basechar 0
AnchorPoint: "Anchor-0" 318 510 basechar 0
LayerCount: 2
Fore
SplineSet
78 0 m 1,0,-1
 78 510 l 1,1,-1
 152 510 l 1,2,-1
 152 393 l 1,3,-1
 157 393 l 1,4,-1
 157 0 l 1,5,-1
 78 0 l 1,0,-1
429 0 m 1,6,-1
 429 339 l 2,7,8
 429 395 429 395 401.5 423 c 128,-1,9
 374 451 374 451 319 451 c 0,10,11
 271 451 271 451 234 429.5 c 128,-1,12
 197 408 197 408 177 370.5 c 128,-1,13
 157 333 157 333 157 283 c 1,14,-1
 144 400 l 1,15,16
 169 456 169 456 220.5 488 c 128,-1,17
 272 520 272 520 337 520 c 0,18,19
 414 520 414 520 460.5 476 c 128,-1,20
 507 432 507 432 507 359 c 2,21,-1
 507 0 l 1,22,-1
 429 0 l 1,6,-1
EndSplineSet
Validated: 5
EndChar

StartChar: eng
Encoding: 331 331 213
Width: 579
Flags: W
LayerCount: 2
Fore
SplineSet
368 -215 m 0,0,1
 349 -215 349 -215 337 -213 c 128,-1,2
 325 -211 325 -211 318 -208 c 1,3,-1
 318 -146 l 1,4,5
 324 -148 324 -148 336 -150 c 128,-1,6
 348 -152 348 -152 362 -152 c 0,7,8
 399 -152 399 -152 414 -135.5 c 128,-1,9
 429 -119 429 -119 429 -87 c 2,10,-1
 429 339 l 2,11,12
 429 395 429 395 401.5 423 c 128,-1,13
 374 451 374 451 319 451 c 0,14,15
 271 451 271 451 234 429.5 c 128,-1,16
 197 408 197 408 177 370.5 c 128,-1,17
 157 333 157 333 157 283 c 1,18,-1
 144 400 l 1,19,20
 169 456 169 456 220.5 488 c 128,-1,21
 272 520 272 520 337 520 c 0,22,23
 414 520 414 520 460.5 476 c 128,-1,24
 507 432 507 432 507 359 c 2,25,-1
 507 -91 l 2,26,27
 507 -150 507 -150 474 -182.5 c 128,-1,28
 441 -215 441 -215 368 -215 c 0,0,1
78 0 m 1,29,-1
 78 510 l 1,30,-1
 152 510 l 1,31,-1
 152 393 l 1,32,-1
 157 393 l 1,33,-1
 157 0 l 1,34,-1
 78 0 l 1,29,-1
EndSplineSet
Validated: 5
EndChar

StartChar: o
Encoding: 111 111 214
Width: 565
GlyphClass: 2
Flags: W
AnchorPoint: "Anchor-3" 402 20 basechar 0
AnchorPoint: "Anchor-2" 283 0 basechar 0
AnchorPoint: "Anchor-1" 545 510 basechar 0
AnchorPoint: "Anchor-0" 283 510 basechar 0
LayerCount: 2
Fore
SplineSet
283 -10 m 256,0,1
 210 -10 210 -10 155 25 c 128,-1,2
 100 60 100 60 70 120.5 c 128,-1,3
 40 181 40 181 40 257 c 0,4,5
 40 334 40 334 70.5 393 c 128,-1,6
 101 452 101 452 155.5 486 c 128,-1,7
 210 520 210 520 283 520 c 256,8,9
 356 520 356 520 410.5 486 c 128,-1,10
 465 452 465 452 495.5 393 c 128,-1,11
 526 334 526 334 526 257 c 0,12,13
 526 181 526 181 495.5 120.5 c 128,-1,14
 465 60 465 60 410.5 25 c 128,-1,15
 356 -10 356 -10 283 -10 c 256,0,1
283 57 m 256,16,17
 333 57 333 57 369 82.5 c 128,-1,18
 405 108 405 108 425 153.5 c 128,-1,19
 445 199 445 199 445 258 c 0,20,21
 445 347 445 347 401 400 c 128,-1,22
 357 453 357 453 283 453 c 256,23,24
 209 453 209 453 164.5 400 c 128,-1,25
 120 347 120 347 120 258 c 0,26,27
 120 199 120 199 140 153.5 c 128,-1,28
 160 108 160 108 196.5 82.5 c 128,-1,29
 233 57 233 57 283 57 c 256,16,17
EndSplineSet
Validated: 1
Substitution2: "Single Substitution lookup 17 subtable" ordmasculine
Substitution2: "'aalt' Access All Alternates in Latin lookup 0 subtable" ordmasculine
EndChar

StartChar: oslash
Encoding: 248 248 221
Width: 565
Flags: W
LayerCount: 2
Fore
SplineSet
283 -10 m 256,0,1
 210 -10 210 -10 155 25 c 128,-1,2
 100 60 100 60 70 120.5 c 128,-1,3
 40 181 40 181 40 257 c 0,4,5
 40 334 40 334 70.5 393 c 128,-1,6
 101 452 101 452 155.5 486 c 128,-1,7
 210 520 210 520 283 520 c 256,8,9
 356 520 356 520 410.5 486 c 128,-1,10
 465 452 465 452 495.5 393 c 128,-1,11
 526 334 526 334 526 257 c 0,12,13
 526 181 526 181 495.5 120.5 c 128,-1,14
 465 60 465 60 410.5 25 c 128,-1,15
 356 -10 356 -10 283 -10 c 256,0,1
283 57 m 256,16,17
 333 57 333 57 369 82.5 c 128,-1,18
 405 108 405 108 425 153.5 c 128,-1,19
 445 199 445 199 445 258 c 0,20,21
 445 347 445 347 401 400 c 128,-1,22
 357 453 357 453 283 453 c 256,23,24
 209 453 209 453 164.5 400 c 128,-1,25
 120 347 120 347 120 258 c 0,26,27
 120 199 120 199 140 153.5 c 128,-1,28
 160 108 160 108 196.5 82.5 c 128,-1,29
 233 57 233 57 283 57 c 256,16,17
78 -3 m 1,30,-1
 37 36 l 1,31,-1
 487 513 l 1,32,-1
 528 474 l 1,33,-1
 78 -3 l 1,30,-1
EndSplineSet
Validated: 5
EndChar

StartChar: oe
Encoding: 339 339 223
Width: 909
Flags: W
LayerCount: 2
Fore
SplineSet
273 -10 m 256,0,1
 205 -10 205 -10 152 25 c 128,-1,2
 99 60 99 60 69.5 120.5 c 128,-1,3
 40 181 40 181 40 257 c 0,4,5
 40 334 40 334 70 393 c 128,-1,6
 100 452 100 452 152.5 486 c 128,-1,7
 205 520 205 520 273 520 c 256,8,9
 341 520 341 520 391 486 c 128,-1,10
 441 452 441 452 468.5 393 c 128,-1,11
 496 334 496 334 496 257 c 0,12,13
 496 181 496 181 468.5 120.5 c 128,-1,14
 441 60 441 60 391 25 c 128,-1,15
 341 -10 341 -10 273 -10 c 256,0,1
273 57 m 256,16,17
 318 57 318 57 352 82.5 c 128,-1,18
 386 108 386 108 405.5 153.5 c 128,-1,19
 425 199 425 199 425 258 c 0,20,21
 425 318 425 318 405.5 361.5 c 128,-1,22
 386 405 386 405 352 429 c 128,-1,23
 318 453 318 453 273 453 c 256,24,25
 228 453 228 453 194 429 c 128,-1,26
 160 405 160 405 140 361.5 c 128,-1,27
 120 318 120 318 120 258 c 0,28,29
 120 199 120 199 140 153.5 c 128,-1,30
 160 108 160 108 194 82.5 c 128,-1,31
 228 57 228 57 273 57 c 256,16,17
654 -10 m 0,32,33
 589 -10 589 -10 539.5 24 c 128,-1,34
 490 58 490 58 462.5 118 c 128,-1,35
 435 178 435 178 435 257 c 0,36,37
 435 335 435 335 462.5 394.5 c 128,-1,38
 490 454 490 454 540 487 c 128,-1,39
 590 520 590 520 657 520 c 0,40,41
 720 520 720 520 768.5 489.5 c 128,-1,42
 817 459 817 459 843.5 402.5 c 128,-1,43
 870 346 870 346 870 269 c 0,44,45
 870 259 870 259 869.5 250.5 c 128,-1,46
 869 242 869 242 867 232 c 1,47,-1
 483 232 l 1,48,-1
 483 298 l 1,49,-1
 820 298 l 1,50,-1
 794 261 l 1,51,52
 793 355 793 355 756.5 404 c 128,-1,53
 720 453 720 453 657 453 c 0,54,55
 613 453 613 453 578.5 429 c 128,-1,56
 544 405 544 405 525 361 c 128,-1,57
 506 317 506 317 506 257 c 256,58,59
 506 197 506 197 525 152 c 128,-1,60
 544 107 544 107 578.5 82 c 128,-1,61
 613 57 613 57 658 57 c 0,62,63
 698 57 698 57 732 79.5 c 128,-1,64
 766 102 766 102 782 144 c 1,65,-1
 856 144 l 1,66,67
 833 73 833 73 778.5 31.5 c 128,-1,68
 724 -10 724 -10 654 -10 c 0,32,33
EndSplineSet
Validated: 5
EndChar

StartChar: p
Encoding: 112 112 224
Width: 586
Flags: W
LayerCount: 2
Fore
SplineSet
321 -9 m 0,0,1
 252 -9 252 -9 205 25 c 128,-1,2
 158 59 158 59 141 122 c 1,3,-1
 157 125 l 1,4,-1
 157 -205 l 1,5,-1
 78 -205 l 1,6,-1
 78 510 l 1,7,-1
 152 510 l 1,8,-1
 152 393 l 1,9,-1
 141 397 l 1,10,11
 159 455 159 455 210 487.5 c 128,-1,12
 261 520 261 520 328 520 c 0,13,14
 394 520 394 520 442.5 487.5 c 128,-1,15
 491 455 491 455 518 396 c 128,-1,16
 545 337 545 337 545 258 c 0,17,18
 545 177 545 177 517 117 c 128,-1,19
 489 57 489 57 439 24 c 128,-1,20
 389 -9 389 -9 321 -9 c 0,0,1
309 60 m 0,21,22
 383 60 383 60 423.5 112 c 128,-1,23
 464 164 464 164 464 257 c 0,24,25
 464 348 464 348 423 399.5 c 128,-1,26
 382 451 382 451 309 451 c 256,27,28
 236 451 236 451 194 399 c 128,-1,29
 152 347 152 347 152 254 c 0,30,31
 152 163 152 163 194 111.5 c 128,-1,32
 236 60 236 60 309 60 c 0,21,22
EndSplineSet
Validated: 5
EndChar

StartChar: thorn
Encoding: 254 254 225
Width: 586
Flags: W
LayerCount: 2
Fore
SplineSet
321 -9 m 0,0,1
 252 -9 252 -9 205 25 c 128,-1,2
 158 59 158 59 141 122 c 1,3,-1
 157 125 l 1,4,-1
 157 -205 l 1,5,-1
 78 -205 l 1,6,-1
 78 720 l 1,7,-1
 157 720 l 1,8,-1
 157 393 l 1,9,-1
 141 397 l 1,10,11
 159 455 159 455 210 487.5 c 128,-1,12
 261 520 261 520 328 520 c 0,13,14
 394 520 394 520 442.5 487.5 c 128,-1,15
 491 455 491 455 518 396 c 128,-1,16
 545 337 545 337 545 258 c 0,17,18
 545 177 545 177 517 117 c 128,-1,19
 489 57 489 57 439 24 c 128,-1,20
 389 -9 389 -9 321 -9 c 0,0,1
309 60 m 0,21,22
 383 60 383 60 423.5 112 c 128,-1,23
 464 164 464 164 464 257 c 0,24,25
 464 348 464 348 423 399.5 c 128,-1,26
 382 451 382 451 309 451 c 256,27,28
 236 451 236 451 194 399 c 128,-1,29
 152 347 152 347 152 254 c 0,30,31
 152 163 152 163 194 111.5 c 128,-1,32
 236 60 236 60 309 60 c 0,21,22
EndSplineSet
Validated: 5
EndChar

StartChar: q
Encoding: 113 113 226
Width: 586
Flags: W
LayerCount: 2
Fore
SplineSet
430 -205 m 1,0,-1
 430 117 l 1,1,-1
 444 113 l 1,2,3
 426 56 426 56 377.5 23 c 128,-1,4
 329 -10 329 -10 262 -10 c 256,5,6
 195 -10 195 -10 145.5 22.5 c 128,-1,7
 96 55 96 55 69 114 c 128,-1,8
 42 173 42 173 42 253 c 256,9,10
 42 333 42 333 69.5 393 c 128,-1,11
 97 453 97 453 147.5 486 c 128,-1,12
 198 519 198 519 265 519 c 0,13,14
 335 519 335 519 382 485 c 128,-1,15
 429 451 429 451 445 388 c 1,16,-1
 435 385 l 1,17,-1
 435 510 l 1,18,-1
 508 510 l 1,19,-1
 508 -205 l 1,20,-1
 430 -205 l 1,0,-1
277 59 m 0,21,22
 351 59 351 59 392.5 111 c 128,-1,23
 434 163 434 163 434 256 c 0,24,25
 434 347 434 347 392 398.5 c 128,-1,26
 350 450 350 450 277 450 c 256,27,28
 204 450 204 450 163 398.5 c 128,-1,29
 122 347 122 347 122 253 c 0,30,31
 122 162 122 162 163 110.5 c 128,-1,32
 204 59 204 59 277 59 c 0,21,22
EndSplineSet
Validated: 5
EndChar

StartChar: r
Encoding: 114 114 227
Width: 363
GlyphClass: 2
Flags: W
AnchorPoint: "Anchor-2" 117 0 basechar 0
AnchorPoint: "Anchor-0" 208 510 basechar 0
LayerCount: 2
Fore
SplineSet
78 0 m 1,0,-1
 78 510 l 1,1,-1
 152 510 l 1,2,-1
 152 383 l 1,3,-1
 157 383 l 1,4,-1
 157 0 l 1,5,-1
 78 0 l 1,0,-1
157 274 m 1,6,-1
 143 389 l 1,7,8
 162 453 162 453 206 486.5 c 128,-1,9
 250 520 250 520 307 520 c 0,10,11
 330 520 330 520 339 516 c 1,12,-1
 339 440 l 1,13,14
 335 442 335 442 326.5 442.5 c 128,-1,15
 318 443 318 443 305 443 c 0,16,17
 232 443 232 443 194.5 399 c 128,-1,18
 157 355 157 355 157 274 c 1,6,-1
EndSplineSet
Validated: 5
EndChar

StartChar: s
Encoding: 115 115 231
Width: 455
GlyphClass: 2
Flags: W
AnchorPoint: "Anchor-2" 240 0 basechar 0
AnchorPoint: "Anchor-0" 231 510 basechar 0
LayerCount: 2
Fore
SplineSet
243 -10 m 0,0,1
 152 -10 152 -10 98.5 33.5 c 128,-1,2
 45 77 45 77 38 157 c 1,3,-1
 113 157 l 1,4,5
 119 107 119 107 153 81 c 128,-1,6
 187 55 187 55 244 55 c 0,7,8
 295 55 295 55 323.5 74.5 c 128,-1,9
 352 94 352 94 352 131 c 0,10,11
 352 157 352 157 335.5 177 c 128,-1,12
 319 197 319 197 270 211 c 2,13,-1
 191 235 l 2,14,15
 125 254 125 254 92 291 c 128,-1,16
 59 328 59 328 59 379 c 0,17,18
 59 444 59 444 106 482 c 128,-1,19
 153 520 153 520 234 520 c 0,20,21
 314 520 314 520 363.5 480.5 c 128,-1,22
 413 441 413 441 419 369 c 1,23,-1
 344 369 l 1,24,25
 338 411 338 411 309 433 c 128,-1,26
 280 455 280 455 231 455 c 0,27,28
 185 455 185 455 159 436.5 c 128,-1,29
 133 418 133 418 133 385 c 0,30,31
 133 359 133 359 151.5 339.5 c 128,-1,32
 170 320 170 320 215 306 c 2,33,-1
 292 281 l 2,34,35
 358 262 358 262 392.5 223 c 128,-1,36
 427 184 427 184 427 130 c 0,37,38
 427 64 427 64 378 27 c 128,-1,39
 329 -10 329 -10 243 -10 c 0,0,1
EndSplineSet
Validated: 1
EndChar

StartChar: germandbls
Encoding: 223 223 236
Width: 592
Flags: W
LayerCount: 2
Fore
SplineSet
307 -9 m 0,0,1
 285 -9 285 -9 267.5 -6.5 c 128,-1,2
 250 -4 250 -4 239 0 c 1,3,-1
 239 66 l 1,4,5
 253 62 253 62 268.5 60 c 128,-1,6
 284 58 284 58 302 58 c 0,7,8
 396 58 396 58 434.5 95.5 c 128,-1,9
 473 133 473 133 473 196 c 0,10,11
 473 262 473 262 430 303 c 128,-1,12
 387 344 387 344 316 344 c 2,13,-1
 259 344 l 1,14,-1
 259 413 l 1,15,-1
 314 413 l 2,16,17
 348 413 348 413 375.5 427.5 c 128,-1,18
 403 442 403 442 420 470 c 128,-1,19
 437 498 437 498 437 536 c 0,20,21
 437 596 437 596 400.5 631.5 c 128,-1,22
 364 667 364 667 301 667 c 0,23,24
 239 667 239 667 198 626.5 c 128,-1,25
 157 586 157 586 157 504 c 2,26,-1
 157 0 l 1,27,-1
 78 0 l 1,28,-1
 78 508 l 2,29,30
 78 613 78 613 138.5 671.5 c 128,-1,31
 199 730 199 730 300 730 c 0,32,33
 365 730 365 730 413.5 707 c 128,-1,34
 462 684 462 684 489.5 642 c 128,-1,35
 517 600 517 600 517 543 c 0,36,37
 517 492 517 492 493.5 453 c 128,-1,38
 470 414 470 414 430 392 c 128,-1,39
 390 370 390 370 340 370 c 1,40,-1
 333 391 l 1,41,42
 400 391 400 391 449.5 366 c 128,-1,43
 499 341 499 341 526.5 296.5 c 128,-1,44
 554 252 554 252 554 194 c 0,45,46
 554 133 554 133 524.5 87.5 c 128,-1,47
 495 42 495 42 439.5 16.5 c 128,-1,48
 384 -9 384 -9 307 -9 c 0,0,1
EndSplineSet
Validated: 5
EndChar

StartChar: t
Encoding: 116 116 237
Width: 364
GlyphClass: 2
Flags: W
AnchorPoint: "Anchor-2" 237 0 basechar 0
AnchorPoint: "Anchor-1" 294 778 basechar 0
AnchorPoint: "Anchor-0" 177 510 basechar 0
LayerCount: 2
Fore
SplineSet
274 -9 m 0,0,1
 192 -9 192 -9 154.5 28 c 128,-1,2
 117 65 117 65 117 136 c 2,3,-1
 117 625 l 1,4,-1
 195 655 l 1,5,-1
 195 137 l 2,6,7
 195 96 195 96 216.5 77 c 128,-1,8
 238 58 238 58 286 58 c 0,9,10
 305 58 305 58 319 60 c 128,-1,11
 333 62 333 62 341 66 c 1,12,-1
 341 0 l 1,13,14
 331 -4 331 -4 313.5 -6.5 c 128,-1,15
 296 -9 296 -9 274 -9 c 0,0,1
16 443 m 1,16,-1
 16 510 l 1,17,-1
 341 510 l 1,18,-1
 341 443 l 1,19,-1
 16 443 l 1,16,-1
EndSplineSet
Validated: 5
EndChar

StartChar: u
Encoding: 117 117 240
Width: 570
GlyphClass: 2
Flags: W
AnchorPoint: "Anchor-3" 492 0 basechar 0
AnchorPoint: "Anchor-2" 285 0 basechar 0
AnchorPoint: "Anchor-1" 550 510 basechar 0
AnchorPoint: "Anchor-0" 285 510 basechar 0
LayerCount: 2
Fore
SplineSet
238 -10 m 0,0,1
 189 -10 189 -10 151.5 10 c 128,-1,2
 114 30 114 30 93 66.5 c 128,-1,3
 72 103 72 103 72 151 c 2,4,-1
 72 510 l 1,5,-1
 151 510 l 1,6,-1
 151 170 l 2,7,8
 151 115 151 115 178 87 c 128,-1,9
 205 59 205 59 256 59 c 0,10,11
 301 59 301 59 336.5 80.5 c 128,-1,12
 372 102 372 102 392.5 140 c 128,-1,13
 413 178 413 178 413 227 c 1,14,-1
 426 110 l 1,15,16
 401 54 401 54 350.5 22 c 128,-1,17
 300 -10 300 -10 238 -10 c 0,0,1
419 0 m 1,18,-1
 419 117 l 1,19,-1
 413 117 l 1,20,-1
 413 510 l 1,21,-1
 492 510 l 1,22,-1
 492 0 l 1,23,-1
 419 0 l 1,18,-1
EndSplineSet
Validated: 5
EndChar

StartChar: v
Encoding: 118 118 250
Width: 506
Flags: W
LayerCount: 2
Fore
SplineSet
222 0 m 1,0,-1
 18 510 l 1,1,-1
 102 510 l 1,2,-1
 271 57 l 1,3,-1
 240 57 l 1,4,-1
 408 510 l 1,5,-1
 488 510 l 1,6,-1
 284 0 l 1,7,-1
 222 0 l 1,0,-1
EndSplineSet
Validated: 5
EndChar

StartChar: w
Encoding: 119 119 251
Width: 747
GlyphClass: 2
Flags: W
AnchorPoint: "Anchor-2" 374 0 basechar 0
AnchorPoint: "Anchor-0" 374 510 basechar 0
LayerCount: 2
Fore
SplineSet
181 0 m 1,0,-1
 28 510 l 1,1,-1
 108 510 l 1,2,-1
 224 76 l 1,3,-1
 205 76 l 1,4,-1
 344 510 l 1,5,-1
 406 510 l 1,6,-1
 547 76 l 1,7,-1
 528 76 l 1,8,-1
 643 510 l 1,9,-1
 719 510 l 1,10,-1
 566 0 l 1,11,-1
 504 0 l 1,12,-1
 364 425 l 1,13,-1
 385 425 l 1,14,-1
 243 0 l 1,15,-1
 181 0 l 1,0,-1
EndSplineSet
Validated: 5
EndChar

StartChar: x
Encoding: 120 120 256
Width: 530
Flags: W
LayerCount: 2
Fore
SplineSet
409 0 m 1,0,-1
 247 237 l 1,1,-1
 52 510 l 1,2,-1
 143 510 l 1,3,-1
 293 291 l 1,4,-1
 499 0 l 1,5,-1
 409 0 l 1,0,-1
252 287 m 1,6,-1
 406 510 l 1,7,-1
 493 510 l 1,8,-1
 293 233 l 1,9,-1
 252 287 l 1,6,-1
285 232 m 1,10,-1
 119 0 l 1,11,-1
 31 0 l 1,12,-1
 246 289 l 1,13,-1
 285 232 l 1,10,-1
EndSplineSet
Validated: 5
EndChar

StartChar: y
Encoding: 65573 -1 257
Width: 506
GlyphClass: 2
Flags: W
AnchorPoint: "Anchor-2" 254 0 basechar 0
AnchorPoint: "Anchor-0" 254 510 basechar 0
LayerCount: 2
Fore
SplineSet
120 -205 m 1,0,-1
 230 61 l 1,1,-1
 247 88 l 1,2,-1
 408 510 l 1,3,-1
 488 510 l 1,4,-1
 203 -205 l 1,5,-1
 120 -205 l 1,0,-1
238 -4 m 1,6,-1
 18 510 l 1,7,-1
 104 510 l 1,8,-1
 292 53 l 1,9,-1
 238 -4 l 1,6,-1
EndSplineSet
Validated: 5
Substitution2: "'calt' Contextual Alternates in Latin lookup 24 subtable" y.ss03
Substitution2: "'aalt' Access All Alternates in Latin lookup 0 subtable" y.ss03
EndChar

StartChar: z
Encoding: 122 122 262
Width: 477
GlyphClass: 2
Flags: W
AnchorPoint: "Anchor-2" 239 0 basechar 0
AnchorPoint: "Anchor-0" 239 510 basechar 0
LayerCount: 2
Fore
SplineSet
51 0 m 1,0,-1
 51 57 l 1,1,-1
 350 479 l 1,2,-1
 378 443 l 1,3,-1
 61 443 l 1,4,-1
 61 510 l 1,5,-1
 424 510 l 1,6,-1
 424 453 l 1,7,-1
 125 31 l 1,8,-1
 97 67 l 1,9,-1
 434 67 l 1,10,-1
 434 0 l 1,11,-1
 51 0 l 1,0,-1
EndSplineSet
Validated: 5
EndChar

StartChar: a.ss02
Encoding: 65601 -1 289
Width: 586
GlyphClass: 2
Flags: W
AnchorPoint: "Anchor-3" 508 0 basechar 0
AnchorPoint: "Anchor-2" 293 0 basechar 0
AnchorPoint: "Anchor-0" 293 510 basechar 0
LayerCount: 2
Fore
SplineSet
262 -10 m 256,0,1
 195 -10 195 -10 145.5 23 c 128,-1,2
 96 56 96 56 69 114.5 c 128,-1,3
 42 173 42 173 42 253 c 256,4,5
 42 333 42 333 69.5 393 c 128,-1,6
 97 453 97 453 147.5 486 c 128,-1,7
 198 519 198 519 265 519 c 0,8,9
 334 519 334 519 381.5 485 c 128,-1,10
 429 451 429 451 445 388 c 1,11,-1
 435 385 l 1,12,-1
 435 510 l 1,13,-1
 508 510 l 1,14,-1
 508 0 l 1,15,-1
 435 0 l 1,16,-1
 435 117 l 1,17,-1
 444 113 l 1,18,19
 426 56 426 56 377.5 23 c 128,-1,20
 329 -10 329 -10 262 -10 c 256,0,1
277 59 m 0,21,22
 351 59 351 59 392.5 111 c 128,-1,23
 434 163 434 163 434 256 c 0,24,25
 434 347 434 347 392 398.5 c 128,-1,26
 350 450 350 450 277 450 c 256,27,28
 204 450 204 450 163 398.5 c 128,-1,29
 122 347 122 347 122 253 c 0,30,31
 122 162 122 162 163 110.5 c 128,-1,32
 204 59 204 59 277 59 c 0,21,22
EndSplineSet
Validated: 5
EndChar

StartChar: y.ss03
Encoding: 121 121 300
Width: 506
GlyphClass: 2
Flags: W
AnchorPoint: "Anchor-2" 254 0 basechar 0
AnchorPoint: "Anchor-0" 256 510 basechar 0
LayerCount: 2
Fore
SplineSet
115 -215 m 0,0,1
 99 -215 99 -215 85.5 -212.5 c 128,-1,2
 72 -210 72 -210 65 -207 c 1,3,-1
 65 -145 l 1,4,5
 72 -148 72 -148 84.5 -150 c 128,-1,6
 97 -152 97 -152 111 -152 c 0,7,8
 146 -152 146 -152 167 -133 c 128,-1,9
 188 -114 188 -114 205 -68 c 2,10,-1
 244 44 l 1,11,-1
 255 77 l 1,12,-1
 408 510 l 1,13,-1
 488 510 l 1,14,-1
 265 -93 l 2,15,16
 249 -135 249 -135 228 -162.5 c 128,-1,17
 207 -190 207 -190 179.5 -202.5 c 128,-1,18
 152 -215 152 -215 115 -215 c 0,0,1
238 -4 m 1,19,-1
 18 510 l 1,20,-1
 101 510 l 1,21,-1
 289 53 l 1,22,-1
 238 -4 l 1,19,-1
EndSplineSet
Validated: 5
EndChar

StartChar: k.ss04
Encoding: 65612 -1 305
Width: 518
GlyphClass: 2
Flags: W
AnchorPoint: "Anchor-2" 280 0 basechar 0
AnchorPoint: "Anchor-0" 260 740 basechar 0
LayerCount: 2
Fore
SplineSet
78 0 m 1,0,-1
 78 720 l 1,1,-1
 157 720 l 1,2,-1
 157 0 l 1,3,-1
 78 0 l 1,0,-1
146 235 m 1,4,-1
 396 510 l 1,5,-1
 493 510 l 1,6,-1
 281 277 l 1,7,-1
 273 276 l 1,8,-1
 141 135 l 1,9,-1
 146 235 l 1,4,-1
300 304 m 1,10,-1
 506 0 l 1,11,-1
 415 0 l 1,12,-1
 229 280 l 1,13,-1
 300 304 l 1,10,-1
EndSplineSet
Validated: 5
EndChar

StartChar: f_f_i
Encoding: 65617 -1 310
Width: 896
GlyphClass: 3
LigCaretCntFixed: 1
Flags: W
LayerCount: 2
Fore
SplineSet
117 0 m 1,0,-1
 117 587 l 2,1,2
 117 654 117 654 156 692 c 128,-1,3
 195 730 195 730 275 730 c 0,4,5
 295 730 295 730 306 728 c 128,-1,6
 317 726 317 726 325 723 c 1,7,-1
 325 661 l 1,8,9
 318 663 318 663 306 665 c 128,-1,10
 294 667 294 667 281 667 c 0,11,12
 237 667 237 667 216 645 c 128,-1,13
 195 623 195 623 195 582 c 2,14,-1
 195 0 l 1,15,-1
 117 0 l 1,0,-1
428 0 m 1,16,-1
 428 587 l 2,17,18
 428 654 428 654 467.5 692 c 128,-1,19
 507 730 507 730 586 730 c 0,20,21
 606 730 606 730 617.5 728 c 128,-1,22
 629 726 629 726 637 723 c 1,23,-1
 637 661 l 1,24,25
 630 663 630 663 618 665 c 128,-1,26
 606 667 606 667 592 667 c 0,27,28
 548 667 548 667 527.5 645 c 128,-1,29
 507 623 507 623 507 582 c 2,30,-1
 507 0 l 1,31,-1
 428 0 l 1,16,-1
740 0 m 1,32,-1
 740 510 l 1,33,-1
 818 510 l 1,34,-1
 818 0 l 1,35,-1
 740 0 l 1,32,-1
16 443 m 1,36,-1
 16 510 l 1,37,-1
 783 510 l 1,38,-1
 783 443 l 1,39,-1
 16 443 l 1,36,-1
734 627 m 1,40,-1
 734 720 l 1,41,-1
 825 720 l 1,42,-1
 825 627 l 1,43,-1
 734 627 l 1,40,-1
EndSplineSet
Validated: 5
Substitution2: "'ss01' Style Set 1 in Latin lookup 22 subtable" f_f_i.ss01
Ligature2: "'liga' Standard Ligatures in Latin lookup 21 subtable" f f i
Substitution2: "'aalt' Access All Alternates in Latin lookup 0 subtable" f_f_i.ss01
LCarets2: 2 299 597
EndChar

StartChar: f_f_l
Encoding: 65618 -1 311
Width: 896
GlyphClass: 3
LigCaretCntFixed: 1
Flags: W
LayerCount: 2
Fore
SplineSet
428 0 m 1,0,-1
 428 577 l 2,1,2
 428 645 428 645 468 682.5 c 128,-1,3
 508 720 508 720 591 720 c 2,4,-1
 772 720 l 1,5,-1
 772 657 l 1,6,-1
 592 657 l 2,7,8
 548 657 548 657 527.5 635 c 128,-1,9
 507 613 507 613 507 572 c 2,10,-1
 507 0 l 1,11,-1
 428 0 l 1,0,-1
117 0 m 1,12,-1
 117 577 l 2,13,14
 117 645 117 645 156 682.5 c 128,-1,15
 195 720 195 720 275 720 c 0,16,17
 295 720 295 720 306 718 c 128,-1,18
 317 716 317 716 325 713 c 1,19,-1
 325 651 l 1,20,21
 318 653 318 653 306 655 c 128,-1,22
 294 657 294 657 281 657 c 0,23,24
 237 657 237 657 216 635 c 128,-1,25
 195 613 195 613 195 572 c 2,26,-1
 195 0 l 1,27,-1
 117 0 l 1,12,-1
16 443 m 1,28,-1
 16 510 l 1,29,-1
 619 510 l 1,30,-1
 619 443 l 1,31,-1
 16 443 l 1,28,-1
740 0 m 1,32,-1
 740 720 l 1,33,-1
 818 720 l 1,34,-1
 818 0 l 1,35,-1
 740 0 l 1,32,-1
EndSplineSet
Validated: 5
Ligature2: "'liga' Standard Ligatures in Latin lookup 21 subtable" f f l
LCarets2: 2 299 597
EndChar

StartChar: f_i
Encoding: 65619 -1 312
Width: 576
GlyphClass: 3
LigCaretCntFixed: 1
Flags: W
AnchorPoint: "Anchor-5" 144 0 baselig 0
AnchorPoint: "Anchor-4" 144 740 baselig 0
AnchorPoint: "Anchor-5" 432 0 baselig 1
AnchorPoint: "Anchor-4" 432 740 baselig 1
LayerCount: 2
Fore
SplineSet
117 0 m 1,0,-1
 117 587 l 2,1,2
 117 654 117 654 156 692 c 128,-1,3
 195 730 195 730 275 730 c 0,4,5
 295 730 295 730 306 728 c 128,-1,6
 317 726 317 726 325 723 c 1,7,-1
 325 661 l 1,8,9
 318 663 318 663 306 665 c 128,-1,10
 294 667 294 667 281 667 c 0,11,12
 237 667 237 667 216 645 c 128,-1,13
 195 623 195 623 195 582 c 2,14,-1
 195 0 l 1,15,-1
 117 0 l 1,0,-1
428 0 m 1,16,-1
 428 510 l 1,17,-1
 507 510 l 1,18,-1
 507 0 l 1,19,-1
 428 0 l 1,16,-1
16 443 m 1,20,-1
 16 510 l 1,21,-1
 471 510 l 1,22,-1
 471 443 l 1,23,-1
 16 443 l 1,20,-1
422 627 m 1,24,-1
 422 720 l 1,25,-1
 513 720 l 1,26,-1
 513 627 l 1,27,-1
 422 627 l 1,24,-1
EndSplineSet
Validated: 5
Substitution2: "'ss01' Style Set 1 in Latin lookup 22 subtable" f_i.ss01
Ligature2: "'liga' Standard Ligatures in Latin lookup 21 subtable" f i
Substitution2: "'aalt' Access All Alternates in Latin lookup 0 subtable" f_i.ss01
LCarets2: 1 289
EndChar

StartChar: f_l
Encoding: 65620 -1 313
Width: 585
GlyphClass: 3
LigCaretCntFixed: 1
Flags: W
AnchorPoint: "Anchor-5" 146 0 baselig 0
AnchorPoint: "Anchor-4" 146 740 baselig 0
AnchorPoint: "Anchor-5" 439 0 baselig 1
AnchorPoint: "Anchor-4" 439 740 baselig 1
LayerCount: 2
Fore
SplineSet
117 0 m 1,0,-1
 117 577 l 2,1,2
 117 645 117 645 156.5 682.5 c 128,-1,3
 196 720 196 720 279 720 c 2,4,-1
 460 720 l 1,5,-1
 460 657 l 1,6,-1
 281 657 l 2,7,8
 237 657 237 657 216 635 c 128,-1,9
 195 613 195 613 195 572 c 2,10,-1
 195 0 l 1,11,-1
 117 0 l 1,0,-1
16 443 m 1,12,-1
 16 510 l 1,13,-1
 308 510 l 1,14,-1
 308 443 l 1,15,-1
 16 443 l 1,12,-1
428 0 m 1,16,-1
 428 720 l 1,17,-1
 507 720 l 1,18,-1
 507 0 l 1,19,-1
 428 0 l 1,16,-1
EndSplineSet
Validated: 5
Ligature2: "'liga' Standard Ligatures in Latin lookup 21 subtable" f l
LCarets2: 1 292
EndChar

StartChar: w_w_w.liga
Encoding: 65621 -1 314
Width: 2038
GlyphClass: 3
LigCaretCntFixed: 1
Flags: W
AnchorPoint: "Anchor-5" 340 0 baselig 0
AnchorPoint: "Anchor-4" 340 510 baselig 0
AnchorPoint: "Anchor-5" 1019 0 baselig 1
AnchorPoint: "Anchor-4" 1019 510 baselig 1
AnchorPoint: "Anchor-5" 1699 0 baselig 2
AnchorPoint: "Anchor-4" 1699 510 baselig 2
LayerCount: 2
Fore
SplineSet
181 0 m 1,0,-1
 28 510 l 1,1,-1
 108 510 l 1,2,-1
 224 76 l 1,3,-1
 205 76 l 1,4,-1
 344 510 l 1,5,-1
 406 510 l 1,6,-1
 547 76 l 1,7,-1
 528 76 l 1,8,-1
 667 510 l 1,9,-1
 729 510 l 1,10,-1
 869 76 l 1,11,-1
 850 76 l 1,12,-1
 990 510 l 1,13,-1
 1052 510 l 1,14,-1
 1192 76 l 1,15,-1
 1173 76 l 1,16,-1
 1313 510 l 1,17,-1
 1375 510 l 1,18,-1
 1516 76 l 1,19,-1
 1496 76 l 1,20,-1
 1636 510 l 1,21,-1
 1698 510 l 1,22,-1
 1839 76 l 1,23,-1
 1819 76 l 1,24,-1
 1935 510 l 1,25,-1
 2010 510 l 1,26,-1
 1858 0 l 1,27,-1
 1795 0 l 1,28,-1
 1656 425 l 1,29,-1
 1676 425 l 1,30,-1
 1535 0 l 1,31,-1
 1472 0 l 1,32,-1
 1333 425 l 1,33,-1
 1353 425 l 1,34,-1
 1212 0 l 1,35,-1
 1149 0 l 1,36,-1
 1010 425 l 1,37,-1
 1030 425 l 1,38,-1
 889 0 l 1,39,-1
 826 0 l 1,40,-1
 686 425 l 1,41,-1
 708 425 l 1,42,-1
 566 0 l 1,43,-1
 504 0 l 1,44,-1
 364 425 l 1,45,-1
 385 425 l 1,46,-1
 243 0 l 1,47,-1
 181 0 l 1,0,-1
EndSplineSet
Validated: 5
Ligature2: "'liga' Standard Ligatures in Latin lookup 21 subtable" w w w
LCarets2: 2 680 1359
EndChar

StartChar: f_f_i.ss01
Encoding: 65622 -1 315
Width: 897
GlyphClass: 3
LigCaretCntFixed: 1
Flags: W
AnchorPoint: "Anchor-5" 150 0 baselig 0
AnchorPoint: "Anchor-4" 150 740 baselig 0
AnchorPoint: "Anchor-5" 449 0 baselig 1
AnchorPoint: "Anchor-4" 449 740 baselig 1
AnchorPoint: "Anchor-5" 748 0 baselig 2
AnchorPoint: "Anchor-4" 748 740 baselig 2
LayerCount: 2
Fore
SplineSet
428 0 m 1,0,-1
 428 587 l 2,1,2
 428 654 428 654 467.5 692 c 128,-1,3
 507 730 507 730 586 730 c 0,4,5
 606 730 606 730 617.5 728 c 128,-1,6
 629 726 629 726 637 723 c 1,7,-1
 637 661 l 1,8,9
 630 663 630 663 618 665 c 128,-1,10
 606 667 606 667 592 667 c 0,11,12
 548 667 548 667 527.5 645 c 128,-1,13
 507 623 507 623 507 582 c 2,14,-1
 507 0 l 1,15,-1
 428 0 l 1,0,-1
117 0 m 1,16,-1
 117 587 l 2,17,18
 117 654 117 654 156 692 c 128,-1,19
 195 730 195 730 275 730 c 0,20,21
 295 730 295 730 306 728 c 128,-1,22
 317 726 317 726 325 723 c 1,23,-1
 325 661 l 1,24,25
 318 663 318 663 306 665 c 128,-1,26
 294 667 294 667 281 667 c 0,27,28
 237 667 237 667 216 645 c 128,-1,29
 195 623 195 623 195 582 c 2,30,-1
 195 0 l 1,31,-1
 117 0 l 1,16,-1
16 443 m 1,32,-1
 16 510 l 1,33,-1
 783 510 l 1,34,-1
 783 443 l 1,35,-1
 16 443 l 1,32,-1
740 0 m 1,36,-1
 740 510 l 1,37,-1
 818 510 l 1,38,-1
 818 0 l 1,39,-1
 740 0 l 1,36,-1
780 607 m 256,40,41
 757 607 757 607 741 623 c 128,-1,42
 725 639 725 639 725 663 c 0,43,44
 725 688 725 688 741 703 c 128,-1,45
 757 718 757 718 780 718 c 256,46,47
 803 718 803 718 818.5 703 c 128,-1,48
 834 688 834 688 834 663 c 0,49,50
 834 639 834 639 818.5 623 c 128,-1,51
 803 607 803 607 780 607 c 256,40,41
EndSplineSet
Validated: 5
LCarets2: 2 299 598
EndChar

StartChar: f_i.ss01
Encoding: 65623 -1 316
Width: 594
GlyphClass: 3
LigCaretCntFixed: 1
Flags: W
AnchorPoint: "Anchor-5" 149 0 baselig 0
AnchorPoint: "Anchor-4" 149 740 baselig 0
AnchorPoint: "Anchor-5" 446 0 baselig 1
AnchorPoint: "Anchor-4" 446 740 baselig 1
LayerCount: 2
Fore
SplineSet
117 0 m 1,0,-1
 117 587 l 2,1,2
 117 654 117 654 156 692 c 128,-1,3
 195 730 195 730 275 730 c 0,4,5
 295 730 295 730 306 728 c 128,-1,6
 317 726 317 726 325 723 c 1,7,-1
 325 661 l 1,8,9
 318 663 318 663 306 665 c 128,-1,10
 294 667 294 667 281 667 c 0,11,12
 237 667 237 667 216 645 c 128,-1,13
 195 623 195 623 195 582 c 2,14,-1
 195 0 l 1,15,-1
 117 0 l 1,0,-1
428 0 m 1,16,-1
 428 510 l 1,17,-1
 507 510 l 1,18,-1
 507 0 l 1,19,-1
 428 0 l 1,16,-1
468 607 m 0,20,21
 446 607 446 607 429.5 623 c 128,-1,22
 413 639 413 639 413 663 c 0,23,24
 413 688 413 688 429.5 703 c 128,-1,25
 446 718 446 718 468 718 c 0,26,27
 491 718 491 718 507 703 c 128,-1,28
 523 688 523 688 523 663 c 0,29,30
 523 639 523 639 507 623 c 128,-1,31
 491 607 491 607 468 607 c 0,20,21
16 443 m 1,32,-1
 16 510 l 1,33,-1
 471 510 l 1,34,-1
 471 443 l 1,35,-1
 16 443 l 1,32,-1
EndSplineSet
Validated: 5
LCarets2: 1 297
EndChar

StartChar: ordfeminine
Encoding: 170 170 317
Width: 360
Flags: W
LayerCount: 2
Fore
SplineSet
239 418 m 1,0,1
 236 429 236 429 235 443.5 c 128,-1,2
 234 458 234 458 234 476 c 1,3,-1
 231 476 l 1,4,-1
 231 624 l 2,5,6
 231 652 231 652 217.5 666 c 128,-1,7
 204 680 204 680 176 680 c 0,8,9
 149 680 149 680 132 667.5 c 128,-1,10
 115 655 115 655 113 635 c 1,11,-1
 54 635 l 1,12,13
 58 679 58 679 91 704.5 c 128,-1,14
 124 730 124 730 178 730 c 0,15,16
 234 730 234 730 263 702.5 c 128,-1,17
 292 675 292 675 292 623 c 2,18,-1
 292 476 l 2,19,20
 292 460 292 460 293.5 446 c 128,-1,21
 295 432 295 432 298 418 c 1,22,-1
 239 418 l 1,0,1
139 412 m 0,23,24
 96 412 96 412 70.5 435 c 128,-1,25
 45 458 45 458 45 497 c 0,26,27
 45 535 45 535 70.5 559.5 c 128,-1,28
 96 584 96 584 149 594 c 2,29,-1
 243 613 l 1,30,-1
 243 567 l 1,31,-1
 160 551 l 2,32,33
 135 546 135 546 120.5 535.5 c 128,-1,34
 106 525 106 525 106 503 c 0,35,36
 106 483 106 483 119 472.5 c 128,-1,37
 132 462 132 462 156 462 c 0,38,39
 188 462 188 462 209.5 479.5 c 128,-1,40
 231 497 231 497 231 522 c 1,41,-1
 238 477 l 1,42,43
 227 443 227 443 200 427.5 c 128,-1,44
 173 412 173 412 139 412 c 0,23,24
EndSplineSet
Validated: 5
EndChar

StartChar: ordmasculine
Encoding: 186 186 318
Width: 401
Flags: W
LayerCount: 2
Fore
SplineSet
200 412 m 0,0,1
 155 412 155 412 120.5 433 c 128,-1,2
 86 454 86 454 67.5 490 c 128,-1,3
 49 526 49 526 49 572 c 0,4,5
 49 642 49 642 90.5 686 c 128,-1,6
 132 730 132 730 200 730 c 0,7,8
 269 730 269 730 310.5 686 c 128,-1,9
 352 642 352 642 352 572 c 0,10,11
 352 503 352 503 310.5 457.5 c 128,-1,12
 269 412 269 412 200 412 c 0,0,1
200 464 m 0,13,14
 241 464 241 464 265 494 c 128,-1,15
 289 524 289 524 289 573 c 0,16,17
 289 621 289 621 265 649.5 c 128,-1,18
 241 678 241 678 200 678 c 0,19,20
 161 678 161 678 136.5 649.5 c 128,-1,21
 112 621 112 621 112 573 c 0,22,23
 112 524 112 524 136.5 494 c 128,-1,24
 161 464 161 464 200 464 c 0,13,14
EndSplineSet
Validated: 1
EndChar

StartChar: zero
Encoding: 48 48 319
Width: 640
Flags: W
LayerCount: 2
Fore
SplineSet
320 -10 m 0,0,1
 239 -10 239 -10 178 36.5 c 128,-1,2
 117 83 117 83 83 167.5 c 128,-1,3
 49 252 49 252 49 363 c 256,4,5
 49 474 49 474 82.5 556.5 c 128,-1,6
 116 639 116 639 177.5 684.5 c 128,-1,7
 239 730 239 730 320 730 c 0,8,9
 402 730 402 730 462.5 684.5 c 128,-1,10
 523 639 523 639 557.5 556.5 c 128,-1,11
 592 474 592 474 592 363 c 0,12,13
 592 251 592 251 557.5 167 c 128,-1,14
 523 83 523 83 462.5 36.5 c 128,-1,15
 402 -10 402 -10 320 -10 c 0,0,1
320 61 m 256,16,17
 378 61 378 61 419 97 c 128,-1,18
 460 133 460 133 482 200.5 c 128,-1,19
 504 268 504 268 504 364 c 0,20,21
 504 459 504 459 482.5 525 c 128,-1,22
 461 591 461 591 420 625 c 128,-1,23
 379 659 379 659 320 659 c 4,24,25
 262 659 262 659 221 625 c 128,-1,26
 180 591 180 591 158.5 525 c 128,-1,27
 137 459 137 459 137 364 c 0,28,29
 137 268 137 268 159 200 c 128,-1,30
 181 132 181 132 221.5 96.5 c 128,-1,31
 262 61 262 61 320 61 c 256,16,17
EndSplineSet
Validated: 1
Substitution2: "'tnum' Tabular Numbers in Latin lookup 19 subtable" zero.tf
Substitution2: "'aalt' Access All Alternates in Latin lookup 0 subtable" zero.tf
EndChar

StartChar: one
Encoding: 49 49 320
Width: 379
Flags: W
LayerCount: 2
Fore
SplineSet
217 0 m 1,0,-1
 217 639 l 1,1,-1
 237 633 l 1,2,3
 28 497 l 5,4,-1
 28 585 l 1,5,-1
 237 720 l 1,6,-1
 295 720 l 1,7,-1
 295 0 l 1,8,-1
 217 0 l 1,0,-1
EndSplineSet
Validated: 5
Substitution2: "'tnum' Tabular Numbers in Latin lookup 19 subtable" one.tf
Substitution2: "'aalt' Access All Alternates in Latin lookup 0 subtable" one.tf
EndChar

StartChar: two
Encoding: 50 50 321
Width: 527
Flags: W
LayerCount: 2
Fore
SplineSet
41 0 m 1,0,-1
 41 69 l 1,1,2
 144 158 144 158 213 225.5 c 128,-1,3
 282 293 282 293 324 346.5 c 128,-1,4
 366 400 366 400 384 444 c 128,-1,5
 402 488 402 488 402 530 c 0,6,7
 402 591 402 591 367 625 c 128,-1,8
 332 659 332 659 269 659 c 0,9,10
 204 659 204 659 165 621 c 128,-1,11
 126 583 126 583 118 512 c 1,12,-1
 34 512 l 1,13,14
 43 610 43 610 106.5 670 c 128,-1,15
 170 730 170 730 275 730 c 0,16,17
 372 730 372 730 430 677 c 128,-1,18
 488 624 488 624 488 531 c 0,19,20
 488 480 488 480 468.5 428.5 c 128,-1,21
 449 377 449 377 406 320.5 c 128,-1,22
 363 264 363 264 293.5 196 c 128,-1,23
 224 128 224 128 124 43 c 1,24,-1
 105 71 l 1,25,-1
 499 71 l 1,26,-1
 499 0 l 1,27,-1
 41 0 l 1,0,-1
EndSplineSet
Validated: 5
Substitution2: "'ss10' Style Set 10 in Latin lookup 31 subtable" two.ss10
Substitution2: "'tnum' Tabular Numbers in Latin lookup 19 subtable" two.tf
AlternateSubs2: "'aalt' Access All Alternates in Latin lookup 1 subtable" two.ss10 two.tf
EndChar

StartChar: three
Encoding: 51 51 322
Width: 554
Flags: W
LayerCount: 2
Fore
SplineSet
285 -10 m 0,0,1
 215 -10 215 -10 162.5 16.5 c 128,-1,2
 110 43 110 43 78 94 c 128,-1,3
 46 145 46 145 39 217 c 1,4,-1
 123 217 l 1,5,6
 132 141 132 141 174 101 c 128,-1,7
 216 61 216 61 286 61 c 0,8,9
 351 61 351 61 388.5 97 c 128,-1,10
 426 133 426 133 426 196 c 0,11,12
 426 261 426 261 389 302 c 128,-1,13
 352 343 352 343 290 343 c 2,14,-1
 204 343 l 1,15,-1
 204 411 l 1,16,-1
 287 411 l 2,17,18
 344 411 344 411 377.5 445 c 128,-1,19
 411 479 411 479 411 536 c 0,20,21
 411 595 411 595 376 627 c 128,-1,22
 341 659 341 659 282 659 c 256,23,24
 223 659 223 659 181.5 623.5 c 128,-1,25
 140 588 140 588 133 521 c 1,26,-1
 49 521 l 1,27,28
 54 585 54 585 84.5 631.5 c 128,-1,29
 115 678 115 678 167 704 c 128,-1,30
 219 730 219 730 284 730 c 0,31,32
 347 730 347 730 395 707 c 128,-1,33
 443 684 443 684 470 642 c 128,-1,34
 497 600 497 600 497 542 c 0,35,36
 497 491 497 491 474.5 452 c 128,-1,37
 452 413 452 413 413 391 c 128,-1,38
 374 369 374 369 323 369 c 1,39,-1
 317 390 l 1,40,41
 377 390 377 390 421 364.5 c 128,-1,42
 465 339 465 339 489 295 c 128,-1,43
 513 251 513 251 513 193 c 0,44,45
 513 133 513 133 484 87 c 128,-1,46
 455 41 455 41 404 15.5 c 128,-1,47
 353 -10 353 -10 285 -10 c 0,0,1
EndSplineSet
Validated: 5
Substitution2: "'tnum' Tabular Numbers in Latin lookup 19 subtable" three.tf
Substitution2: "'aalt' Access All Alternates in Latin lookup 0 subtable" three.tf
EndChar

StartChar: four
Encoding: 52 52 323
Width: 577
Flags: W
LayerCount: 2
Fore
SplineSet
374 0 m 1,0,-1
 374 189 l 1,1,-1
 376 209 l 1,2,-1
 376 616 l 1,3,-1
 400 616 l 1,4,-1
 113 204 l 1,5,-1
 87 236 l 1,6,-1
 548 236 l 1,7,-1
 548 165 l 1,8,-1
 32 165 l 1,9,-1
 32 226 l 1,10,-1
 378 720 l 1,11,-1
 458 720 l 1,12,-1
 458 0 l 1,13,-1
 374 0 l 1,0,-1
EndSplineSet
Validated: 5
Substitution2: "'tnum' Tabular Numbers in Latin lookup 19 subtable" four.tf
Substitution2: "'aalt' Access All Alternates in Latin lookup 0 subtable" four.tf
EndChar

StartChar: five
Encoding: 53 53 324
Width: 555
Flags: W
LayerCount: 2
Fore
SplineSet
282 -10 m 0,0,1
 178 -10 178 -10 116.5 47.5 c 128,-1,2
 55 105 55 105 43 198 c 1,3,-1
 128 198 l 1,4,5
 140 132 140 132 180.5 96.5 c 128,-1,6
 221 61 221 61 280 61 c 0,7,8
 342 61 342 61 385 101 c 128,-1,9
 428 141 428 141 428 229 c 256,10,11
 428 317 428 317 385.5 360 c 128,-1,12
 343 403 343 403 276 403 c 0,13,14
 229 403 229 403 194 383 c 128,-1,15
 159 363 159 363 148 336 c 1,16,-1
 77 336 l 1,17,-1
 108 720 l 1,18,-1
 476 720 l 1,19,-1
 476 650 l 1,20,-1
 157 650 l 1,21,-1
 183 678 l 1,22,-1
 162 392 l 1,23,-1
 143 397 l 1,24,25
 161 426 161 426 199 447 c 128,-1,26
 237 468 237 468 293 468 c 0,27,28
 358 468 358 468 407.5 439.5 c 128,-1,29
 457 411 457 411 485.5 358 c 128,-1,30
 514 305 514 305 514 229 c 256,31,32
 514 153 514 153 485.5 100 c 128,-1,33
 457 47 457 47 405 18.5 c 128,-1,34
 353 -10 353 -10 282 -10 c 0,0,1
EndSplineSet
Validated: 5
Substitution2: "'tnum' Tabular Numbers in Latin lookup 19 subtable" five.tf
Substitution2: "'aalt' Access All Alternates in Latin lookup 0 subtable" five.tf
EndChar

StartChar: six
Encoding: 54 54 325
Width: 578
Flags: W
LayerCount: 2
Fore
SplineSet
303 -10 m 0,0,1
 180 -10 180 -10 114.5 82 c 128,-1,2
 49 174 49 174 49 350 c 0,3,4
 49 472 49 472 80 557 c 128,-1,5
 111 642 111 642 170 686 c 128,-1,6
 229 730 229 730 311 730 c 0,7,8
 401 730 401 730 458.5 677.5 c 128,-1,9
 516 625 516 625 527 532 c 1,10,-1
 442 532 l 1,11,12
 434 594 434 594 399 626.5 c 128,-1,13
 364 659 364 659 309 659 c 0,14,15
 223 659 223 659 180 583.5 c 128,-1,16
 137 508 137 508 137 354 c 2,17,-1
 137 293 l 1,18,-1
 115 301 l 1,19,20
 124 347 124 347 153.5 381 c 128,-1,21
 183 415 183 415 226.5 434 c 128,-1,22
 270 453 270 453 321 453 c 0,23,24
 387 453 387 453 436 423.5 c 128,-1,25
 485 394 485 394 512.5 342 c 128,-1,26
 540 290 540 290 540 220 c 0,27,28
 540 151 540 151 510 99 c 128,-1,29
 480 47 480 47 427 18.5 c 128,-1,30
 374 -10 374 -10 303 -10 c 0,0,1
306 61 m 0,31,32
 372 61 372 61 412 104 c 128,-1,33
 452 147 452 147 452 221 c 0,34,35
 452 297 452 297 413 340.5 c 128,-1,36
 374 384 374 384 304 384 c 0,37,38
 236 384 236 384 192 343 c 128,-1,39
 148 302 148 302 148 229 c 0,40,41
 148 179 148 179 168.5 141 c 128,-1,42
 189 103 189 103 225 82 c 128,-1,43
 261 61 261 61 306 61 c 0,31,32
EndSplineSet
Validated: 5
Substitution2: "'tnum' Tabular Numbers in Latin lookup 19 subtable" six.tf
Substitution2: "'aalt' Access All Alternates in Latin lookup 0 subtable" six.tf
EndChar

StartChar: seven
Encoding: 55 55 326
Width: 513
Flags: W
LayerCount: 2
Fore
SplineSet
158 0 m 1,0,1
 419 679 l 1,2,-1
 431 650 l 1,3,-1
 66 650 l 1,4,-1
 66 720 l 1,5,-1
 492 720 l 1,6,-1
 492 662 l 1,7,-1
 250 0 l 1,8,-1
 158 0 l 1,0,1
EndSplineSet
Substitution2: "'tnum' Tabular Numbers in Latin lookup 19 subtable" seven.tf
Substitution2: "'aalt' Access All Alternates in Latin lookup 0 subtable" seven.tf
EndChar

StartChar: eight
Encoding: 56 56 327
Width: 562
Flags: W
LayerCount: 2
Fore
SplineSet
281 -10 m 256,0,1
 208 -10 208 -10 154.5 17 c 128,-1,2
 101 44 101 44 72 90.5 c 128,-1,3
 43 137 43 137 43 196 c 0,4,5
 43 250 43 250 66 294 c 128,-1,6
 89 338 89 338 129 364 c 128,-1,7
 169 390 169 390 217 390 c 1,8,-1
 219 369 l 1,9,10
 174 369 174 369 137.5 391.5 c 128,-1,11
 101 414 101 414 80.5 453.5 c 128,-1,12
 60 493 60 493 60 540 c 0,13,14
 60 596 60 596 88 639 c 128,-1,15
 116 682 116 682 166 706 c 128,-1,16
 216 730 216 730 282 730 c 256,17,18
 348 730 348 730 397 706 c 128,-1,19
 446 682 446 682 474 639 c 128,-1,20
 502 596 502 596 502 541 c 0,21,22
 502 493 502 493 481.5 454 c 128,-1,23
 461 415 461 415 425 392 c 128,-1,24
 389 369 389 369 342 369 c 1,25,-1
 345 390 l 1,26,27
 394 390 394 390 433.5 364 c 128,-1,28
 473 338 473 338 496.5 294 c 128,-1,29
 520 250 520 250 520 196 c 0,30,31
 520 137 520 137 491 90.5 c 128,-1,32
 462 44 462 44 408 17 c 128,-1,33
 354 -10 354 -10 281 -10 c 256,0,1
281 61 m 256,34,35
 351 61 351 61 392 99.5 c 128,-1,36
 433 138 433 138 433 203 c 0,37,38
 433 267 433 267 392.5 305 c 128,-1,39
 352 343 352 343 281 343 c 256,40,41
 210 343 210 343 169.5 305 c 128,-1,42
 129 267 129 267 129 203 c 0,43,44
 129 138 129 138 170 99.5 c 128,-1,45
 211 61 211 61 281 61 c 256,34,35
281 411 m 0,46,47
 344 411 344 411 380.5 444.5 c 128,-1,48
 417 478 417 478 417 533 c 0,49,50
 417 591 417 591 379.5 625 c 128,-1,51
 342 659 342 659 281 659 c 256,52,53
 220 659 220 659 183 625 c 128,-1,54
 146 591 146 591 146 533 c 0,55,56
 146 478 146 478 182.5 444.5 c 128,-1,57
 219 411 219 411 281 411 c 0,46,47
EndSplineSet
Validated: 5
Substitution2: "'tnum' Tabular Numbers in Latin lookup 19 subtable" eight.tf
Substitution2: "'aalt' Access All Alternates in Latin lookup 0 subtable" eight.tf
EndChar

StartChar: nine
Encoding: 57 57 328
Width: 588
Flags: W
LayerCount: 2
Fore
SplineSet
278 -10 m 0,0,1
 217 -10 217 -10 168.5 14.5 c 128,-1,2
 120 39 120 39 90 87.5 c 128,-1,3
 60 136 60 136 52 208 c 1,4,-1
 138 208 l 1,5,6
 146 130 146 130 184 95.5 c 128,-1,7
 222 61 222 61 280 61 c 0,8,9
 323 61 323 61 353.5 78.5 c 128,-1,10
 384 96 384 96 404 133 c 128,-1,11
 424 170 424 170 433.5 228 c 128,-1,12
 443 286 443 286 443 366 c 2,13,-1
 443 427 l 1,14,-1
 464 426 l 1,15,16
 456 381 456 381 426.5 346.5 c 128,-1,17
 397 312 397 312 353 293 c 128,-1,18
 309 274 309 274 258 274 c 0,19,20
 194 274 194 274 145.5 303 c 128,-1,21
 97 332 97 332 69.5 384 c 128,-1,22
 42 436 42 436 42 502 c 0,23,24
 42 572 42 572 72 622.5 c 128,-1,25
 102 673 102 673 155.5 701.5 c 128,-1,26
 209 730 209 730 279 730 c 0,27,28
 403 730 403 730 467 637.5 c 128,-1,29
 531 545 531 545 531 365 c 0,30,31
 531 243 531 243 501.5 159.5 c 128,-1,32
 472 76 472 76 416 33 c 128,-1,33
 360 -10 360 -10 278 -10 c 0,0,1
278 343 m 0,34,35
 345 343 345 343 388 381.5 c 128,-1,36
 431 420 431 420 431 494 c 0,37,38
 431 543 431 543 410.5 580 c 128,-1,39
 390 617 390 617 355 638 c 128,-1,40
 320 659 320 659 274 659 c 0,41,42
 209 659 209 659 169.5 617 c 128,-1,43
 130 575 130 575 130 500 c 0,44,45
 130 428 130 428 169 385.5 c 128,-1,46
 208 343 208 343 278 343 c 0,34,35
EndSplineSet
Validated: 5
Substitution2: "'tnum' Tabular Numbers in Latin lookup 19 subtable" nine.tf
Substitution2: "'aalt' Access All Alternates in Latin lookup 0 subtable" nine.tf
EndChar

StartChar: two.ss10
Encoding: 65624 -1 329
Width: 527
Flags: W
LayerCount: 2
Fore
SplineSet
41 0 m 1,0,-1
 41 51 l 2,1,2
 41 114 41 114 67 162 c 128,-1,3
 93 210 93 210 134 247.5 c 128,-1,4
 175 285 175 285 221 317 c 128,-1,5
 267 349 267 349 308.5 381 c 128,-1,6
 350 413 350 413 375.5 450 c 128,-1,7
 401 487 401 487 401 533 c 0,8,9
 401 592 401 592 365 625.5 c 128,-1,10
 329 659 329 659 271 659 c 0,11,12
 209 659 209 659 167.5 620 c 128,-1,13
 126 581 126 581 118 512 c 1,14,-1
 34 512 l 1,15,16
 44 613 44 613 109 671.5 c 128,-1,17
 174 730 174 730 276 730 c 0,18,19
 372 730 372 730 430 678 c 128,-1,20
 488 626 488 626 488 533 c 0,21,22
 488 481 488 481 467.5 439.5 c 128,-1,23
 447 398 447 398 413 364.5 c 128,-1,24
 379 331 379 331 339 302.5 c 128,-1,25
 299 274 299 274 259 246 c 128,-1,26
 219 218 219 218 187 188.5 c 128,-1,27
 155 159 155 159 136.5 123.5 c 128,-1,28
 118 88 118 88 121 44 c 1,29,-1
 105 71 l 1,30,-1
 499 71 l 1,31,-1
 499 0 l 1,32,-1
 41 0 l 1,0,-1
EndSplineSet
Validated: 37
EndChar

StartChar: zero.tf
Encoding: 65625 -1 330
Width: 588
Flags: W
LayerCount: 2
Fore
SplineSet
294 -10 m 256,0,1
 217 -10 217 -10 158 37 c 128,-1,2
 99 84 99 84 66.5 168 c 128,-1,3
 34 252 34 252 34 363 c 256,4,5
 34 474 34 474 66.5 556.5 c 128,-1,6
 99 639 99 639 158 684.5 c 128,-1,7
 217 730 217 730 294 730 c 0,8,9
 372 730 372 730 430 684.5 c 128,-1,10
 488 639 488 639 521 556.5 c 128,-1,11
 554 474 554 474 554 363 c 256,12,13
 554 252 554 252 521 167.5 c 128,-1,14
 488 83 488 83 429.5 36.5 c 128,-1,15
 371 -10 371 -10 294 -10 c 256,0,1
294 61 m 0,16,17
 347 61 347 61 385 97 c 128,-1,18
 423 133 423 133 443 201 c 128,-1,19
 463 269 463 269 463 364 c 256,20,21
 463 459 463 459 443.5 524.5 c 128,-1,22
 424 590 424 590 386 624.5 c 128,-1,23
 348 659 348 659 294 659 c 256,24,25
 240 659 240 659 202 625 c 128,-1,26
 164 591 164 591 144 525 c 128,-1,27
 124 459 124 459 124 364 c 0,28,29
 124 268 124 268 144.5 200 c 128,-1,30
 165 132 165 132 202.5 96.5 c 128,-1,31
 240 61 240 61 294 61 c 0,16,17
EndSplineSet
Validated: 1
Substitution2: "'pnum' Proportional Numbers in Latin lookup 18 subtable" zero
Substitution2: "'aalt' Access All Alternates in Latin lookup 0 subtable" zero
EndChar

StartChar: one.tf
Encoding: 65626 -1 331
Width: 588
Flags: W
LayerCount: 2
Fore
SplineSet
299 11 m 1,0,-1
 299 639 l 1,1,-1
 317 633 l 1,2,3
 306 609 306 609 277 583.5 c 128,-1,4
 248 558 248 558 207 537 c 128,-1,5
 166 516 166 516 118 508 c 1,6,-1
 118 585 l 1,7,8
 164 594 164 594 203.5 613.5 c 128,-1,9
 243 633 243 633 273 661 c 128,-1,10
 303 689 303 689 318 720 c 1,11,-1
 380 720 l 1,12,-1
 380 11 l 1,13,-1
 299 11 l 1,0,-1
110 0 m 1,14,-1
 110 71 l 1,15,-1
 543 71 l 1,16,-1
 543 0 l 1,17,-1
 110 0 l 1,14,-1
EndSplineSet
Validated: 5
Substitution2: "'pnum' Proportional Numbers in Latin lookup 18 subtable" one
Substitution2: "'aalt' Access All Alternates in Latin lookup 0 subtable" one
EndChar

StartChar: two.tf
Encoding: 65627 -1 332
Width: 588
Flags: W
LayerCount: 2
Fore
SplineSet
78 0 m 1,0,-1
 78 69 l 1,1,2
 177 158 177 158 242 225.5 c 128,-1,3
 307 293 307 293 346 346.5 c 128,-1,4
 385 400 385 400 401.5 444 c 128,-1,5
 418 488 418 488 418 530 c 0,6,7
 418 591 418 591 387.5 625 c 128,-1,8
 357 659 357 659 297 659 c 0,9,10
 235 659 235 659 200 621 c 128,-1,11
 165 583 165 583 158 512 c 1,12,-1
 72 512 l 1,13,14
 79 610 79 610 140.5 670 c 128,-1,15
 202 730 202 730 303 730 c 0,16,17
 397 730 397 730 452 677 c 128,-1,18
 507 624 507 624 507 531 c 0,19,20
 507 480 507 480 488 428.5 c 128,-1,21
 469 377 469 377 428 320.5 c 128,-1,22
 387 264 387 264 320.5 196 c 128,-1,23
 254 128 254 128 158 43 c 1,24,-1
 139 71 l 1,25,-1
 519 71 l 1,26,-1
 519 0 l 1,27,-1
 78 0 l 1,0,-1
EndSplineSet
Validated: 5
Substitution2: "'ss10' Style Set 10 in Latin lookup 31 subtable" two.tf.ss10
Substitution2: "'pnum' Proportional Numbers in Latin lookup 18 subtable" two
AlternateSubs2: "'aalt' Access All Alternates in Latin lookup 1 subtable" two two.tf.ss10
EndChar

StartChar: three.tf
Encoding: 65628 -1 333
Width: 588
Flags: W
LayerCount: 2
Fore
SplineSet
303 -10 m 0,0,1
 235 -10 235 -10 184.5 16.5 c 128,-1,2
 134 43 134 43 103.5 94 c 128,-1,3
 73 145 73 145 66 217 c 1,4,-1
 153 217 l 1,5,6
 161 143 161 143 199 102 c 128,-1,7
 237 61 237 61 302 61 c 0,8,9
 362 61 362 61 397 97 c 128,-1,10
 432 133 432 133 432 196 c 0,11,12
 432 261 432 261 397 302 c 128,-1,13
 362 343 362 343 303 343 c 2,14,-1
 225 343 l 1,15,-1
 225 411 l 1,16,-1
 300 411 l 2,17,18
 355 411 355 411 386.5 445 c 128,-1,19
 418 479 418 479 418 536 c 0,20,21
 418 595 418 595 385.5 627 c 128,-1,22
 353 659 353 659 299 659 c 256,23,24
 245 659 245 659 206.5 623.5 c 128,-1,25
 168 588 168 588 162 521 c 1,26,-1
 76 521 l 1,27,28
 81 585 81 585 110.5 631.5 c 128,-1,29
 140 678 140 678 189 704 c 128,-1,30
 238 730 238 730 302 730 c 0,31,32
 362 730 362 730 408 707 c 128,-1,33
 454 684 454 684 480 642 c 128,-1,34
 506 600 506 600 506 542 c 0,35,36
 506 491 506 491 485 452 c 128,-1,37
 464 413 464 413 427 391 c 128,-1,38
 390 369 390 369 343 369 c 1,39,-1
 338 390 l 1,40,41
 394 390 394 390 435 364.5 c 128,-1,42
 476 339 476 339 498.5 295 c 128,-1,43
 521 251 521 251 521 193 c 0,44,45
 521 133 521 133 493.5 87 c 128,-1,46
 466 41 466 41 416.5 15.5 c 128,-1,47
 367 -10 367 -10 303 -10 c 0,0,1
EndSplineSet
Validated: 5
Substitution2: "'pnum' Proportional Numbers in Latin lookup 18 subtable" three
Substitution2: "'aalt' Access All Alternates in Latin lookup 0 subtable" three
EndChar

StartChar: four.tf
Encoding: 65629 -1 334
Width: 588
Flags: W
LayerCount: 2
Fore
SplineSet
371 0 m 1,0,-1
 371 189 l 1,1,-1
 373 209 l 1,2,-1
 373 616 l 1,3,-1
 401 616 l 1,4,-1
 128 204 l 1,5,-1
 99 236 l 1,6,-1
 541 236 l 1,7,-1
 541 165 l 1,8,-1
 47 165 l 1,9,-1
 47 226 l 1,10,-1
 375 720 l 1,11,-1
 457 720 l 1,12,-1
 457 0 l 1,13,-1
 371 0 l 1,0,-1
EndSplineSet
Validated: 5
Substitution2: "'pnum' Proportional Numbers in Latin lookup 18 subtable" four
Substitution2: "'aalt' Access All Alternates in Latin lookup 0 subtable" four
EndChar

StartChar: five.tf
Encoding: 65630 -1 335
Width: 588
Flags: W
LayerCount: 2
Fore
SplineSet
299 -10 m 0,0,1
 200 -10 200 -10 141 47.5 c 128,-1,2
 82 105 82 105 70 198 c 1,3,-1
 157 198 l 1,4,5
 168 131 168 131 206 96 c 128,-1,6
 244 61 244 61 297 61 c 0,7,8
 355 61 355 61 394 101 c 128,-1,9
 433 141 433 141 433 229 c 256,10,11
 433 317 433 317 394.5 360 c 128,-1,12
 356 403 356 403 295 403 c 0,13,14
 252 403 252 403 220 383 c 128,-1,15
 188 363 188 363 177 336 c 1,16,-1
 103 336 l 1,17,-1
 133 720 l 1,18,-1
 486 720 l 1,19,-1
 486 650 l 1,20,-1
 179 650 l 1,21,-1
 210 678 l 1,22,-1
 190 392 l 1,23,-1
 169 397 l 1,24,25
 186 426 186 426 222.5 447 c 128,-1,26
 259 468 259 468 312 468 c 0,27,28
 373 468 373 468 420.5 439.5 c 128,-1,29
 468 411 468 411 495.5 358 c 128,-1,30
 523 305 523 305 523 229 c 256,31,32
 523 153 523 153 495 100 c 128,-1,33
 467 47 467 47 417 18.5 c 128,-1,34
 367 -10 367 -10 299 -10 c 0,0,1
EndSplineSet
Validated: 5
Substitution2: "'pnum' Proportional Numbers in Latin lookup 18 subtable" five
Substitution2: "'aalt' Access All Alternates in Latin lookup 0 subtable" five
EndChar

StartChar: six.tf
Encoding: 65631 -1 336
Width: 588
Flags: W
LayerCount: 2
Fore
SplineSet
307 -10 m 0,0,1
 190 -10 190 -10 126.5 82.5 c 128,-1,2
 63 175 63 175 63 350 c 0,3,4
 63 472 63 472 93 556.5 c 128,-1,5
 123 641 123 641 179.5 685.5 c 128,-1,6
 236 730 236 730 315 730 c 0,7,8
 401 730 401 730 456.5 677.5 c 128,-1,9
 512 625 512 625 523 532 c 1,10,-1
 436 532 l 1,11,12
 429 594 429 594 396 626.5 c 128,-1,13
 363 659 363 659 313 659 c 0,14,15
 234 659 234 659 193.5 583.5 c 128,-1,16
 153 508 153 508 153 354 c 2,17,-1
 153 293 l 1,18,-1
 131 301 l 1,19,20
 140 347 140 347 168 381 c 128,-1,21
 196 415 196 415 237 434 c 128,-1,22
 278 453 278 453 326 453 c 0,23,24
 389 453 389 453 435.5 423.5 c 128,-1,25
 482 394 482 394 508.5 342 c 128,-1,26
 535 290 535 290 535 220 c 0,27,28
 535 151 535 151 506 99 c 128,-1,29
 477 47 477 47 426 18.5 c 128,-1,30
 375 -10 375 -10 307 -10 c 0,0,1
309 61 m 0,31,32
 369 61 369 61 406.5 104 c 128,-1,33
 444 147 444 147 444 221 c 0,34,35
 444 297 444 297 408 340.5 c 128,-1,36
 372 384 372 384 306 384 c 0,37,38
 245 384 245 384 203.5 343 c 128,-1,39
 162 302 162 302 162 229 c 0,40,41
 162 179 162 179 181 141 c 128,-1,42
 200 103 200 103 233.5 82 c 128,-1,43
 267 61 267 61 309 61 c 0,31,32
EndSplineSet
Validated: 5
Substitution2: "'pnum' Proportional Numbers in Latin lookup 18 subtable" six
Substitution2: "'aalt' Access All Alternates in Latin lookup 0 subtable" six
EndChar

StartChar: seven.tf
Encoding: 65632 -1 337
Width: 588
Flags: W
LayerCount: 2
Fore
SplineSet
196 0 m 1,0,1
 209 171 209 171 268.5 337.5 c 128,-1,2
 328 504 328 504 446 679 c 1,3,-1
 453 650 l 1,4,-1
 69 650 l 1,5,-1
 69 720 l 1,6,-1
 519 720 l 1,7,-1
 519 662 l 1,8,9
 411 487 411 487 356 327 c 128,-1,10
 301 167 301 167 291 0 c 1,11,-1
 196 0 l 1,0,1
EndSplineSet
Validated: 5
Substitution2: "'pnum' Proportional Numbers in Latin lookup 18 subtable" seven
Substitution2: "'aalt' Access All Alternates in Latin lookup 0 subtable" seven
EndChar

StartChar: eight.tf
Encoding: 65633 -1 338
Width: 588
Flags: W
LayerCount: 2
Fore
SplineSet
295 -10 m 0,0,1
 225 -10 225 -10 173 17 c 128,-1,2
 121 44 121 44 93 90.5 c 128,-1,3
 65 137 65 137 65 196 c 0,4,5
 65 250 65 250 87 294 c 128,-1,6
 109 338 109 338 147 364 c 128,-1,7
 185 390 185 390 232 390 c 1,8,-1
 235 369 l 1,9,10
 191 369 191 369 156.5 391.5 c 128,-1,11
 122 414 122 414 102 453.5 c 128,-1,12
 82 493 82 493 82 540 c 0,13,14
 82 596 82 596 109 639 c 128,-1,15
 136 682 136 682 184 706 c 128,-1,16
 232 730 232 730 296 730 c 0,17,18
 359 730 359 730 406.5 706 c 128,-1,19
 454 682 454 682 480.5 639 c 128,-1,20
 507 596 507 596 507 541 c 0,21,22
 507 493 507 493 487.5 454 c 128,-1,23
 468 415 468 415 433 392 c 128,-1,24
 398 369 398 369 353 369 c 1,25,-1
 357 390 l 1,26,27
 403 390 403 390 441 364 c 128,-1,28
 479 338 479 338 501.5 294 c 128,-1,29
 524 250 524 250 524 196 c 0,30,31
 524 137 524 137 495.5 90.5 c 128,-1,32
 467 44 467 44 415.5 17 c 128,-1,33
 364 -10 364 -10 295 -10 c 0,0,1
295 61 m 0,34,35
 358 61 358 61 396 99.5 c 128,-1,36
 434 138 434 138 434 203 c 0,37,38
 434 267 434 267 396.5 305 c 128,-1,39
 359 343 359 343 295 343 c 0,40,41
 230 343 230 343 192 305 c 128,-1,42
 154 267 154 267 154 203 c 0,43,44
 154 138 154 138 192 99.5 c 128,-1,45
 230 61 230 61 295 61 c 0,34,35
295 411 m 0,46,47
 352 411 352 411 385 444.5 c 128,-1,48
 418 478 418 478 418 533 c 0,49,50
 418 591 418 591 383.5 625 c 128,-1,51
 349 659 349 659 295 659 c 0,52,53
 239 659 239 659 205 625 c 128,-1,54
 171 591 171 591 171 533 c 0,55,56
 171 478 171 478 205 444.5 c 128,-1,57
 239 411 239 411 295 411 c 0,46,47
EndSplineSet
Validated: 5
Substitution2: "'pnum' Proportional Numbers in Latin lookup 18 subtable" eight
Substitution2: "'aalt' Access All Alternates in Latin lookup 0 subtable" eight
EndChar

StartChar: nine.tf
Encoding: 65634 -1 339
Width: 588
Flags: W
LayerCount: 2
Fore
SplineSet
279 -10 m 0,0,1
 221 -10 221 -10 174 14.5 c 128,-1,2
 127 39 127 39 98 87.5 c 128,-1,3
 69 136 69 136 62 208 c 1,4,-1
 150 208 l 1,5,6
 158 130 158 130 193.5 95.5 c 128,-1,7
 229 61 229 61 283 61 c 0,8,9
 323 61 323 61 351 79 c 128,-1,10
 379 97 379 97 397 134 c 128,-1,11
 415 171 415 171 423.5 229 c 128,-1,12
 432 287 432 287 432 366 c 2,13,-1
 432 427 l 1,14,-1
 455 426 l 1,15,16
 447 380 447 380 418 345.5 c 128,-1,17
 389 311 389 311 348 292.5 c 128,-1,18
 307 274 307 274 260 274 c 0,19,20
 199 274 199 274 152.5 303 c 128,-1,21
 106 332 106 332 79.5 384 c 128,-1,22
 53 436 53 436 53 502 c 0,23,24
 53 572 53 572 82 622.5 c 128,-1,25
 111 673 111 673 162.5 701.5 c 128,-1,26
 214 730 214 730 281 730 c 0,27,28
 400 730 400 730 461.5 637.5 c 128,-1,29
 523 545 523 545 523 365 c 0,30,31
 523 243 523 243 495 159.5 c 128,-1,32
 467 76 467 76 413 33 c 128,-1,33
 359 -10 359 -10 279 -10 c 0,0,1
281 343 m 0,34,35
 344 343 344 343 383 381.5 c 128,-1,36
 422 420 422 420 422 494 c 256,37,38
 422 568 422 568 382 613.5 c 128,-1,39
 342 659 342 659 278 659 c 0,40,41
 219 659 219 659 182 617 c 128,-1,42
 145 575 145 575 145 500 c 0,43,44
 145 428 145 428 180.5 385.5 c 128,-1,45
 216 343 216 343 281 343 c 0,34,35
EndSplineSet
Validated: 5
Substitution2: "'pnum' Proportional Numbers in Latin lookup 18 subtable" nine
Substitution2: "'aalt' Access All Alternates in Latin lookup 0 subtable" nine
EndChar

StartChar: two.tf.ss10
Encoding: 65635 -1 340
Width: 588
Flags: W
LayerCount: 2
Fore
SplineSet
79 0 m 1,0,-1
 79 51 l 2,1,2
 79 114 79 114 103.5 162 c 128,-1,3
 128 210 128 210 166.5 247.5 c 128,-1,4
 205 285 205 285 248.5 317 c 128,-1,5
 292 349 292 349 330.5 381 c 128,-1,6
 369 413 369 413 393.5 450 c 128,-1,7
 418 487 418 487 418 533 c 0,8,9
 418 592 418 592 384.5 625.5 c 128,-1,10
 351 659 351 659 299 659 c 0,11,12
 240 659 240 659 202.5 619 c 128,-1,13
 165 579 165 579 158 512 c 1,14,-1
 72 512 l 1,15,16
 80 611 80 611 142 670.5 c 128,-1,17
 204 730 204 730 303 730 c 0,18,19
 395 730 395 730 451 678 c 128,-1,20
 507 626 507 626 507 533 c 0,21,22
 507 481 507 481 487.5 439.5 c 128,-1,23
 468 398 468 398 436 364.5 c 128,-1,24
 404 331 404 331 366 302.5 c 128,-1,25
 328 274 328 274 290.5 246 c 128,-1,26
 253 218 253 218 222.5 188.5 c 128,-1,27
 192 159 192 159 175 123.5 c 128,-1,28
 158 88 158 88 161 44 c 1,29,-1
 145 71 l 1,30,-1
 519 71 l 1,31,-1
 519 0 l 1,32,-1
 79 0 l 1,0,-1
EndSplineSet
Validated: 37
EndChar

StartChar: hyphen_greater.liga
Encoding: 65636 -1 343
Width: 825
GlyphClass: 3
LigCaretCntFixed: 1
Flags: W
LayerCount: 2
Fore
SplineSet
60 395 m 1,0,-1
 698 395 l 1,1,-1
 665 368 l 1,2,-1
 345 690 l 1,3,-1
 443 690 l 1,4,-1
 770 360 l 1,5,-1
 442 30 l 1,6,-1
 344 30 l 1,7,-1
 665 352 l 1,8,-1
 698 325 l 1,9,-1
 60 325 l 1,10,-1
 60 395 l 1,0,-1
EndSplineSet
Validated: 5
Ligature2: "'liga' Standard Ligatures in Latin lookup 21 subtable" hyphen greater
LCarets2: 1 413
EndChar

StartChar: period
Encoding: 46 46 344
Width: 250
Flags: W
LayerCount: 2
Fore
SplineSet
74 0 m 1,0,-1
 74 102 l 1,1,-1
 176 102 l 1,2,-1
 176 0 l 1,3,-1
 74 0 l 1,0,-1
EndSplineSet
Validated: 1
Substitution2: "'ss01' Style Set 1 in Latin lookup 22 subtable" period.ss01
Substitution2: "'aalt' Access All Alternates in Latin lookup 0 subtable" period.ss01
EndChar

StartChar: comma
Encoding: 44 44 345
Width: 268
Flags: W
LayerCount: 2
Fore
SplineSet
121 -110 m 5,0,-1
 50 -110 l 5,1,-1
 99 102 l 5,2,-1
 200 102 l 5,3,-1
 121 -110 l 5,0,-1
EndSplineSet
Substitution2: "'ss01' Style Set 1 in Latin lookup 22 subtable" comma.ss01
Substitution2: "'aalt' Access All Alternates in Latin lookup 0 subtable" comma.ss01
EndChar

StartChar: exclam
Encoding: 33 33 349
Width: 268
Flags: W
LayerCount: 2
Fore
SplineSet
103 209 m 1,0,-1
 91 740 l 1,1,-1
 176 740 l 1,2,-1
 164 209 l 1,3,-1
 103 209 l 1,0,-1
83 0 m 1,4,-1
 83 102 l 1,5,-1
 185 102 l 1,6,-1
 185 0 l 1,7,-1
 83 0 l 1,4,-1
EndSplineSet
Validated: 1
Substitution2: "'ss01' Style Set 1 in Latin lookup 22 subtable" exclam.ss01
Substitution2: "'case' Case-Sensitive Forms in Latin lookup 20 subtable" exclam.case
AlternateSubs2: "'aalt' Access All Alternates in Latin lookup 1 subtable" exclam.case exclam.ss01
EndChar

StartChar: exclamdown
Encoding: 161 161 350
Width: 268
Flags: W
LayerCount: 2
Fore
SplineSet
91 -205 m 1,0,-1
 103 301 l 1,1,-1
 164 301 l 1,2,-1
 176 -205 l 1,3,-1
 91 -205 l 1,0,-1
185 510 m 1,4,-1
 185 409 l 1,5,-1
 83 409 l 1,6,-1
 83 510 l 1,7,-1
 185 510 l 1,4,-1
EndSplineSet
Validated: 1
Substitution2: "'ss01' Style Set 1 in Latin lookup 22 subtable" exclamdown.ss01
Substitution2: "'case' Case-Sensitive Forms in Latin lookup 20 subtable" exclamdown.case
AlternateSubs2: "'aalt' Access All Alternates in Latin lookup 1 subtable" exclamdown.case exclamdown.ss01
EndChar

StartChar: question
Encoding: 63 63 351
Width: 545
Flags: W
LayerCount: 2
Fore
SplineSet
243 209 m 1,0,1
 243 266 243 266 256.5 305.5 c 128,-1,2
 270 345 270 345 292.5 372 c 128,-1,3
 315 399 315 399 339.5 419.5 c 128,-1,4
 364 440 364 440 386.5 460 c 128,-1,5
 409 480 409 480 423 504 c 128,-1,6
 437 528 437 528 437 563 c 0,7,8
 437 615 437 615 398.5 647 c 128,-1,9
 360 679 360 679 292 679 c 0,10,11
 220 679 220 679 175.5 641 c 128,-1,12
 131 603 131 603 122 534 c 1,13,-1
 43 534 l 1,14,15
 49 600 49 600 82 648.5 c 128,-1,16
 115 697 115 697 170 723.5 c 128,-1,17
 225 750 225 750 295 750 c 0,18,19
 362 750 362 750 411 727 c 128,-1,20
 460 704 460 704 487.5 662 c 128,-1,21
 515 620 515 620 515 562 c 0,22,23
 515 516 515 516 501 485.5 c 128,-1,24
 487 455 487 455 464.5 432.5 c 128,-1,25
 442 410 442 410 416 390.5 c 128,-1,26
 390 371 390 371 367.5 348 c 128,-1,27
 345 325 345 325 331 292 c 128,-1,28
 317 259 317 259 317 209 c 1,29,-1
 243 209 l 1,0,1
229 0 m 1,30,-1
 229 102 l 1,31,-1
 330 102 l 1,32,-1
 330 0 l 1,33,-1
 229 0 l 1,30,-1
EndSplineSet
Validated: 1
Substitution2: "'ss01' Style Set 1 in Latin lookup 22 subtable" question.ss01
Substitution2: "'case' Case-Sensitive Forms in Latin lookup 20 subtable" question.case
AlternateSubs2: "'aalt' Access All Alternates in Latin lookup 1 subtable" question.case question.ss01
EndChar

StartChar: questiondown
Encoding: 191 191 352
Width: 545
Flags: W
LayerCount: 2
Fore
SplineSet
250 -215 m 0,0,1
 187 -215 187 -215 137.5 -194 c 128,-1,2
 88 -173 88 -173 59 -133 c 128,-1,3
 30 -93 30 -93 30 -36 c 0,4,5
 30 10 30 10 44.5 40.5 c 128,-1,6
 59 71 59 71 81.5 93.5 c 128,-1,7
 104 116 104 116 129.5 134.5 c 128,-1,8
 155 153 155 153 177.5 174.5 c 128,-1,9
 200 196 200 196 214.5 226 c 128,-1,10
 229 256 229 256 229 301 c 1,11,-1
 303 301 l 1,12,13
 303 248 303 248 289 212.5 c 128,-1,14
 275 177 275 177 253 152 c 128,-1,15
 231 127 231 127 206 108 c 128,-1,16
 181 89 181 89 158.5 70 c 128,-1,17
 136 51 136 51 122.5 26.5 c 128,-1,18
 109 2 109 2 109 -35 c 0,19,20
 109 -86 109 -86 150 -115 c 128,-1,21
 191 -144 191 -144 253 -144 c 0,22,23
 319 -144 319 -144 366.5 -111 c 128,-1,24
 414 -78 414 -78 424 -16 c 1,25,-1
 502 -16 l 1,26,27
 496 -78 496 -78 461.5 -122.5 c 128,-1,28
 427 -167 427 -167 372.5 -191 c 128,-1,29
 318 -215 318 -215 250 -215 c 0,0,1
317 510 m 1,30,-1
 317 409 l 1,31,-1
 215 409 l 1,32,-1
 215 510 l 1,33,-1
 317 510 l 1,30,-1
EndSplineSet
Validated: 1
Substitution2: "'ss01' Style Set 1 in Latin lookup 22 subtable" questiondown.ss01
Substitution2: "'case' Case-Sensitive Forms in Latin lookup 20 subtable" questiondown.case
AlternateSubs2: "'aalt' Access All Alternates in Latin lookup 1 subtable" questiondown.case questiondown.ss01
EndChar

StartChar: bullet
Encoding: 8226 8226 354
Width: 300
Flags: W
LayerCount: 2
Fore
SplineSet
74 299 m 1,0,-1
 74 451 l 1,1,-1
 227 451 l 1,2,-1
 227 299 l 1,3,-1
 74 299 l 1,0,-1
EndSplineSet
Validated: 1
Substitution2: "'ss01' Style Set 1 in Latin lookup 22 subtable" bullet.ss01
Substitution2: "'case' Case-Sensitive Forms in Latin lookup 20 subtable" bullet.case
AlternateSubs2: "'aalt' Access All Alternates in Latin lookup 1 subtable" bullet.case bullet.ss01
EndChar

StartChar: asterisk
Encoding: 42 42 355
Width: 404
Flags: W
LayerCount: 2
Fore
SplineSet
166 437 m 1,0,-1
 187 563 l 1,1,-1
 84 483 l 1,2,-1
 49 543 l 1,3,-1
 170 588 l 1,4,-1
 49 634 l 1,5,-1
 84 695 l 1,6,-1
 187 615 l 1,7,-1
 166 740 l 1,8,-1
 237 740 l 1,9,-1
 217 615 l 1,10,-1
 319 695 l 1,11,-1
 355 634 l 1,12,-1
 233 588 l 1,13,-1
 355 543 l 1,14,-1
 319 483 l 1,15,-1
 217 563 l 1,16,-1
 237 437 l 1,17,-1
 166 437 l 1,0,-1
EndSplineSet
Validated: 1
EndChar

StartChar: numbersign
Encoding: 35 35 356
Width: 684
Flags: W
LayerCount: 2
Fore
SplineSet
145 0 m 1,0,-1
 245 720 l 1,1,-1
 314 720 l 1,2,-1
 214 0 l 1,3,-1
 145 0 l 1,0,-1
370 0 m 1,4,-1
 470 720 l 1,5,-1
 539 720 l 1,6,-1
 439 0 l 1,7,-1
 370 0 l 1,4,-1
65 506 m 1,8,-1
 645 506 l 1,9,-1
 645 439 l 1,10,-1
 65 439 l 1,11,-1
 65 506 l 1,8,-1
40 291 m 1,12,-1
 620 291 l 1,13,-1
 620 224 l 1,14,-1
 40 224 l 1,15,-1
 40 291 l 1,12,-1
EndSplineSet
Validated: 5
EndChar

StartChar: slash
Encoding: 47 47 357
Width: 421
Flags: W
LayerCount: 2
Fore
SplineSet
58 -60 m 1,0,-1
 294 750 l 1,1,-1
 363 750 l 1,2,-1
 127 -60 l 1,3,-1
 58 -60 l 1,0,-1
EndSplineSet
Validated: 1
EndChar

StartChar: backslash
Encoding: 92 92 358
Width: 421
Flags: W
LayerCount: 2
Fore
SplineSet
58 750 m 1,0,-1
 127 750 l 1,1,-1
 363 -60 l 1,2,-1
 294 -60 l 1,3,-1
 58 750 l 1,0,-1
EndSplineSet
Validated: 1
EndChar

StartChar: exclam.case
Encoding: 65639 -1 361
Width: 270
Flags: W
LayerCount: 2
Fore
SplineSet
104 209 m 1,0,-1
 92 720 l 1,1,-1
 177 720 l 1,2,-1
 165 209 l 1,3,-1
 104 209 l 1,0,-1
84 0 m 1,4,-1
 84 102 l 1,5,-1
 186 102 l 1,6,-1
 186 0 l 1,7,-1
 84 0 l 1,4,-1
EndSplineSet
Validated: 1
EndChar

StartChar: exclamdown.case
Encoding: 65640 -1 362
Width: 268
Flags: W
LayerCount: 2
Fore
SplineSet
91 0 m 1,0,-1
 103 511 l 1,1,-1
 164 511 l 1,2,-1
 176 0 l 1,3,-1
 91 0 l 1,0,-1
185 720 m 1,4,-1
 185 619 l 1,5,-1
 83 619 l 1,6,-1
 83 720 l 1,7,-1
 185 720 l 1,4,-1
EndSplineSet
Validated: 1
EndChar

StartChar: question.case
Encoding: 65641 -1 363
Width: 545
Flags: W
LayerCount: 2
Fore
SplineSet
243 209 m 1,0,1
 243 264 243 264 256.5 301.5 c 128,-1,2
 270 339 270 339 292.5 365 c 128,-1,3
 315 391 315 391 339.5 411 c 128,-1,4
 364 431 364 431 386.5 450.5 c 128,-1,5
 409 470 409 470 423 494 c 128,-1,6
 437 518 437 518 437 553 c 0,7,8
 437 598 437 598 401 628.5 c 128,-1,9
 365 659 365 659 292 659 c 0,10,11
 220 659 220 659 175.5 621 c 128,-1,12
 131 583 131 583 122 514 c 1,13,-1
 43 514 l 1,14,15
 49 580 49 580 82 628.5 c 128,-1,16
 115 677 115 677 170 703.5 c 128,-1,17
 225 730 225 730 295 730 c 256,18,19
 365 730 365 730 414 707.5 c 128,-1,20
 463 685 463 685 489 645 c 128,-1,21
 515 605 515 605 515 552 c 0,22,23
 515 506 515 506 501 475.5 c 128,-1,24
 487 445 487 445 464.5 423 c 128,-1,25
 442 401 442 401 416 382 c 128,-1,26
 390 363 390 363 367.5 341 c 128,-1,27
 345 319 345 319 331 287.5 c 128,-1,28
 317 256 317 256 317 209 c 1,29,-1
 243 209 l 1,0,1
229 0 m 1,30,-1
 229 102 l 1,31,-1
 330 102 l 1,32,-1
 330 0 l 1,33,-1
 229 0 l 1,30,-1
EndSplineSet
Validated: 1
EndChar

StartChar: questiondown.case
Encoding: 65642 -1 364
Width: 545
Flags: W
LayerCount: 2
Fore
SplineSet
250 -10 m 0,0,1
 187 -10 187 -10 137.5 11 c 128,-1,2
 88 32 88 32 59 73.5 c 128,-1,3
 30 115 30 115 30 174 c 0,4,5
 30 220 30 220 44.5 250.5 c 128,-1,6
 59 281 59 281 81.5 303.5 c 128,-1,7
 104 326 104 326 129.5 344.5 c 128,-1,8
 155 363 155 363 177.5 384.5 c 128,-1,9
 200 406 200 406 214.5 436 c 128,-1,10
 229 466 229 466 229 511 c 1,11,-1
 303 511 l 1,12,13
 303 458 303 458 289 422.5 c 128,-1,14
 275 387 275 387 253 362 c 128,-1,15
 231 337 231 337 206 318 c 128,-1,16
 181 299 181 299 158.5 280 c 128,-1,17
 136 261 136 261 122.5 236.5 c 128,-1,18
 109 212 109 212 109 175 c 0,19,20
 109 120 109 120 150 90.5 c 128,-1,21
 191 61 191 61 253 61 c 0,22,23
 319 61 319 61 366.5 94 c 128,-1,24
 414 127 414 127 424 189 c 1,25,-1
 502 189 l 1,26,27
 496 128 496 128 461.5 83 c 128,-1,28
 427 38 427 38 372.5 14 c 128,-1,29
 318 -10 318 -10 250 -10 c 0,0,1
317 720 m 1,30,-1
 317 619 l 1,31,-1
 215 619 l 1,32,-1
 215 720 l 1,33,-1
 317 720 l 1,30,-1
EndSplineSet
Validated: 1
EndChar

StartChar: bullet.case
Encoding: 65643 -1 365
Width: 695
Flags: W
LayerCount: 2
Fore
SplineSet
74 118 m 1,0,-1
 74 665 l 1,1,-1
 621 665 l 1,2,-1
 621 118 l 1,3,-1
 74 118 l 1,0,-1
EndSplineSet
Validated: 1
Substitution2: "'ss01' Style Set 1 in Latin lookup 22 subtable" bullet.case.ss01
Substitution2: "'aalt' Access All Alternates in Latin lookup 0 subtable" bullet.case.ss01
EndChar

StartChar: period.ss01
Encoding: 65645 -1 367
Width: 250
Flags: W
LayerCount: 2
Fore
SplineSet
125 -10 m 0,0,1
 101 -10 101 -10 84.5 6 c 128,-1,2
 68 22 68 22 68 48 c 0,3,4
 68 72 68 72 84.5 88 c 128,-1,5
 101 104 101 104 125 104 c 0,6,7
 148 104 148 104 165 88 c 128,-1,8
 182 72 182 72 182 47 c 256,9,10
 182 22 182 22 165 6 c 128,-1,11
 148 -10 148 -10 125 -10 c 0,0,1
EndSplineSet
Validated: 1
EndChar

StartChar: comma.ss01
Encoding: 65646 -1 368
Width: 250
Flags: W
LayerCount: 2
Fore
SplineSet
79 -142 m 1,0,-1
 79 -102 l 1,1,2
 105 -91 105 -91 120.5 -67.5 c 128,-1,3
 136 -44 136 -44 136 3 c 1,4,-1
 160 6 l 1,5,6
 153 1 153 1 144 -3 c 128,-1,7
 135 -7 135 -7 125 -7 c 0,8,9
 101 -7 101 -7 84.5 8.5 c 128,-1,10
 68 24 68 24 68 47 c 0,11,12
 68 73 68 73 84.5 88.5 c 128,-1,13
 101 104 101 104 122 104 c 0,14,15
 147 104 147 104 164.5 85 c 128,-1,16
 182 66 182 66 182 21 c 0,17,18
 182 -42 182 -42 155 -84 c 128,-1,19
 128 -126 128 -126 79 -142 c 1,0,-1
EndSplineSet
Validated: 5
EndChar

StartChar: exclam.ss01
Encoding: 65650 -1 372
Width: 270
Flags: W
LayerCount: 2
Fore
SplineSet
104 209 m 1,0,-1
 92 740 l 1,1,-1
 177 740 l 1,2,-1
 165 209 l 1,3,-1
 104 209 l 1,0,-1
135 -10 m 0,4,5
 111 -10 111 -10 94.5 6 c 128,-1,6
 78 22 78 22 78 48 c 0,7,8
 78 72 78 72 94.5 88 c 128,-1,9
 111 104 111 104 135 104 c 0,10,11
 158 104 158 104 175 88 c 128,-1,12
 192 72 192 72 192 47 c 256,13,14
 192 22 192 22 175 6 c 128,-1,15
 158 -10 158 -10 135 -10 c 0,4,5
EndSplineSet
Validated: 1
EndChar

StartChar: exclamdown.ss01
Encoding: 65651 -1 373
Width: 280
Flags: W
LayerCount: 2
Fore
SplineSet
97 -205 m 1,0,-1
 109 301 l 1,1,-1
 170 301 l 1,2,-1
 182 -205 l 1,3,-1
 97 -205 l 1,0,-1
140 520 m 0,4,5
 164 520 164 520 180.5 504 c 128,-1,6
 197 488 197 488 197 463 c 256,7,8
 197 438 197 438 180.5 422 c 128,-1,9
 164 406 164 406 140 406 c 0,10,11
 118 406 118 406 100.5 422 c 128,-1,12
 83 438 83 438 83 463 c 256,13,14
 83 488 83 488 100.5 504 c 128,-1,15
 118 520 118 520 140 520 c 0,4,5
EndSplineSet
Validated: 1
EndChar

StartChar: question.ss01
Encoding: 65652 -1 374
Width: 545
Flags: W
LayerCount: 2
Fore
SplineSet
243 209 m 1,0,1
 243 266 243 266 256.5 305.5 c 128,-1,2
 270 345 270 345 292.5 372 c 128,-1,3
 315 399 315 399 339.5 419.5 c 128,-1,4
 364 440 364 440 386.5 460 c 128,-1,5
 409 480 409 480 423 504 c 128,-1,6
 437 528 437 528 437 563 c 0,7,8
 437 615 437 615 398.5 647 c 128,-1,9
 360 679 360 679 292 679 c 0,10,11
 220 679 220 679 175.5 641 c 128,-1,12
 131 603 131 603 122 534 c 1,13,-1
 43 534 l 1,14,15
 49 600 49 600 82 648.5 c 128,-1,16
 115 697 115 697 170 723.5 c 128,-1,17
 225 750 225 750 295 750 c 0,18,19
 362 750 362 750 411 727 c 128,-1,20
 460 704 460 704 487.5 662 c 128,-1,21
 515 620 515 620 515 562 c 0,22,23
 515 516 515 516 501 485.5 c 128,-1,24
 487 455 487 455 464.5 432.5 c 128,-1,25
 442 410 442 410 416 390.5 c 128,-1,26
 390 371 390 371 367.5 348 c 128,-1,27
 345 325 345 325 331 292 c 128,-1,28
 317 259 317 259 317 209 c 1,29,-1
 243 209 l 1,0,1
280 -10 m 0,30,31
 255 -10 255 -10 238.5 6 c 128,-1,32
 222 22 222 22 222 48 c 0,33,34
 222 72 222 72 238.5 88 c 128,-1,35
 255 104 255 104 280 104 c 0,36,37
 302 104 302 104 319 88 c 128,-1,38
 336 72 336 72 336 48 c 0,39,40
 336 22 336 22 319 6 c 128,-1,41
 302 -10 302 -10 280 -10 c 0,30,31
EndSplineSet
Validated: 1
EndChar

StartChar: questiondown.ss01
Encoding: 65653 -1 375
Width: 545
Flags: W
LayerCount: 2
Fore
SplineSet
250 -215 m 0,0,1
 187 -215 187 -215 137.5 -194 c 128,-1,2
 88 -173 88 -173 59 -133 c 128,-1,3
 30 -93 30 -93 30 -36 c 0,4,5
 30 10 30 10 44.5 40.5 c 128,-1,6
 59 71 59 71 81.5 93.5 c 128,-1,7
 104 116 104 116 129.5 134.5 c 128,-1,8
 155 153 155 153 177.5 174.5 c 128,-1,9
 200 196 200 196 214.5 226 c 128,-1,10
 229 256 229 256 229 301 c 1,11,-1
 303 301 l 1,12,13
 303 248 303 248 289 212.5 c 128,-1,14
 275 177 275 177 253 152 c 128,-1,15
 231 127 231 127 206 108 c 128,-1,16
 181 89 181 89 158.5 70 c 128,-1,17
 136 51 136 51 122.5 26.5 c 128,-1,18
 109 2 109 2 109 -35 c 0,19,20
 109 -86 109 -86 150 -115 c 128,-1,21
 191 -144 191 -144 253 -144 c 0,22,23
 319 -144 319 -144 366.5 -111 c 128,-1,24
 414 -78 414 -78 424 -16 c 1,25,-1
 502 -16 l 1,26,27
 496 -78 496 -78 461.5 -122.5 c 128,-1,28
 427 -167 427 -167 372.5 -191 c 128,-1,29
 318 -215 318 -215 250 -215 c 0,0,1
266 520 m 0,30,31
 290 520 290 520 306.5 504 c 128,-1,32
 323 488 323 488 323 463 c 256,33,34
 323 438 323 438 306.5 422 c 128,-1,35
 290 406 290 406 266 406 c 0,36,37
 244 406 244 406 226.5 422 c 128,-1,38
 209 438 209 438 209 463 c 256,39,40
 209 488 209 488 226.5 504 c 128,-1,41
 244 520 244 520 266 520 c 0,30,31
EndSplineSet
Validated: 1
EndChar

StartChar: bullet.ss01
Encoding: 65655 -1 377
Width: 318
Flags: W
LayerCount: 2
Fore
SplineSet
160 284 m 0,0,1
 124 284 124 284 99 307.5 c 128,-1,2
 74 331 74 331 74 370 c 0,3,4
 74 406 74 406 99 430.5 c 128,-1,5
 124 455 124 455 160 455 c 0,6,7
 194 455 194 455 219.5 430.5 c 128,-1,8
 245 406 245 406 245 370 c 0,9,10
 245 331 245 331 219.5 307.5 c 128,-1,11
 194 284 194 284 160 284 c 0,0,1
EndSplineSet
Validated: 1
EndChar

StartChar: bullet.case.ss01
Encoding: 65657 -1 379
Width: 760
Flags: W
LayerCount: 2
Fore
SplineSet
383 65 m 0,0,1
 251 65 251 65 162.5 149.5 c 128,-1,2
 74 234 74 234 74 374 c 0,3,4
 74 505 74 505 162.5 591.5 c 128,-1,5
 251 678 251 678 383 678 c 0,6,7
 503 678 503 678 595 591.5 c 128,-1,8
 687 505 687 505 687 374 c 0,9,10
 687 234 687 234 595 149.5 c 128,-1,11
 503 65 503 65 383 65 c 0,0,1
EndSplineSet
Validated: 1
EndChar

StartChar: hyphen
Encoding: 45 45 381
Width: 488
Flags: W
LayerCount: 2
Fore
SplineSet
78 235 m 1,0,-1
 78 310 l 1,1,-1
 410 310 l 1,2,-1
 410 235 l 1,3,-1
 78 235 l 1,0,-1
EndSplineSet
Validated: 1
Substitution2: "'case' Case-Sensitive Forms in Latin lookup 20 subtable" hyphen.case
Substitution2: "'aalt' Access All Alternates in Latin lookup 0 subtable" hyphen.case
EndChar

StartChar: endash
Encoding: 8211 8211 382
Width: 568
Flags: W
LayerCount: 2
Fore
SplineSet
78 238 m 1,0,-1
 78 306 l 1,1,-1
 490 306 l 1,2,-1
 490 238 l 1,3,-1
 78 238 l 1,0,-1
EndSplineSet
Validated: 1
Substitution2: "'case' Case-Sensitive Forms in Latin lookup 20 subtable" endash.case
Substitution2: "'aalt' Access All Alternates in Latin lookup 0 subtable" endash.case
EndChar

StartChar: emdash
Encoding: 8212 8212 383
Width: 856
Flags: W
LayerCount: 2
Fore
SplineSet
78 238 m 1,0,-1
 78 306 l 1,1,-1
 778 306 l 1,2,-1
 778 238 l 1,3,-1
 78 238 l 1,0,-1
EndSplineSet
Validated: 1
Substitution2: "'case' Case-Sensitive Forms in Latin lookup 20 subtable" emdash.case
Substitution2: "'aalt' Access All Alternates in Latin lookup 0 subtable" emdash.case
EndChar

StartChar: hyphen.case
Encoding: 65659 -1 385
Width: 488
Flags: W
LayerCount: 2
Fore
SplineSet
78 323 m 1,0,-1
 78 398 l 1,1,-1
 410 398 l 1,2,-1
 410 323 l 1,3,-1
 78 323 l 1,0,-1
EndSplineSet
Validated: 1
EndChar

StartChar: endash.case
Encoding: 65660 -1 386
Width: 568
Flags: W
LayerCount: 2
Fore
SplineSet
78 326 m 1,0,-1
 78 394 l 1,1,-1
 490 394 l 1,2,-1
 490 326 l 1,3,-1
 78 326 l 1,0,-1
EndSplineSet
Validated: 1
EndChar

StartChar: emdash.case
Encoding: 65661 -1 387
Width: 856
Flags: W
LayerCount: 2
Fore
SplineSet
78 326 m 1,0,-1
 78 394 l 1,1,-1
 778 394 l 1,2,-1
 778 326 l 1,3,-1
 78 326 l 1,0,-1
EndSplineSet
Validated: 1
EndChar

StartChar: parenleft
Encoding: 40 40 388
Width: 397
Flags: W
LayerCount: 2
Fore
SplineSet
274 -110 m 1,0,1
 174 -16 174 -16 126.5 94.5 c 128,-1,2
 79 205 79 205 79 320 c 0,3,4
 79 433 79 433 127 544 c 128,-1,5
 175 655 175 655 274 750 c 1,6,-1
 349 750 l 1,7,8
 250 655 250 655 201 547.5 c 128,-1,9
 152 440 152 440 152 320 c 0,10,11
 152 199 152 199 202 91.5 c 128,-1,12
 252 -16 252 -16 349 -110 c 1,13,-1
 274 -110 l 1,0,1
EndSplineSet
Validated: 1
Substitution2: "'case' Case-Sensitive Forms in Latin lookup 20 subtable" parenleft.case
Substitution2: "'aalt' Access All Alternates in Latin lookup 0 subtable" parenleft.case
EndChar

StartChar: parenright
Encoding: 41 41 389
Width: 397
Flags: W
LayerCount: 2
Fore
SplineSet
124 754 m 1,0,1
 224 660 224 660 271.5 549.5 c 128,-1,2
 319 439 319 439 319 324 c 0,3,4
 319 211 319 211 271 99.5 c 128,-1,5
 223 -12 223 -12 124 -106 c 1,6,-1
 49 -106 l 1,7,8
 148 -12 148 -12 197 96 c 128,-1,9
 246 204 246 204 246 324 c 0,10,11
 246 445 246 445 195.5 552.5 c 128,-1,12
 145 660 145 660 49 754 c 1,13,-1
 124 754 l 1,0,1
EndSplineSet
Validated: 1
Substitution2: "'case' Case-Sensitive Forms in Latin lookup 20 subtable" parenright.case
Substitution2: "'aalt' Access All Alternates in Latin lookup 0 subtable" parenright.case
EndChar

StartChar: braceleft
Encoding: 123 123 390
Width: 397
Flags: W
LayerCount: 2
Fore
SplineSet
252 -108 m 2,0,1
 200 -108 200 -108 167.5 -87.5 c 128,-1,2
 135 -67 135 -67 124 -32 c 128,-1,3
 113 3 113 3 120 43 c 2,4,-1
 151 202 l 2,5,6
 161 249 161 249 144.5 269.5 c 128,-1,7
 128 290 128 290 85 290 c 2,8,-1
 39 290 l 1,9,-1
 39 352 l 1,10,-1
 85 352 l 2,11,12
 128 352 128 352 144.5 372.5 c 128,-1,13
 161 393 161 393 151 440 c 2,14,-1
 120 599 l 2,15,16
 113 640 113 640 124 674.5 c 128,-1,17
 135 709 135 709 167.5 729.5 c 128,-1,18
 200 750 200 750 252 750 c 2,19,-1
 339 750 l 1,20,-1
 339 687 l 1,21,-1
 257 687 l 2,22,23
 219 687 219 687 202 665.5 c 128,-1,24
 185 644 185 644 194 602 c 2,25,-1
 223 461 l 2,26,27
 236 401 236 401 218.5 368.5 c 128,-1,28
 201 336 201 336 163 321 c 1,29,30
 201 306 201 306 218.5 273.5 c 128,-1,31
 236 241 236 241 223 181 c 2,32,-1
 194 40 l 2,33,34
 185 -2 185 -2 202 -23.5 c 128,-1,35
 219 -45 219 -45 257 -45 c 2,36,-1
 339 -45 l 1,37,-1
 339 -108 l 1,38,-1
 252 -108 l 2,0,1
EndSplineSet
Validated: 33
Substitution2: "'case' Case-Sensitive Forms in Latin lookup 20 subtable" braceleft.case
Substitution2: "'aalt' Access All Alternates in Latin lookup 0 subtable" braceleft.case
EndChar

StartChar: braceright
Encoding: 125 125 391
Width: 397
Flags: W
LayerCount: 2
Fore
SplineSet
145 750 m 2,0,1
 198 750 198 750 230 729.5 c 128,-1,2
 262 709 262 709 274 674.5 c 128,-1,3
 286 640 286 640 277 599 c 2,4,-1
 246 440 l 2,5,6
 236 393 236 393 253 372.5 c 128,-1,7
 270 352 270 352 313 352 c 2,8,-1
 359 352 l 1,9,-1
 359 290 l 1,10,-1
 313 290 l 2,11,12
 270 290 270 290 253 269.5 c 128,-1,13
 236 249 236 249 246 202 c 2,14,-1
 277 43 l 2,15,16
 286 3 286 3 274 -32 c 128,-1,17
 262 -67 262 -67 230 -87.5 c 128,-1,18
 198 -108 198 -108 145 -108 c 2,19,-1
 59 -108 l 1,20,-1
 59 -45 l 1,21,-1
 140 -45 l 2,22,23
 180 -45 180 -45 196.5 -23.5 c 128,-1,24
 213 -2 213 -2 203 40 c 2,25,-1
 174 181 l 2,26,27
 162 241 162 241 179 273.5 c 128,-1,28
 196 306 196 306 234 321 c 1,29,30
 196 336 196 336 179 368.5 c 128,-1,31
 162 401 162 401 174 461 c 2,32,-1
 203 602 l 2,33,34
 213 644 213 644 196.5 665.5 c 128,-1,35
 180 687 180 687 140 687 c 2,36,-1
 59 687 l 1,37,-1
 59 750 l 1,38,-1
 145 750 l 2,0,1
EndSplineSet
Validated: 33
Substitution2: "'case' Case-Sensitive Forms in Latin lookup 20 subtable" braceright.case
Substitution2: "'aalt' Access All Alternates in Latin lookup 0 subtable" braceright.case
EndChar

StartChar: bracketleft
Encoding: 91 91 392
Width: 397
Flags: W
LayerCount: 2
Fore
SplineSet
89 -108 m 1,0,-1
 89 750 l 1,1,-1
 339 750 l 1,2,-1
 339 687 l 1,3,-1
 162 687 l 1,4,-1
 162 -45 l 1,5,-1
 339 -45 l 1,6,-1
 339 -108 l 1,7,-1
 89 -108 l 1,0,-1
EndSplineSet
Validated: 1
Substitution2: "'case' Case-Sensitive Forms in Latin lookup 20 subtable" bracketleft.case
Substitution2: "'aalt' Access All Alternates in Latin lookup 0 subtable" bracketleft.case
EndChar

StartChar: bracketright
Encoding: 93 93 393
Width: 397
Flags: W
LayerCount: 2
Fore
SplineSet
309 750 m 1,0,-1
 309 -108 l 1,1,-1
 59 -108 l 1,2,-1
 59 -45 l 1,3,-1
 236 -45 l 1,4,-1
 236 687 l 1,5,-1
 59 687 l 1,6,-1
 59 750 l 1,7,-1
 309 750 l 1,0,-1
EndSplineSet
Validated: 1
Substitution2: "'case' Case-Sensitive Forms in Latin lookup 20 subtable" bracketright.case
Substitution2: "'aalt' Access All Alternates in Latin lookup 0 subtable" bracketright.case
EndChar

StartChar: parenleft.case
Encoding: 65662 -1 394
Width: 397
Flags: W
LayerCount: 2
Fore
SplineSet
274 -40 m 1,0,1
 207 19 207 19 164 84.5 c 128,-1,2
 121 150 121 150 100 219.5 c 128,-1,3
 79 289 79 289 79 360 c 256,4,5
 79 431 79 431 100 500.5 c 128,-1,6
 121 570 121 570 164.5 635.5 c 128,-1,7
 208 701 208 701 274 760 c 1,8,-1
 349 760 l 1,9,10
 250 672 250 672 201 572 c 128,-1,11
 152 472 152 472 152 360 c 0,12,13
 152 247 152 247 202 147.5 c 128,-1,14
 252 48 252 48 349 -40 c 1,15,-1
 274 -40 l 1,0,1
EndSplineSet
Validated: 1
EndChar

StartChar: parenright.case
Encoding: 65663 -1 395
Width: 397
Flags: W
LayerCount: 2
Fore
SplineSet
124 760 m 1,0,1
 190 702 190 702 233 636.5 c 128,-1,2
 276 571 276 571 297.5 501 c 128,-1,3
 319 431 319 431 319 360 c 0,4,5
 319 290 319 290 297.5 220.5 c 128,-1,6
 276 151 276 151 233 85 c 128,-1,7
 190 19 190 19 124 -40 c 1,8,-1
 49 -40 l 1,9,10
 148 48 148 48 197 148.5 c 128,-1,11
 246 249 246 249 246 360 c 0,12,13
 246 473 246 473 195.5 572.5 c 128,-1,14
 145 672 145 672 49 760 c 1,15,-1
 124 760 l 1,0,1
EndSplineSet
Validated: 1
EndChar

StartChar: braceleft.case
Encoding: 65664 -1 396
Width: 397
Flags: W
LayerCount: 2
Fore
SplineSet
252 -40 m 2,0,1
 200 -40 200 -40 167 -19.5 c 128,-1,2
 134 1 134 1 122.5 36 c 128,-1,3
 111 71 111 71 120 111 c 2,4,-1
 151 241 l 2,5,6
 163 288 163 288 145.5 308.5 c 128,-1,7
 128 329 128 329 85 329 c 2,8,-1
 39 329 l 1,9,-1
 39 391 l 1,10,-1
 85 391 l 2,11,12
 128 391 128 391 145.5 411.5 c 128,-1,13
 163 432 163 432 151 479 c 2,14,-1
 120 609 l 2,15,16
 111 650 111 650 122.5 684.5 c 128,-1,17
 134 719 134 719 167 739.5 c 128,-1,18
 200 760 200 760 252 760 c 2,19,-1
 339 760 l 1,20,-1
 339 697 l 1,21,-1
 257 697 l 2,22,23
 219 697 219 697 201 675.5 c 128,-1,24
 183 654 183 654 194 612 c 2,25,-1
 223 500 l 2,26,27
 233 460 233 460 228 432.5 c 128,-1,28
 223 405 223 405 206 387.5 c 128,-1,29
 189 370 189 370 163 360 c 1,30,31
 189 350 189 350 206 332.5 c 128,-1,32
 223 315 223 315 228.5 287.5 c 128,-1,33
 234 260 234 260 223 220 c 2,34,-1
 194 108 l 2,35,36
 183 66 183 66 201 44.5 c 128,-1,37
 219 23 219 23 257 23 c 2,38,-1
 339 23 l 1,39,-1
 339 -40 l 1,40,-1
 252 -40 l 2,0,1
EndSplineSet
Validated: 33
EndChar

StartChar: braceright.case
Encoding: 65665 -1 397
Width: 397
Flags: W
LayerCount: 2
Fore
SplineSet
145 760 m 2,0,1
 198 760 198 760 230.5 739.5 c 128,-1,2
 263 719 263 719 275.5 684.5 c 128,-1,3
 288 650 288 650 277 609 c 2,4,-1
 246 479 l 2,5,6
 234 432 234 432 252 411.5 c 128,-1,7
 270 391 270 391 313 391 c 2,8,-1
 359 391 l 1,9,-1
 359 329 l 1,10,-1
 313 329 l 2,11,12
 270 329 270 329 252 308.5 c 128,-1,13
 234 288 234 288 246 241 c 2,14,-1
 277 111 l 2,15,16
 288 71 288 71 275.5 36 c 128,-1,17
 263 1 263 1 230.5 -19.5 c 128,-1,18
 198 -40 198 -40 145 -40 c 2,19,-1
 59 -40 l 1,20,-1
 59 23 l 1,21,-1
 140 23 l 2,22,23
 180 23 180 23 197.5 44.5 c 128,-1,24
 215 66 215 66 203 108 c 2,25,-1
 175 220 l 2,26,27
 164 260 164 260 169 287.5 c 128,-1,28
 174 315 174 315 191.5 332.5 c 128,-1,29
 209 350 209 350 234 360 c 1,30,31
 209 370 209 370 191.5 387.5 c 128,-1,32
 174 405 174 405 169 432.5 c 128,-1,33
 164 460 164 460 174 500 c 2,34,-1
 203 612 l 2,35,36
 215 654 215 654 197.5 675.5 c 128,-1,37
 180 697 180 697 140 697 c 2,38,-1
 59 697 l 1,39,-1
 59 760 l 1,40,-1
 145 760 l 2,0,1
EndSplineSet
Validated: 33
EndChar

StartChar: bracketleft.case
Encoding: 65666 -1 398
Width: 397
Flags: W
LayerCount: 2
Fore
SplineSet
89 -40 m 1,0,-1
 89 760 l 1,1,-1
 339 760 l 1,2,-1
 339 697 l 1,3,-1
 162 697 l 1,4,-1
 162 23 l 1,5,-1
 339 23 l 1,6,-1
 339 -40 l 1,7,-1
 89 -40 l 1,0,-1
EndSplineSet
Validated: 1
EndChar

StartChar: bracketright.case
Encoding: 65667 -1 399
Width: 397
Flags: W
LayerCount: 2
Fore
SplineSet
309 760 m 1,0,-1
 309 -40 l 1,1,-1
 59 -40 l 1,2,-1
 59 23 l 1,3,-1
 236 23 l 1,4,-1
 236 697 l 1,5,-1
 59 697 l 1,6,-1
 59 760 l 1,7,-1
 309 760 l 1,0,-1
EndSplineSet
Validated: 1
EndChar

StartChar: quoteleft
Encoding: 8216 8216 404
Width: 304
Flags: W
LayerCount: 2
Fore
SplineSet
195 508 m 5,0,-1
 152 508 l 4,1,-1
 93 508 l 1,2,-1
 172 720 l 1,3,-1
 243 720 l 1,4,-1
 195 508 l 5,0,-1
EndSplineSet
Validated: 1
Substitution2: "'ss01' Style Set 1 in Latin lookup 22 subtable" quoteleft.ss01
Substitution2: "'aalt' Access All Alternates in Latin lookup 0 subtable" quoteleft.ss01
EndChar

StartChar: quoteright
Encoding: 8217 8217 405
Width: 250
Flags: W
LayerCount: 2
Fore
SplineSet
147 508 m 1,0,-1
 76 508 l 1,1,-1
 125 720 l 1,2,-1
 226 720 l 1,3,-1
 147 508 l 1,0,-1
EndSplineSet
Validated: 1
Substitution2: "'ss01' Style Set 1 in Latin lookup 22 subtable" quoteright.ss01
Substitution2: "'aalt' Access All Alternates in Latin lookup 0 subtable" quoteright.ss01
EndChar

StartChar: guillemotright
Encoding: 187 187 407
Width: 484
Flags: W
LayerCount: 2
Fore
SplineSet
302 434 m 1,0,-1
 430 251 l 1,1,-1
 302 68 l 1,2,-1
 223 68 l 1,3,-1
 347 251 l 1,4,-1
 223 434 l 1,5,-1
 302 434 l 1,0,-1
143 434 m 1,6,-1
 272 251 l 1,7,-1
 143 68 l 1,8,-1
 64 68 l 1,9,-1
 188 251 l 1,10,-1
 64 434 l 1,11,-1
 143 434 l 1,6,-1
EndSplineSet
Validated: 1
EndChar

StartChar: guilsinglleft
Encoding: 8249 8249 408
Width: 325
Flags: W
LayerCount: 2
Fore
SplineSet
182 68 m 1,0,-1
 54 251 l 1,1,-1
 182 434 l 1,2,-1
 262 434 l 1,3,-1
 137 251 l 1,4,-1
 262 68 l 1,5,-1
 182 68 l 1,0,-1
EndSplineSet
Validated: 1
EndChar

StartChar: guilsinglright
Encoding: 8250 8250 409
Width: 325
Flags: W
LayerCount: 2
Fore
SplineSet
143 68 m 1,0,-1
 64 68 l 1,1,-1
 188 251 l 1,2,-1
 64 434 l 1,3,-1
 143 434 l 1,4,-1
 272 251 l 1,5,-1
 143 68 l 1,0,-1
EndSplineSet
Validated: 1
EndChar

StartChar: quotesingle
Encoding: 39 39 411
Width: 228
Flags: W
LayerCount: 2
Fore
SplineSet
97 495 m 1,0,-1
 74 622 l 2,1,2
 69 645 69 645 67 663.5 c 128,-1,3
 65 682 65 682 65 696 c 0,4,5
 65 712 65 712 71 724 c 128,-1,6
 77 736 77 736 88 743 c 128,-1,7
 99 750 99 750 114 750 c 256,8,9
 129 750 129 750 140 743 c 128,-1,10
 151 736 151 736 157 724 c 128,-1,11
 163 712 163 712 163 696 c 0,12,13
 163 682 163 682 161 663.5 c 128,-1,14
 159 645 159 645 154 622 c 2,15,-1
 130 495 l 1,16,-1
 97 495 l 1,0,-1
EndSplineSet
Validated: 1
EndChar

StartChar: quoteleft.ss01
Encoding: 65672 -1 416
Width: 260
Flags: W
LayerCount: 2
Fore
SplineSet
135 494 m 0,0,1
 110 494 110 494 92 513 c 128,-1,2
 74 532 74 532 74 577 c 0,3,4
 74 641 74 641 103 683 c 128,-1,5
 132 725 132 725 187 740 c 1,6,-1
 187 700 l 1,7,8
 154 690 154 690 137 666.5 c 128,-1,9
 120 643 120 643 120 595 c 1,10,-1
 96 592 l 1,11,12
 103 597 103 597 112 601 c 128,-1,13
 121 605 121 605 131 605 c 0,14,15
 158 605 158 605 175 589.5 c 128,-1,16
 192 574 192 574 192 550 c 0,17,18
 192 525 192 525 175.5 509.5 c 128,-1,19
 159 494 159 494 135 494 c 0,0,1
EndSplineSet
Validated: 5
EndChar

StartChar: quoteright.ss01
Encoding: 65673 -1 417
Width: 250
Flags: W
LayerCount: 2
Fore
SplineSet
69 513 m 1,0,-1
 69 553 l 1,1,2
 102 557 102 557 119 579 c 128,-1,3
 136 601 136 601 136 649 c 1,4,-1
 160 652 l 1,5,6
 153 647 153 647 144 643 c 128,-1,7
 135 639 135 639 125 639 c 0,8,9
 98 639 98 639 81.5 654.5 c 128,-1,10
 65 670 65 670 65 694 c 0,11,12
 65 719 65 719 81 734.5 c 128,-1,13
 97 750 97 750 121 750 c 0,14,15
 146 750 146 750 164 731 c 128,-1,16
 182 712 182 712 182 667 c 0,17,18
 182 603 182 603 153 562 c 128,-1,19
 124 521 124 521 69 513 c 1,0,-1
EndSplineSet
Validated: 5
EndChar

StartChar: less_hyphen.liga
Encoding: 65674 -1 418
Width: 825
GlyphClass: 3
LigCaretCntFixed: 1
Flags: W
LayerCount: 2
Fore
SplineSet
770 325 m 1,0,-1
 133 325 l 1,1,-1
 165 352 l 1,2,-1
 485 30 l 1,3,-1
 387 30 l 1,4,-1
 60 360 l 1,5,-1
 388 690 l 1,6,-1
 486 690 l 1,7,-1
 165 368 l 1,8,-1
 133 395 l 1,9,-1
 770 395 l 1,10,-1
 770 325 l 1,0,-1
EndSplineSet
Validated: 5
Ligature2: "'liga' Standard Ligatures in Latin lookup 21 subtable" less hyphen
LCarets2: 1 413
EndChar

StartChar: at
Encoding: 64 64 419
Width: 839
Flags: W
LayerCount: 2
Fore
SplineSet
423 -10 m 0,0,1
 310 -10 310 -10 226 32 c 128,-1,2
 142 74 142 74 95.5 149.5 c 128,-1,3
 49 225 49 225 49 327 c 0,4,5
 49 412 49 412 79 485.5 c 128,-1,6
 109 559 109 559 164.5 614 c 128,-1,7
 220 669 220 669 295.5 699.5 c 128,-1,8
 371 730 371 730 461 730 c 0,9,10
 559 730 559 730 633 692.5 c 128,-1,11
 707 655 707 655 749 587.5 c 128,-1,12
 791 520 791 520 791 433 c 0,13,14
 791 376 791 376 774.5 325 c 128,-1,15
 758 274 758 274 729 235 c 128,-1,16
 700 196 700 196 662 174 c 128,-1,17
 624 152 624 152 582 152 c 0,18,19
 551 152 551 152 529 166 c 128,-1,20
 507 180 507 180 500 208.5 c 128,-1,21
 493 237 493 237 504 276 c 1,22,-1
 510 244 l 1,23,24
 484 200 484 200 446.5 176 c 128,-1,25
 409 152 409 152 365 152 c 0,26,27
 300 152 300 152 259.5 198 c 128,-1,28
 219 244 219 244 219 319 c 0,29,30
 219 370 219 370 235 415.5 c 128,-1,31
 251 461 251 461 279.5 496 c 128,-1,32
 308 531 308 531 344.5 551 c 128,-1,33
 381 571 381 571 422 571 c 0,34,35
 480 571 480 571 515 537.5 c 128,-1,36
 550 504 550 504 548 448 c 1,37,-1
 536 448 l 1,38,-1
 564 554 l 1,39,-1
 640 554 l 1,40,-1
 570 281 l 2,41,42
 561 246 561 246 568 228 c 128,-1,43
 575 210 575 210 599 210 c 256,44,45
 623 210 623 210 645.5 228 c 128,-1,46
 668 246 668 246 686.5 276.5 c 128,-1,47
 705 307 705 307 715.5 346 c 128,-1,48
 726 385 726 385 726 427 c 0,49,50
 726 500 726 500 692.5 554.5 c 128,-1,51
 659 609 659 609 599 639.5 c 128,-1,52
 539 670 539 670 459 670 c 0,53,54
 383 670 383 670 319.5 644 c 128,-1,55
 256 618 256 618 210 571 c 128,-1,56
 164 524 164 524 138.5 462 c 128,-1,57
 113 400 113 400 113 329 c 0,58,59
 113 245 113 245 150 182.5 c 128,-1,60
 187 120 187 120 255.5 85 c 128,-1,61
 324 50 324 50 422 50 c 0,62,63
 476 50 476 50 530 63 c 128,-1,64
 584 76 584 76 629 99 c 1,65,-1
 653 47 l 1,66,67
 611 21 611 21 550.5 5.5 c 128,-1,68
 490 -10 490 -10 423 -10 c 0,0,1
389 217 m 0,69,70
 415 217 415 217 438.5 231.5 c 128,-1,71
 462 246 462 246 480.5 272 c 128,-1,72
 499 298 499 298 509.5 330.5 c 128,-1,73
 520 363 520 363 520 398 c 0,74,75
 520 447 520 447 495 476.5 c 128,-1,76
 470 506 470 506 428 506 c 0,77,78
 402 506 402 506 378.5 492.5 c 128,-1,79
 355 479 355 479 337 454 c 128,-1,80
 319 429 319 429 308.5 396.5 c 128,-1,81
 298 364 298 364 298 327 c 0,82,83
 298 276 298 276 323 246.5 c 128,-1,84
 348 217 348 217 389 217 c 0,69,70
EndSplineSet
Validated: 37
EndChar

StartChar: ampersand
Encoding: 65675 -1 420
Width: 729
Flags: W
LayerCount: 2
Fore
SplineSet
603 0 m 1,0,-1
 227 401 l 2,1,2
 195 435 195 435 175 463.5 c 128,-1,3
 155 492 155 492 145.5 518.5 c 128,-1,4
 136 545 136 545 136 573 c 0,5,6
 136 619 136 619 159.5 654 c 128,-1,7
 183 689 183 689 224 709.5 c 128,-1,8
 265 730 265 730 318 730 c 0,9,10
 369 730 369 730 410 711 c 128,-1,11
 451 692 451 692 475 657.5 c 128,-1,12
 499 623 499 623 499 575 c 0,13,14
 499 515 499 515 452.5 468 c 128,-1,15
 406 421 406 421 310 387 c 1,16,-1
 270 438 l 1,17,18
 346 459 346 459 384 492.5 c 128,-1,19
 422 526 422 526 422 571 c 0,20,21
 422 614 422 614 391 639 c 128,-1,22
 360 664 360 664 316 664 c 256,23,24
 272 664 272 664 243.5 640 c 128,-1,25
 215 616 215 616 215 572 c 0,26,27
 215 552 215 552 223 532 c 128,-1,28
 231 512 231 512 251 486.5 c 128,-1,29
 271 461 271 461 307 423 c 2,30,-1
 705 0 l 1,31,-1
 603 0 l 1,0,-1
300 -10 m 0,32,33
 224 -10 224 -10 166.5 16.5 c 128,-1,34
 109 43 109 43 77.5 91.5 c 128,-1,35
 46 140 46 140 46 205 c 0,36,37
 46 284 46 284 100.5 344 c 128,-1,38
 155 404 155 404 249 428 c 1,39,-1
 292 378 l 1,40,41
 237 365 237 365 200.5 341.5 c 128,-1,42
 164 318 164 318 145 286 c 128,-1,43
 126 254 126 254 126 212 c 0,44,45
 126 139 126 139 174 99 c 128,-1,46
 222 59 222 59 303 59 c 0,47,48
 364 59 364 59 410.5 80 c 128,-1,49
 457 101 457 101 490.5 143 c 128,-1,50
 524 185 524 185 541 246.5 c 128,-1,51
 558 308 558 308 558 388 c 1,52,-1
 636 388 l 1,53,54
 636 312 636 312 620 249 c 128,-1,55
 604 186 604 186 574 137.5 c 128,-1,56
 544 89 544 89 502 56.5 c 128,-1,57
 460 24 460 24 409 7 c 128,-1,58
 358 -10 358 -10 300 -10 c 0,32,33
EndSplineSet
Validated: 5
Substitution2: "'calt' Contextual Alternates in Latin lookup 32 subtable" ampersand.ss11
Substitution2: "'aalt' Access All Alternates in Latin lookup 0 subtable" ampersand.ss11
EndChar

StartChar: paragraph
Encoding: 182 182 421
Width: 685
Flags: W
LayerCount: 2
Fore
SplineSet
345 -130 m 1,0,-1
 345 326 l 1,1,-1
 236 326 l 2,2,3
 179 326 179 326 134.5 350.5 c 128,-1,4
 90 375 90 375 65 419 c 128,-1,5
 40 463 40 463 40 520 c 0,6,7
 40 579 40 579 65 624 c 128,-1,8
 90 669 90 669 135 694.5 c 128,-1,9
 180 720 180 720 239 720 c 2,10,-1
 601 720 l 1,11,-1
 601 -130 l 1,12,-1
 535 -130 l 1,13,-1
 535 657 l 1,14,-1
 410 657 l 1,15,-1
 410 -130 l 1,16,-1
 345 -130 l 1,0,-1
EndSplineSet
Validated: 1
EndChar

StartChar: section
Encoding: 167 167 422
Width: 478
Flags: W
LayerCount: 2
Fore
SplineSet
253 178 m 1,0,-1
 255 233 l 1,1,2
 305 233 305 233 333.5 255.5 c 128,-1,3
 362 278 362 278 362 315 c 0,4,5
 362 347 362 347 343.5 368.5 c 128,-1,6
 325 390 325 390 280 403 c 2,7,-1
 186 431 l 2,8,9
 131 447 131 447 100 486 c 128,-1,10
 69 525 69 525 69 584 c 0,11,12
 69 648 69 648 116 689 c 128,-1,13
 163 730 163 730 244 730 c 0,14,15
 324 730 324 730 373.5 690.5 c 128,-1,16
 423 651 423 651 429 579 c 1,17,-1
 354 579 l 1,18,19
 348 621 348 621 319 643 c 128,-1,20
 290 665 290 665 241 665 c 0,21,22
 195 665 195 665 169 644 c 128,-1,23
 143 623 143 623 143 589 c 0,24,25
 143 557 143 557 162 535 c 128,-1,26
 181 513 181 513 225 498 c 2,27,-1
 302 474 l 2,28,29
 368 454 368 454 402.5 414.5 c 128,-1,30
 437 375 437 375 437 314 c 0,31,32
 437 249 437 249 388 213.5 c 128,-1,33
 339 178 339 178 253 178 c 1,0,-1
234 -70 m 256,34,35
 154 -70 154 -70 105 -30 c 128,-1,36
 56 10 56 10 48 81 c 1,37,-1
 124 81 l 1,38,39
 130 39 130 39 159 17 c 128,-1,40
 188 -5 188 -5 237 -5 c 0,41,42
 284 -5 284 -5 309 16 c 128,-1,43
 334 37 334 37 334 71 c 0,44,45
 334 104 334 104 316 126 c 128,-1,46
 298 148 298 148 253 162 c 2,47,-1
 176 186 l 2,48,49
 109 207 109 207 75 246.5 c 128,-1,50
 41 286 41 286 41 346 c 0,51,52
 41 412 41 412 90 447.5 c 128,-1,53
 139 483 139 483 225 483 c 1,54,-1
 223 428 l 1,55,56
 173 428 173 428 144.5 405.5 c 128,-1,57
 116 383 116 383 116 346 c 0,58,59
 116 313 116 313 134.5 291.5 c 128,-1,60
 153 270 153 270 198 257 c 2,61,-1
 292 229 l 2,62,63
 347 213 347 213 378 174 c 128,-1,64
 409 135 409 135 409 77 c 0,65,66
 409 12 409 12 361.5 -29 c 128,-1,67
 314 -70 314 -70 234 -70 c 256,34,35
EndSplineSet
Validated: 5
EndChar

StartChar: copyright
Encoding: 169 169 423
Width: 848
Flags: W
LayerCount: 2
Fore
SplineSet
424 -15 m 256,0,1
 346 -15 346 -15 278 14 c 128,-1,2
 210 43 210 43 158.5 94.5 c 128,-1,3
 107 146 107 146 78 214 c 128,-1,4
 49 282 49 282 49 360 c 256,5,6
 49 438 49 438 78 506 c 128,-1,7
 107 574 107 574 158.5 625.5 c 128,-1,8
 210 677 210 677 278 706 c 128,-1,9
 346 735 346 735 424 735 c 256,10,11
 502 735 502 735 570 706 c 128,-1,12
 638 677 638 677 689.5 625.5 c 128,-1,13
 741 574 741 574 770 506 c 128,-1,14
 799 438 799 438 799 360 c 256,15,16
 799 282 799 282 770 214 c 128,-1,17
 741 146 741 146 689.5 94.5 c 128,-1,18
 638 43 638 43 570 14 c 128,-1,19
 502 -15 502 -15 424 -15 c 256,0,1
424 23 m 256,20,21
 493 23 493 23 554 49.5 c 128,-1,22
 615 76 615 76 661 122.5 c 128,-1,23
 707 169 707 169 733 230 c 128,-1,24
 759 291 759 291 759 360 c 256,25,26
 759 429 759 429 733 490 c 128,-1,27
 707 551 707 551 661 597.5 c 128,-1,28
 615 644 615 644 554 670.5 c 128,-1,29
 493 697 493 697 424 697 c 256,30,31
 355 697 355 697 294 670.5 c 128,-1,32
 233 644 233 644 187 597.5 c 128,-1,33
 141 551 141 551 115 490 c 128,-1,34
 89 429 89 429 89 360 c 256,35,36
 89 291 89 291 115 230 c 128,-1,37
 141 169 141 169 187 122.5 c 128,-1,38
 233 76 233 76 294 49.5 c 128,-1,39
 355 23 355 23 424 23 c 256,20,21
426 140 m 0,40,41
 367 140 367 140 321 168.5 c 128,-1,42
 275 197 275 197 249 246.5 c 128,-1,43
 223 296 223 296 223 360 c 256,44,45
 223 424 223 424 249 473.5 c 128,-1,46
 275 523 275 523 321 551.5 c 128,-1,47
 367 580 367 580 425 580 c 0,48,49
 497 580 497 580 546.5 536.5 c 128,-1,50
 596 493 596 493 606 422 c 1,51,-1
 557 422 l 1,52,53
 550 475 550 475 515 505.5 c 128,-1,54
 480 536 480 536 426 536 c 0,55,56
 357 536 357 536 315 487 c 128,-1,57
 273 438 273 438 273 360 c 0,58,59
 273 281 273 281 315 232.5 c 128,-1,60
 357 184 357 184 425 184 c 0,61,62
 481 184 481 184 516 215 c 128,-1,63
 551 246 551 246 558 298 c 1,64,-1
 607 298 l 1,65,66
 597 226 597 226 548 183 c 128,-1,67
 499 140 499 140 426 140 c 0,40,41
EndSplineSet
Validated: 1
EndChar

StartChar: registered
Encoding: 174 174 424
Width: 848
Flags: W
LayerCount: 2
Fore
SplineSet
424 -15 m 256,0,1
 346 -15 346 -15 278 14 c 128,-1,2
 210 43 210 43 158.5 94.5 c 128,-1,3
 107 146 107 146 78 214 c 128,-1,4
 49 282 49 282 49 360 c 256,5,6
 49 438 49 438 78 506 c 128,-1,7
 107 574 107 574 158.5 625.5 c 128,-1,8
 210 677 210 677 278 706 c 128,-1,9
 346 735 346 735 424 735 c 256,10,11
 502 735 502 735 570 706 c 128,-1,12
 638 677 638 677 689.5 625.5 c 128,-1,13
 741 574 741 574 770 506 c 128,-1,14
 799 438 799 438 799 360 c 256,15,16
 799 282 799 282 770 214 c 128,-1,17
 741 146 741 146 689.5 94.5 c 128,-1,18
 638 43 638 43 570 14 c 128,-1,19
 502 -15 502 -15 424 -15 c 256,0,1
424 23 m 256,20,21
 493 23 493 23 554 49.5 c 128,-1,22
 615 76 615 76 661 122.5 c 128,-1,23
 707 169 707 169 733 230 c 128,-1,24
 759 291 759 291 759 360 c 256,25,26
 759 429 759 429 733 490 c 128,-1,27
 707 551 707 551 661 597.5 c 128,-1,28
 615 644 615 644 554 670.5 c 128,-1,29
 493 697 493 697 424 697 c 256,30,31
 355 697 355 697 294 670.5 c 128,-1,32
 233 644 233 644 187 597.5 c 128,-1,33
 141 551 141 551 115 490 c 128,-1,34
 89 429 89 429 89 360 c 256,35,36
 89 291 89 291 115 230 c 128,-1,37
 141 169 141 169 187 122.5 c 128,-1,38
 233 76 233 76 294 49.5 c 128,-1,39
 355 23 355 23 424 23 c 256,20,21
284 145 m 1,40,-1
 284 575 l 1,41,-1
 443 575 l 2,42,43
 510 575 510 575 549 543.5 c 128,-1,44
 588 512 588 512 588 458 c 0,45,46
 588 370 588 370 473 345 c 1,47,-1
 479 361 l 1,48,49
 526 363 526 363 553.5 337.5 c 128,-1,50
 581 312 581 312 581 267 c 2,51,-1
 581 196 l 2,52,53
 581 185 581 185 582 172.5 c 128,-1,54
 583 160 583 160 586 145 c 1,55,-1
 536 145 l 1,56,57
 534 154 534 154 533 167 c 128,-1,58
 532 180 532 180 532 196 c 2,59,-1
 532 257 l 2,60,61
 532 296 532 296 509.5 316.5 c 128,-1,62
 487 337 487 337 446 337 c 2,63,-1
 320 337 l 1,64,-1
 320 377 l 1,65,-1
 441 377 l 2,66,67
 488 377 488 377 513.5 398 c 128,-1,68
 539 419 539 419 539 456 c 256,69,70
 539 493 539 493 513.5 512.5 c 128,-1,71
 488 532 488 532 441 532 c 2,72,-1
 333 532 l 1,73,-1
 333 145 l 1,74,-1
 284 145 l 1,40,-1
EndSplineSet
Validated: 37
EndChar

StartChar: trademark
Encoding: 8482 8482 425
Width: 820
Flags: W
LayerCount: 2
Fore
SplineSet
172 360 m 1,0,-1
 172 707 l 1,1,-1
 236 707 l 1,2,-1
 236 360 l 1,3,-1
 172 360 l 1,0,-1
59 665 m 1,4,-1
 59 720 l 1,5,-1
 350 720 l 1,6,-1
 350 665 l 1,7,-1
 59 665 l 1,4,-1
387 360 m 1,8,-1
 387 720 l 1,9,-1
 483 720 l 1,10,-1
 592 374 l 1,11,-1
 555 374 l 1,12,-1
 664 720 l 1,13,-1
 761 720 l 1,14,-1
 761 360 l 1,15,-1
 697 360 l 1,16,-1
 697 696 l 1,17,-1
 708 696 l 1,18,-1
 606 360 l 1,19,-1
 539 360 l 1,20,-1
 437 693 l 1,21,-1
 447 693 l 1,22,-1
 447 360 l 1,23,-1
 387 360 l 1,8,-1
EndSplineSet
Validated: 5
EndChar

StartChar: degree
Encoding: 176 176 426
Width: 386
Flags: W
LayerCount: 2
Fore
SplineSet
194 449 m 0,0,1
 154 449 154 449 121 468.5 c 128,-1,2
 88 488 88 488 69 521 c 128,-1,3
 50 554 50 554 50 593 c 256,4,5
 50 632 50 632 69 664.5 c 128,-1,6
 88 697 88 697 121 716 c 128,-1,7
 154 735 154 735 194 735 c 0,8,9
 235 735 235 735 267 716 c 128,-1,10
 299 697 299 697 317.5 664.5 c 128,-1,11
 336 632 336 632 336 593 c 256,12,13
 336 554 336 554 317.5 521 c 128,-1,14
 299 488 299 488 267 468.5 c 128,-1,15
 235 449 235 449 194 449 c 0,0,1
194 498 m 0,16,17
 233 498 233 498 259.5 525.5 c 128,-1,18
 286 553 286 553 286 593 c 0,19,20
 286 632 286 632 259.5 659 c 128,-1,21
 233 686 233 686 194 686 c 0,22,23
 153 686 153 686 126.5 659 c 128,-1,24
 100 632 100 632 100 593 c 0,25,26
 100 553 100 553 126.5 525.5 c 128,-1,27
 153 498 153 498 194 498 c 0,16,17
EndSplineSet
Validated: 1
EndChar

StartChar: bar
Encoding: 124 124 427
Width: 237
Flags: W
LayerCount: 2
Fore
SplineSet
84 -130 m 1,0,-1
 84 790 l 1,1,-1
 153 790 l 1,2,-1
 153 -130 l 1,3,-1
 84 -130 l 1,0,-1
EndSplineSet
Validated: 1
EndChar

StartChar: ampersand.ss11
Encoding: 38 38 428
Width: 709
Flags: W
LayerCount: 2
Fore
SplineSet
255 0 m 2,0,1
 190 0 190 0 141.5 24 c 128,-1,2
 93 48 93 48 65.5 91.5 c 128,-1,3
 38 135 38 135 38 193 c 0,4,5
 38 250 38 250 63 294.5 c 128,-1,6
 88 339 88 339 131.5 364.5 c 128,-1,7
 175 390 175 390 230 390 c 1,8,-1
 234 369 l 1,9,10
 187 369 187 369 149.5 391.5 c 128,-1,11
 112 414 112 414 89.5 454 c 128,-1,12
 67 494 67 494 67 545 c 0,13,14
 67 626 67 626 128 678 c 128,-1,15
 189 730 189 730 314 730 c 0,16,17
 350 730 350 730 387.5 725.5 c 128,-1,18
 425 721 425 721 449 713 c 1,19,-1
 449 647 l 1,20,21
 426 655 426 655 388.5 659 c 128,-1,22
 351 663 351 663 317 663 c 0,23,24
 227 663 227 663 187.5 629 c 128,-1,25
 148 595 148 595 148 537 c 0,26,27
 148 476 148 476 185 443 c 128,-1,28
 222 410 222 410 288 410 c 2,29,-1
 687 410 l 1,30,-1
 687 345 l 1,31,-1
 268 345 l 2,32,33
 201 345 201 345 161 305.5 c 128,-1,34
 121 266 121 266 121 201 c 0,35,36
 121 139 121 139 158.5 103 c 128,-1,37
 196 67 196 67 261 67 c 2,38,-1
 507 67 l 1,39,-1
 507 0 l 1,40,-1
 255 0 l 2,0,1
466 0 m 1,41,-1
 466 523 l 1,42,-1
 547 555 l 1,43,-1
 547 0 l 1,44,-1
 466 0 l 1,41,-1
EndSplineSet
Validated: 5
EndChar

StartChar: cent
Encoding: 162 162 429
Width: 514
GlyphClass: 2
Flags: W
AnchorPoint: "Anchor-2" 269 0 basechar 0
AnchorPoint: "Anchor-0" 273 510 basechar 0
LayerCount: 2
Fore
SplineSet
238 482 m 1,0,-1
 238 616 l 1,1,-1
 302 616 l 1,2,-1
 302 482 l 1,3,-1
 238 482 l 1,0,-1
302 20 m 1,4,-1
 302 -109 l 1,5,-1
 238 -109 l 1,6,-1
 238 20 l 1,7,-1
 302 20 l 1,4,-1
272 -10 m 0,8,9
 204 -10 204 -10 152 24 c 128,-1,10
 100 58 100 58 70 118.5 c 128,-1,11
 40 179 40 179 40 257 c 256,12,13
 40 335 40 335 70 394 c 128,-1,14
 100 453 100 453 152.5 486.5 c 128,-1,15
 205 520 205 520 272 520 c 0,16,17
 327 520 327 520 371 498 c 128,-1,18
 415 476 415 476 443 435 c 128,-1,19
 471 394 471 394 478 339 c 1,20,-1
 405 339 l 1,21,22
 396 390 396 390 362 421.5 c 128,-1,23
 328 453 328 453 273 453 c 0,24,25
 226 453 226 453 192 429 c 128,-1,26
 158 405 158 405 139 361 c 128,-1,27
 120 317 120 317 120 257 c 256,28,29
 120 197 120 197 139 152 c 128,-1,30
 158 107 158 107 192.5 82 c 128,-1,31
 227 57 227 57 274 57 c 0,32,33
 327 57 327 57 362 88.5 c 128,-1,34
 397 120 397 120 406 170 c 1,35,-1
 479 170 l 1,36,37
 471 117 471 117 442 76 c 128,-1,38
 413 35 413 35 369.5 12.5 c 128,-1,39
 326 -10 326 -10 272 -10 c 0,8,9
EndSplineSet
Validated: 5
Substitution2: "'ss12' Style Set 12 in Latin lookup 33 subtable" cent.ss12
Substitution2: "'aalt' Access All Alternates in Latin lookup 0 subtable" cent.ss12
EndChar

StartChar: dollar
Encoding: 36 36 430
Width: 583
GlyphClass: 2
Flags: W
AnchorPoint: "Anchor-2" 301 0 basechar 0
AnchorPoint: "Anchor-0" 301 720 basechar 0
LayerCount: 2
Fore
SplineSet
266 696 m 1,0,-1
 266 830 l 1,1,-1
 331 830 l 1,2,-1
 331 696 l 1,3,-1
 266 696 l 1,0,-1
331 20 m 1,4,-1
 331 -109 l 1,5,-1
 266 -109 l 1,6,-1
 266 20 l 1,7,-1
 331 20 l 1,4,-1
316 -9 m 0,8,9
 195 -9 195 -9 123.5 53 c 128,-1,10
 52 115 52 115 41 230 c 1,11,-1
 119 230 l 1,12,13
 129 147 129 147 178.5 104.5 c 128,-1,14
 228 62 228 62 316 62 c 0,15,16
 390 62 390 62 427.5 91 c 128,-1,17
 465 120 465 120 465 177 c 0,18,19
 465 225 465 225 439 254.5 c 128,-1,20
 413 284 413 284 359 305 c 2,21,-1
 241 351 l 2,22,23
 155 384 155 384 113 430 c 128,-1,24
 71 476 71 476 71 544 c 0,25,26
 71 601 71 601 99 642.5 c 128,-1,27
 127 684 127 684 178 707.5 c 128,-1,28
 229 731 229 731 296 731 c 0,29,30
 401 731 401 731 463 674.5 c 128,-1,31
 525 618 525 618 534 514 c 1,32,-1
 456 514 l 1,33,34
 444 590 444 590 405.5 625 c 128,-1,35
 367 660 367 660 294 660 c 0,36,37
 226 660 226 660 188 631.5 c 128,-1,38
 150 603 150 603 150 551 c 0,39,40
 150 507 150 507 176.5 479 c 128,-1,41
 203 451 203 451 260 430 c 2,42,-1
 384 381 l 2,43,44
 464 351 464 351 503.5 301 c 128,-1,45
 543 251 543 251 543 178 c 0,46,47
 543 89 543 89 484 40 c 128,-1,48
 425 -9 425 -9 316 -9 c 0,8,9
EndSplineSet
Validated: 5
Substitution2: "'ss12' Style Set 12 in Latin lookup 33 subtable" dollar.ss12
Substitution2: "'aalt' Access All Alternates in Latin lookup 0 subtable" dollar.ss12
EndChar

StartChar: Euro
Encoding: 8364 8364 431
Width: 672
Flags: W
LayerCount: 2
Fore
SplineSet
385 -10 m 0,0,1
 320 -10 320 -10 266 17 c 128,-1,2
 212 44 212 44 172 93.5 c 128,-1,3
 132 143 132 143 109.5 210.5 c 128,-1,4
 87 278 87 278 87 360 c 256,5,6
 87 442 87 442 109.5 509.5 c 128,-1,7
 132 577 132 577 171.5 626.5 c 128,-1,8
 211 676 211 676 264.5 703 c 128,-1,9
 318 730 318 730 382 730 c 0,10,11
 444 730 444 730 494.5 707.5 c 128,-1,12
 545 685 545 685 580 643.5 c 128,-1,13
 615 602 615 602 626 545 c 1,14,-1
 542 545 l 1,15,16
 532 598 532 598 489 627.5 c 128,-1,17
 446 657 446 657 385 657 c 0,18,19
 321 657 321 657 272 620 c 128,-1,20
 223 583 223 583 196.5 516.5 c 128,-1,21
 170 450 170 450 170 360 c 0,22,23
 170 271 170 271 197 204 c 128,-1,24
 224 137 224 137 272.5 100 c 128,-1,25
 321 63 321 63 384 63 c 0,26,27
 446 63 446 63 489.5 92.5 c 128,-1,28
 533 122 533 122 543 175 c 1,29,-1
 628 175 l 1,30,31
 616 117 616 117 582 76 c 128,-1,32
 548 35 548 35 497 12.5 c 128,-1,33
 446 -10 446 -10 385 -10 c 0,0,1
0 401 m 1,34,-1
 14 468 l 1,35,-1
 483 468 l 1,36,-1
 470 401 l 1,37,-1
 0 401 l 1,34,-1
0 255 m 1,38,-1
 14 321 l 1,39,-1
 457 321 l 1,40,-1
 443 255 l 1,41,-1
 0 255 l 1,38,-1
EndSplineSet
Validated: 5
EndChar

StartChar: sterling
Encoding: 163 163 432
Width: 566
Flags: W
LayerCount: 2
Fore
SplineSet
53 0 m 1,0,-1
 53 71 l 1,1,2
 98 142 98 142 115.5 192 c 128,-1,3
 133 242 133 242 133 279 c 0,4,5
 133 315 133 315 122 343.5 c 128,-1,6
 111 372 111 372 96 399 c 128,-1,7
 81 426 81 426 70 457.5 c 128,-1,8
 59 489 59 489 59 533 c 0,9,10
 59 591 59 591 84.5 636 c 128,-1,11
 110 681 110 681 160 705.5 c 128,-1,12
 210 730 210 730 282 730 c 0,13,14
 353 730 353 730 404 705 c 128,-1,15
 455 680 455 680 484 635 c 128,-1,16
 513 590 513 590 518 531 c 1,17,-1
 439 531 l 1,18,19
 431 595 431 595 390 627 c 128,-1,20
 349 659 349 659 285 659 c 0,21,22
 213 659 213 659 175.5 623.5 c 128,-1,23
 138 588 138 588 138 529 c 0,24,25
 138 495 138 495 148.5 466.5 c 128,-1,26
 159 438 159 438 173 410.5 c 128,-1,27
 187 383 187 383 197.5 352.5 c 128,-1,28
 208 322 208 322 208 284 c 0,29,30
 208 239 208 239 185.5 179 c 128,-1,31
 163 119 163 119 102 36 c 1,32,-1
 99 71 l 1,33,-1
 498 71 l 1,34,-1
 498 0 l 1,35,-1
 53 0 l 1,0,-1
20 310 m 1,36,-1
 20 376 l 1,37,-1
 426 376 l 1,38,-1
 426 310 l 1,39,-1
 20 310 l 1,36,-1
EndSplineSet
Validated: 5
EndChar

StartChar: yen
Encoding: 165 165 433
Width: 591
Flags: W
LayerCount: 2
Fore
SplineSet
255 0 m 1,0,-1
 255 327 l 1,1,-1
 23 720 l 1,2,-1
 120 720 l 1,3,-1
 318 375 l 1,4,-1
 281 375 l 1,5,-1
 479 720 l 1,6,-1
 568 720 l 1,7,-1
 336 327 l 1,8,-1
 336 0 l 1,9,-1
 255 0 l 1,0,-1
49 255 m 1,10,-1
 49 321 l 1,11,-1
 542 321 l 1,12,-1
 542 255 l 1,13,-1
 49 255 l 1,10,-1
251 401 m 1,14,-1
 49 401 l 1,15,-1
 49 468 l 1,16,-1
 216 468 l 1,17,-1
 251 401 l 1,14,-1
389 468 m 1,18,-1
 542 468 l 1,19,-1
 542 401 l 1,20,-1
 348 401 l 1,21,-1
 389 468 l 1,18,-1
EndSplineSet
Validated: 5
EndChar

StartChar: cent.ss12
Encoding: 65676 -1 434
Width: 514
Flags: W
LayerCount: 2
Fore
SplineSet
272 -10 m 0,0,1
 204 -10 204 -10 152 24 c 128,-1,2
 100 58 100 58 70 118.5 c 128,-1,3
 40 179 40 179 40 257 c 256,4,5
 40 335 40 335 70 394 c 128,-1,6
 100 453 100 453 152.5 486.5 c 128,-1,7
 205 520 205 520 272 520 c 0,8,9
 327 520 327 520 371 498 c 128,-1,10
 415 476 415 476 443 435 c 128,-1,11
 471 394 471 394 478 339 c 1,12,-1
 406 339 l 1,13,14
 397 391 397 391 363 422.5 c 128,-1,15
 329 454 329 454 273 454 c 0,16,17
 203 454 203 454 161 401 c 128,-1,18
 119 348 119 348 119 257 c 0,19,20
 119 167 119 167 161 111.5 c 128,-1,21
 203 56 203 56 274 56 c 0,22,23
 327 56 327 56 362.5 87.5 c 128,-1,24
 398 119 398 119 407 170 c 1,25,-1
 479 170 l 1,26,27
 471 117 471 117 442 76 c 128,-1,28
 413 35 413 35 369.5 12.5 c 128,-1,29
 326 -10 326 -10 272 -10 c 0,0,1
238 -109 m 1,30,-1
 238 14 l 1,31,-1
 238 35 l 1,32,-1
 238 474 l 1,33,-1
 238 497 l 1,34,-1
 238 616 l 1,35,-1
 302 616 l 1,36,-1
 302 494 l 1,37,-1
 301 473 l 1,38,-1
 301 35 l 1,39,-1
 302 18 l 1,40,-1
 302 -109 l 1,41,-1
 238 -109 l 1,30,-1
EndSplineSet
Validated: 5
EndChar

StartChar: dollar.ss12
Encoding: 65677 -1 435
Width: 583
Flags: W
LayerCount: 2
Fore
SplineSet
316 -9 m 0,0,1
 194 -9 194 -9 123 53 c 128,-1,2
 52 115 52 115 40 230 c 1,3,-1
 118 230 l 1,4,5
 128 147 128 147 177.5 104 c 128,-1,6
 227 61 227 61 315 61 c 0,7,8
 390 61 390 61 427.5 90.5 c 128,-1,9
 465 120 465 120 465 177 c 0,10,11
 465 225 465 225 439 254.5 c 128,-1,12
 413 284 413 284 358 305 c 2,13,-1
 240 351 l 2,14,15
 154 384 154 384 112.5 430 c 128,-1,16
 71 476 71 476 71 544 c 0,17,18
 71 601 71 601 99 642.5 c 128,-1,19
 127 684 127 684 177.5 707.5 c 128,-1,20
 228 731 228 731 296 731 c 0,21,22
 400 731 400 731 462.5 674.5 c 128,-1,23
 525 618 525 618 533 514 c 1,24,-1
 456 514 l 1,25,26
 444 590 444 590 405.5 625.5 c 128,-1,27
 367 661 367 661 294 661 c 0,28,29
 225 661 225 661 187 632.5 c 128,-1,30
 149 604 149 604 149 551 c 0,31,32
 149 507 149 507 176 479 c 128,-1,33
 203 451 203 451 259 430 c 2,34,-1
 384 381 l 2,35,36
 463 351 463 351 503 301 c 128,-1,37
 543 251 543 251 543 178 c 0,38,39
 543 89 543 89 483.5 40 c 128,-1,40
 424 -9 424 -9 316 -9 c 0,0,1
267 -109 m 1,41,-1
 267 14 l 1,42,-1
 268 35 l 1,43,-1
 268 688 l 1,44,-1
 267 711 l 1,45,-1
 267 830 l 1,46,-1
 331 830 l 1,47,-1
 331 708 l 1,48,-1
 331 687 l 1,49,-1
 331 35 l 1,50,-1
 331 18 l 1,51,-1
 331 -109 l 1,52,-1
 267 -109 l 1,41,-1
EndSplineSet
Validated: 5
EndChar

StartChar: plus
Encoding: 43 43 436
Width: 531
Flags: W
LayerCount: 2
Fore
SplineSet
232 153 m 1,0,-1
 232 590 l 1,1,-1
 300 590 l 1,2,-1
 300 153 l 1,3,-1
 232 153 l 1,0,-1
60 338 m 1,4,-1
 60 404 l 1,5,-1
 471 404 l 1,6,-1
 471 338 l 1,7,-1
 60 338 l 1,4,-1
EndSplineSet
Validated: 5
Substitution2: "'tnum' Tabular Numbers in Latin lookup 19 subtable" plus.tf
Substitution2: "'aalt' Access All Alternates in Latin lookup 0 subtable" plus.tf
EndChar

StartChar: minus
Encoding: 8722 8722 437
Width: 531
Flags: W
LayerCount: 2
Fore
SplineSet
60 338 m 1,0,-1
 60 404 l 1,1,-1
 471 404 l 1,2,-1
 471 338 l 1,3,-1
 60 338 l 1,0,-1
EndSplineSet
Validated: 1
Substitution2: "'tnum' Tabular Numbers in Latin lookup 19 subtable" minus.tf
Substitution2: "'aalt' Access All Alternates in Latin lookup 0 subtable" minus.tf
EndChar

StartChar: multiply
Encoding: 215 215 438
Width: 531
Flags: W
LayerCount: 2
Fore
SplineSet
416 174 m 1,0,-1
 68 522 l 1,1,-1
 115 569 l 1,2,-1
 463 221 l 1,3,-1
 416 174 l 1,0,-1
115 174 m 1,4,-1
 68 221 l 1,5,-1
 416 569 l 1,6,-1
 463 522 l 1,7,-1
 115 174 l 1,4,-1
EndSplineSet
Validated: 5
Substitution2: "'tnum' Tabular Numbers in Latin lookup 19 subtable" multiply.tf
Substitution2: "'aalt' Access All Alternates in Latin lookup 0 subtable" multiply.tf
EndChar

StartChar: divide
Encoding: 247 247 439
Width: 531
Flags: W
LayerCount: 2
Fore
SplineSet
60 338 m 1,0,-1
 60 404 l 1,1,-1
 471 404 l 1,2,-1
 471 338 l 1,3,-1
 60 338 l 1,0,-1
266 481 m 0,4,5
 241 481 241 481 225 496.5 c 128,-1,6
 209 512 209 512 209 538 c 0,7,8
 209 563 209 563 225 578.5 c 128,-1,9
 241 594 241 594 266 594 c 0,10,11
 289 594 289 594 305.5 578.5 c 128,-1,12
 322 563 322 563 322 538 c 0,13,14
 322 512 322 512 305.5 496.5 c 128,-1,15
 289 481 289 481 266 481 c 0,4,5
266 148 m 0,16,17
 241 148 241 148 225 163.5 c 128,-1,18
 209 179 209 179 209 205 c 0,19,20
 209 230 209 230 225 246 c 128,-1,21
 241 262 241 262 266 262 c 0,22,23
 289 262 289 262 305.5 246 c 128,-1,24
 322 230 322 230 322 205 c 0,25,26
 322 179 322 179 305.5 163.5 c 128,-1,27
 289 148 289 148 266 148 c 0,16,17
EndSplineSet
Validated: 1
Substitution2: "'tnum' Tabular Numbers in Latin lookup 19 subtable" divide.tf
Substitution2: "'aalt' Access All Alternates in Latin lookup 0 subtable" divide.tf
EndChar

StartChar: equal
Encoding: 61 61 440
Width: 531
Flags: W
LayerCount: 2
Fore
SplineSet
60 438 m 1,0,-1
 60 504 l 1,1,-1
 471 504 l 1,2,-1
 471 438 l 1,3,-1
 60 438 l 1,0,-1
60 238 m 1,4,-1
 60 304 l 1,5,-1
 471 304 l 1,6,-1
 471 238 l 1,7,-1
 60 238 l 1,4,-1
EndSplineSet
Validated: 1
Substitution2: "'tnum' Tabular Numbers in Latin lookup 19 subtable" equal.tf
Substitution2: "'aalt' Access All Alternates in Latin lookup 0 subtable" equal.tf
EndChar

StartChar: greater
Encoding: 62 62 441
Width: 531
Flags: W
LayerCount: 2
Fore
SplineSet
60 173 m 1,0,-1
 60 244 l 1,1,-1
 423 383 l 1,2,-1
 423 358 l 1,3,-1
 60 488 l 1,4,-1
 60 559 l 1,5,-1
 471 409 l 1,6,-1
 471 333 l 1,7,-1
 60 173 l 1,0,-1
EndSplineSet
Validated: 5
Substitution2: "'tnum' Tabular Numbers in Latin lookup 19 subtable" greater.tf
Substitution2: "'aalt' Access All Alternates in Latin lookup 0 subtable" greater.tf
EndChar

StartChar: less
Encoding: 60 60 442
Width: 531
Flags: W
LayerCount: 2
Fore
SplineSet
471 569 m 1,0,-1
 471 498 l 1,1,-1
 108 359 l 1,2,-1
 108 384 l 1,3,-1
 471 254 l 1,4,-1
 471 183 l 1,5,-1
 60 333 l 1,6,-1
 60 409 l 1,7,-1
 471 569 l 1,0,-1
EndSplineSet
Validated: 5
Substitution2: "'tnum' Tabular Numbers in Latin lookup 19 subtable" less.tf
Substitution2: "'aalt' Access All Alternates in Latin lookup 0 subtable" less.tf
EndChar

StartChar: asciitilde
Encoding: 126 126 443
Width: 531
Flags: W
LayerCount: 2
Fore
SplineSet
379 297 m 0,0,1
 416 297 416 297 441.5 309.5 c 128,-1,2
 467 322 467 322 483 347 c 128,-1,3
 499 372 499 372 504 408 c 1,4,-1
 450 408 l 1,5,6
 445 382 445 382 428.5 369.5 c 128,-1,7
 412 357 412 357 387 357 c 0,8,9
 361 357 361 357 334 366 c 128,-1,10
 307 375 307 375 278.5 387.5 c 128,-1,11
 250 400 250 400 218 409 c 128,-1,12
 186 418 186 418 151 418 c 0,13,14
 115 418 115 418 89.5 405.5 c 128,-1,15
 64 393 64 393 48.5 368 c 128,-1,16
 33 343 33 343 27 307 c 1,17,-1
 82 307 l 1,18,19
 87 334 87 334 103.5 346 c 128,-1,20
 120 358 120 358 144 358 c 0,21,22
 172 358 172 358 198.5 349 c 128,-1,23
 225 340 225 340 253 327.5 c 128,-1,24
 281 315 281 315 312 306 c 128,-1,25
 343 297 343 297 379 297 c 0,0,1
EndSplineSet
Validated: 9
EndChar

StartChar: asciicircum
Encoding: 94 94 444
Width: 531
Flags: W
LayerCount: 2
Fore
SplineSet
142 491 m 1,0,-1
 79 491 l 1,1,-1
 228 740 l 1,2,-1
 303 740 l 1,3,-1
 452 491 l 1,4,-1
 390 491 l 1,5,-1
 246 699 l 1,6,-1
 285 699 l 1,7,-1
 142 491 l 1,0,-1
EndSplineSet
Validated: 5
EndChar

StartChar: percent
Encoding: 37 37 445
Width: 765
Flags: W
LayerCount: 2
Fore
SplineSet
80 0 m 1,0,-1
 609 720 l 1,1,-1
 690 720 l 1,2,-1
 161 0 l 1,3,-1
 80 0 l 1,0,-1
571 -10 m 0,4,5
 530 -10 530 -10 494 10 c 128,-1,6
 458 30 458 30 435.5 70.5 c 128,-1,7
 413 111 413 111 413 174 c 0,8,9
 413 236 413 236 435 276.5 c 128,-1,10
 457 317 457 317 493 337 c 128,-1,11
 529 357 529 357 571 357 c 0,12,13
 615 357 615 357 651.5 337 c 128,-1,14
 688 317 688 317 709.5 276.5 c 128,-1,15
 731 236 731 236 731 174 c 0,16,17
 731 111 731 111 708.5 70.5 c 128,-1,18
 686 30 686 30 649.5 10 c 128,-1,19
 613 -10 613 -10 571 -10 c 0,4,5
571 45 m 256,20,21
 611 45 611 45 636.5 78.5 c 128,-1,22
 662 112 662 112 662 175 c 0,23,24
 662 236 662 236 636.5 269 c 128,-1,25
 611 302 611 302 571 302 c 256,26,27
 531 302 531 302 507 269.5 c 128,-1,28
 483 237 483 237 483 175 c 0,29,30
 483 111 483 111 507 78 c 128,-1,31
 531 45 531 45 571 45 c 256,20,21
193 364 m 256,32,33
 151 364 151 364 114.5 383.5 c 128,-1,34
 78 403 78 403 56.5 444 c 128,-1,35
 35 485 35 485 35 547 c 0,36,37
 35 610 35 610 56.5 650 c 128,-1,38
 78 690 78 690 114 710 c 128,-1,39
 150 730 150 730 193 730 c 0,40,41
 237 730 237 730 273 710 c 128,-1,42
 309 690 309 690 330.5 650 c 128,-1,43
 352 610 352 610 352 547 c 0,44,45
 352 485 352 485 329.5 444 c 128,-1,46
 307 403 307 403 271 383.5 c 128,-1,47
 235 364 235 364 193 364 c 256,32,33
193 418 m 0,48,49
 232 418 232 418 257.5 451.5 c 128,-1,50
 283 485 283 485 283 548 c 0,51,52
 283 610 283 610 258 642.5 c 128,-1,53
 233 675 233 675 193 675 c 256,54,55
 153 675 153 675 128 643 c 128,-1,56
 103 611 103 611 103 548 c 256,57,58
 103 485 103 485 128 451.5 c 128,-1,59
 153 418 153 418 193 418 c 0,48,49
EndSplineSet
Validated: 1
Substitution2: "'tnum' Tabular Numbers in Latin lookup 19 subtable" percent.tf
Substitution2: "'aalt' Access All Alternates in Latin lookup 0 subtable" percent.tf
EndChar

StartChar: perthousand
Encoding: 8240 8240 446
Width: 832
Flags: W
LayerCount: 2
Fore
SplineSet
169 364 m 256,0,1
 132 364 132 364 100 383.5 c 128,-1,2
 68 403 68 403 49 444 c 128,-1,3
 30 485 30 485 30 547 c 0,4,5
 30 610 30 610 49 650 c 128,-1,6
 68 690 68 690 99.5 710 c 128,-1,7
 131 730 131 730 169 730 c 0,8,9
 227 730 227 730 268 685.5 c 128,-1,10
 309 641 309 641 309 547 c 0,11,12
 309 485 309 485 289 444 c 128,-1,13
 269 403 269 403 237.5 383.5 c 128,-1,14
 206 364 206 364 169 364 c 256,0,1
169 417 m 0,15,16
 202 417 202 417 223.5 450.5 c 128,-1,17
 245 484 245 484 245 548 c 0,18,19
 245 610 245 610 224 643 c 128,-1,20
 203 676 203 676 169 676 c 256,21,22
 135 676 135 676 114.5 643.5 c 128,-1,23
 94 611 94 611 94 548 c 0,24,25
 94 484 94 484 114.5 450.5 c 128,-1,26
 135 417 135 417 169 417 c 0,15,16
64 0 m 1,27,-1
 517 720 l 1,28,-1
 593 720 l 1,29,-1
 141 0 l 1,30,-1
 64 0 l 1,27,-1
478 -10 m 0,31,32
 446 -10 446 -10 415.5 10 c 128,-1,33
 385 30 385 30 366.5 70.5 c 128,-1,34
 348 111 348 111 348 174 c 0,35,36
 348 236 348 236 366.5 276.5 c 128,-1,37
 385 317 385 317 415 337 c 128,-1,38
 445 357 445 357 478 357 c 0,39,40
 529 357 529 357 564 312 c 128,-1,41
 599 267 599 267 599 174 c 0,42,43
 599 80 599 80 563 35 c 128,-1,44
 527 -10 527 -10 478 -10 c 0,31,32
478 44 m 0,45,46
 507 44 507 44 526 77.5 c 128,-1,47
 545 111 545 111 545 175 c 0,48,49
 545 237 545 237 526.5 270 c 128,-1,50
 508 303 508 303 478 303 c 256,51,52
 448 303 448 303 430 270.5 c 128,-1,53
 412 238 412 238 412 175 c 0,54,55
 412 111 412 111 430 77.5 c 128,-1,56
 448 44 448 44 478 44 c 0,45,46
672 44 m 0,57,58
 702 44 702 44 720 77.5 c 128,-1,59
 738 111 738 111 738 175 c 0,60,61
 738 238 738 238 720 270.5 c 128,-1,62
 702 303 702 303 672 303 c 0,63,64
 643 303 643 303 624 270 c 128,-1,65
 605 237 605 237 605 175 c 0,66,67
 605 111 605 111 624.5 77.5 c 128,-1,68
 644 44 644 44 672 44 c 0,57,58
672 -10 m 0,69,70
 623 -10 623 -10 587 35 c 128,-1,71
 551 80 551 80 551 174 c 0,72,73
 551 267 551 267 586 312 c 128,-1,74
 621 357 621 357 672 357 c 0,75,76
 705 357 705 357 735 337 c 128,-1,77
 765 317 765 317 783.5 276.5 c 128,-1,78
 802 236 802 236 802 174 c 0,79,80
 802 111 802 111 783.5 70.5 c 128,-1,81
 765 30 765 30 735 10 c 128,-1,82
 705 -10 705 -10 672 -10 c 0,69,70
EndSplineSet
Validated: 5
Substitution2: "'tnum' Tabular Numbers in Latin lookup 19 subtable" perthousand.tf
Substitution2: "'aalt' Access All Alternates in Latin lookup 0 subtable" perthousand.tf
EndChar

StartChar: plus.tf
Encoding: 65678 -1 447
Width: 588
Flags: W
LayerCount: 2
Fore
SplineSet
260 153 m 1,0,-1
 260 590 l 1,1,-1
 328 590 l 1,2,-1
 328 153 l 1,3,-1
 260 153 l 1,0,-1
75 338 m 1,4,-1
 75 404 l 1,5,-1
 513 404 l 1,6,-1
 513 338 l 1,7,-1
 75 338 l 1,4,-1
EndSplineSet
Validated: 5
Substitution2: "'pnum' Proportional Numbers in Latin lookup 18 subtable" plus
Substitution2: "'aalt' Access All Alternates in Latin lookup 0 subtable" plus
EndChar

StartChar: minus.tf
Encoding: 65679 -1 448
Width: 588
Flags: W
LayerCount: 2
Fore
SplineSet
75 338 m 1,0,-1
 75 404 l 1,1,-1
 513 404 l 1,2,-1
 513 338 l 1,3,-1
 75 338 l 1,0,-1
EndSplineSet
Validated: 1
Substitution2: "'pnum' Proportional Numbers in Latin lookup 18 subtable" minus
Substitution2: "'aalt' Access All Alternates in Latin lookup 0 subtable" minus
EndChar

StartChar: multiply.tf
Encoding: 65680 -1 449
Width: 588
Flags: W
LayerCount: 2
Fore
SplineSet
463 174 m 1,0,-1
 78 522 l 1,1,-1
 124 569 l 1,2,-1
 509 221 l 1,3,-1
 463 174 l 1,0,-1
124 174 m 1,4,-1
 78 221 l 1,5,-1
 463 569 l 1,6,-1
 509 522 l 1,7,-1
 124 174 l 1,4,-1
EndSplineSet
Validated: 5
Substitution2: "'pnum' Proportional Numbers in Latin lookup 18 subtable" multiply
Substitution2: "'aalt' Access All Alternates in Latin lookup 0 subtable" multiply
EndChar

StartChar: divide.tf
Encoding: 65681 -1 450
Width: 588
Flags: W
LayerCount: 2
Fore
SplineSet
75 338 m 1,0,-1
 75 404 l 1,1,-1
 513 404 l 1,2,-1
 513 338 l 1,3,-1
 75 338 l 1,0,-1
295 481 m 0,4,5
 269 481 269 481 252 496.5 c 128,-1,6
 235 512 235 512 235 538 c 0,7,8
 235 563 235 563 252 578.5 c 128,-1,9
 269 594 269 594 295 594 c 0,10,11
 317 594 317 594 335 578.5 c 128,-1,12
 353 563 353 563 353 538 c 0,13,14
 353 512 353 512 335 496.5 c 128,-1,15
 317 481 317 481 295 481 c 0,4,5
295 148 m 0,16,17
 269 148 269 148 252 163.5 c 128,-1,18
 235 179 235 179 235 205 c 0,19,20
 235 230 235 230 252 246 c 128,-1,21
 269 262 269 262 295 262 c 0,22,23
 317 262 317 262 335 246 c 128,-1,24
 353 230 353 230 353 205 c 0,25,26
 353 179 353 179 335 163.5 c 128,-1,27
 317 148 317 148 295 148 c 0,16,17
EndSplineSet
Validated: 1
Substitution2: "'pnum' Proportional Numbers in Latin lookup 18 subtable" divide
Substitution2: "'aalt' Access All Alternates in Latin lookup 0 subtable" divide
EndChar

StartChar: equal.tf
Encoding: 65682 -1 451
Width: 588
Flags: W
LayerCount: 2
Fore
SplineSet
75 438 m 1,0,-1
 75 504 l 1,1,-1
 513 504 l 1,2,-1
 513 438 l 1,3,-1
 75 438 l 1,0,-1
75 238 m 1,4,-1
 75 304 l 1,5,-1
 513 304 l 1,6,-1
 513 238 l 1,7,-1
 75 238 l 1,4,-1
EndSplineSet
Validated: 1
Substitution2: "'pnum' Proportional Numbers in Latin lookup 18 subtable" equal
Substitution2: "'aalt' Access All Alternates in Latin lookup 0 subtable" equal
EndChar

StartChar: greater.tf
Encoding: 65683 -1 452
Width: 588
Flags: W
LayerCount: 2
Fore
SplineSet
80 173 m 1,0,-1
 80 244 l 1,1,-1
 453 383 l 1,2,-1
 453 358 l 1,3,-1
 80 488 l 1,4,-1
 80 559 l 1,5,-1
 518 409 l 1,6,-1
 518 333 l 1,7,-1
 80 173 l 1,0,-1
EndSplineSet
Validated: 5
Substitution2: "'pnum' Proportional Numbers in Latin lookup 18 subtable" greater
Substitution2: "'aalt' Access All Alternates in Latin lookup 0 subtable" greater
EndChar

StartChar: less.tf
Encoding: 65684 -1 453
Width: 588
Flags: W
LayerCount: 2
Fore
SplineSet
471 569 m 1,0,-1
 471 498 l 1,1,-1
 108 359 l 1,2,-1
 108 384 l 1,3,-1
 471 254 l 1,4,-1
 471 183 l 1,5,-1
 60 333 l 1,6,-1
 60 409 l 1,7,-1
 471 569 l 1,0,-1
EndSplineSet
Validated: 5
Substitution2: "'pnum' Proportional Numbers in Latin lookup 18 subtable" less
Substitution2: "'aalt' Access All Alternates in Latin lookup 0 subtable" less
EndChar

StartChar: percent.tf
Encoding: 65685 -1 454
Width: 588
Flags: W
LayerCount: 2
Fore
SplineSet
38 0 m 1,0,-1
 484 720 l 1,1,-1
 555 720 l 1,2,-1
 109 0 l 1,3,-1
 38 0 l 1,0,-1
429 -10 m 0,4,5
 395 -10 395 -10 365 10 c 128,-1,6
 335 30 335 30 316.5 71 c 128,-1,7
 298 112 298 112 298 173 c 256,8,9
 298 234 298 234 316.5 274 c 128,-1,10
 335 314 335 314 365 334 c 128,-1,11
 395 354 395 354 429 354 c 0,12,13
 465 354 465 354 495.5 334 c 128,-1,14
 526 314 526 314 544 274 c 128,-1,15
 562 234 562 234 562 173 c 256,16,17
 562 112 562 112 543.5 71 c 128,-1,18
 525 30 525 30 494.5 10 c 128,-1,19
 464 -10 464 -10 429 -10 c 0,4,5
429 45 m 256,20,21
 454 45 454 45 473.5 75 c 128,-1,22
 493 105 493 105 493 174 c 0,23,24
 493 241 493 241 474 270 c 128,-1,25
 455 299 455 299 429 299 c 0,26,27
 404 299 404 299 385.5 270.5 c 128,-1,28
 367 242 367 242 367 174 c 0,29,30
 367 105 367 105 385.5 75 c 128,-1,31
 404 45 404 45 429 45 c 256,20,21
157 366 m 256,32,33
 123 366 123 366 93 386 c 128,-1,34
 63 406 63 406 44.5 447 c 128,-1,35
 26 488 26 488 26 549 c 256,36,37
 26 610 26 610 44.5 650 c 128,-1,38
 63 690 63 690 93 710 c 128,-1,39
 123 730 123 730 157 730 c 0,40,41
 192 730 192 730 222.5 710 c 128,-1,42
 253 690 253 690 271.5 650 c 128,-1,43
 290 610 290 610 290 549 c 0,44,45
 290 487 290 487 271 446.5 c 128,-1,46
 252 406 252 406 221.5 386 c 128,-1,47
 191 366 191 366 157 366 c 256,32,33
157 421 m 256,48,49
 182 421 182 421 201.5 451 c 128,-1,50
 221 481 221 481 221 550 c 0,51,52
 221 617 221 617 202 646 c 128,-1,53
 183 675 183 675 157 675 c 0,54,55
 132 675 132 675 113 646.5 c 128,-1,56
 94 618 94 618 94 550 c 0,57,58
 94 481 94 481 113 451 c 128,-1,59
 132 421 132 421 157 421 c 256,48,49
EndSplineSet
Validated: 1
Substitution2: "'pnum' Proportional Numbers in Latin lookup 18 subtable" percent
Substitution2: "'aalt' Access All Alternates in Latin lookup 0 subtable" percent
EndChar

StartChar: perthousand.tf
Encoding: 65686 -1 455
Width: 588
Flags: W
LayerCount: 2
Fore
SplineSet
58 282 m 1,0,-1
 39 341 l 1,1,-1
 519 491 l 1,2,-1
 538 432 l 1,3,-1
 58 282 l 1,0,-1
257 -10 m 256,4,5
 211 -10 211 -10 176.5 32 c 128,-1,6
 142 74 142 74 142 151 c 256,7,8
 142 228 142 228 176 269.5 c 128,-1,9
 210 311 210 311 257 311 c 0,10,11
 305 311 305 311 338.5 269.5 c 128,-1,12
 372 228 372 228 372 151 c 0,13,14
 372 75 372 75 337.5 32.5 c 128,-1,15
 303 -10 303 -10 257 -10 c 256,4,5
257 44 m 0,16,17
 282 44 282 44 298.5 74 c 128,-1,18
 315 104 315 104 315 152 c 0,19,20
 315 199 315 199 299 228.5 c 128,-1,21
 283 258 283 258 257 258 c 256,22,23
 231 258 231 258 215.5 228.5 c 128,-1,24
 200 199 200 199 200 152 c 0,25,26
 200 104 200 104 215.5 74 c 128,-1,27
 231 44 231 44 257 44 c 0,16,17
436 -10 m 0,28,29
 390 -10 390 -10 356 33 c 128,-1,30
 322 76 322 76 322 151 c 0,31,32
 322 227 322 227 355.5 269 c 128,-1,33
 389 311 389 311 436 311 c 0,34,35
 485 311 485 311 518.5 270 c 128,-1,36
 552 229 552 229 552 151 c 0,37,38
 552 74 552 74 517.5 32 c 128,-1,39
 483 -10 483 -10 436 -10 c 0,28,29
436 44 m 0,40,41
 461 44 461 44 477.5 74 c 128,-1,42
 494 104 494 104 494 152 c 0,43,44
 494 199 494 199 478 228.5 c 128,-1,45
 462 258 462 258 436 258 c 256,46,47
 410 258 410 258 394.5 228.5 c 128,-1,48
 379 199 379 199 379 152 c 0,49,50
 379 104 379 104 394.5 74 c 128,-1,51
 410 44 410 44 436 44 c 0,40,41
152 407 m 0,52,53
 105 407 105 407 70.5 449.5 c 128,-1,54
 36 492 36 492 36 569 c 256,55,56
 36 646 36 646 70 688 c 128,-1,57
 104 730 104 730 152 730 c 256,58,59
 200 730 200 730 234 688.5 c 128,-1,60
 268 647 268 647 268 569 c 0,61,62
 268 492 268 492 233 449.5 c 128,-1,63
 198 407 198 407 152 407 c 0,52,53
152 461 m 0,64,65
 176 461 176 461 193 491 c 128,-1,66
 210 521 210 521 210 570 c 0,67,68
 210 618 210 618 193.5 647 c 128,-1,69
 177 676 177 676 152 676 c 0,70,71
 125 676 125 676 109.5 647 c 128,-1,72
 94 618 94 618 94 570 c 0,73,74
 94 521 94 521 109.5 491 c 128,-1,75
 125 461 125 461 152 461 c 0,64,65
EndSplineSet
Validated: 5
Substitution2: "'pnum' Proportional Numbers in Latin lookup 18 subtable" perthousand
Substitution2: "'aalt' Access All Alternates in Latin lookup 0 subtable" perthousand
EndChar

StartChar: arrowup
Encoding: 8593 8593 456
Width: 780
Flags: W
LayerCount: 2
Fore
SplineSet
355 9 m 1,0,-1
 355 647 l 1,1,-1
 382 614 l 1,2,-1
 60 294 l 1,3,-1
 60 392 l 1,4,-1
 390 719 l 1,5,-1
 720 391 l 1,6,-1
 720 293 l 1,7,-1
 398 614 l 1,8,-1
 425 647 l 1,9,-1
 425 9 l 1,10,-1
 355 9 l 1,0,-1
EndSplineSet
Validated: 5
EndChar

StartChar: uni2197
Encoding: 8599 8599 457
Width: 661
Flags: W
LayerCount: 2
Fore
SplineSet
73 152 m 1,0,-1
 524 602 l 1,1,-1
 520 559 l 1,2,-1
 66 561 l 1,3,-1
 135 631 l 1,4,-1
 600 628 l 1,5,-1
 601 163 l 1,6,-1
 532 93 l 1,7,-1
 531 548 l 1,8,-1
 574 552 l 1,9,-1
 123 102 l 1,10,-1
 73 152 l 1,0,-1
EndSplineSet
Validated: 5
EndChar

StartChar: arrowright
Encoding: 8594 8594 458
Width: 830
Flags: W
LayerCount: 2
Fore
SplineSet
60 395 m 1,0,-1
 698 395 l 1,1,-1
 665 368 l 1,2,-1
 345 690 l 1,3,-1
 443 690 l 1,4,-1
 770 360 l 1,5,-1
 442 30 l 1,6,-1
 344 30 l 1,7,-1
 665 352 l 1,8,-1
 698 325 l 1,9,-1
 60 325 l 1,10,-1
 60 395 l 1,0,-1
EndSplineSet
Validated: 5
EndChar

StartChar: uni2198
Encoding: 8600 8600 459
Width: 662
Flags: W
LayerCount: 2
Fore
SplineSet
123 618 m 1,0,-1
 573 167 l 1,1,-1
 530 171 l 1,2,-1
 532 625 l 1,3,-1
 602 556 l 1,4,-1
 599 91 l 1,5,-1
 134 90 l 1,6,-1
 64 159 l 1,7,-1
 519 160 l 1,8,-1
 523 117 l 1,9,-1
 73 568 l 1,10,-1
 123 618 l 1,0,-1
EndSplineSet
Validated: 5
EndChar

StartChar: arrowdown
Encoding: 8595 8595 460
Width: 780
Flags: W
LayerCount: 2
Fore
SplineSet
355 711 m 1,0,-1
 425 711 l 1,1,-1
 425 73 l 1,2,-1
 398 106 l 1,3,-1
 720 427 l 1,4,-1
 720 329 l 1,5,-1
 390 1 l 1,6,-1
 60 328 l 1,7,-1
 60 426 l 1,8,-1
 382 106 l 1,9,-1
 355 73 l 1,10,-1
 355 711 l 1,0,-1
EndSplineSet
Validated: 5
EndChar

StartChar: uni2199
Encoding: 8601 8601 461
Width: 661
Flags: W
LayerCount: 2
Fore
SplineSet
588 569 m 1,0,-1
 137 118 l 1,1,-1
 141 161 l 1,2,-1
 595 159 l 1,3,-1
 526 89 l 1,4,-1
 61 92 l 1,5,-1
 60 557 l 1,6,-1
 129 627 l 1,7,-1
 130 172 l 1,8,-1
 87 168 l 1,9,-1
 538 618 l 1,10,-1
 588 569 l 1,0,-1
EndSplineSet
Validated: 5
EndChar

StartChar: arrowleft
Encoding: 8592 8592 462
Width: 830
Flags: W
LayerCount: 2
Fore
SplineSet
770 325 m 1,0,-1
 133 325 l 1,1,-1
 165 352 l 1,2,-1
 485 30 l 1,3,-1
 387 30 l 1,4,-1
 60 360 l 1,5,-1
 388 690 l 1,6,-1
 486 690 l 1,7,-1
 165 368 l 1,8,-1
 133 395 l 1,9,-1
 770 395 l 1,10,-1
 770 325 l 1,0,-1
EndSplineSet
Validated: 5
EndChar

StartChar: uni2196
Encoding: 8598 8598 463
Width: 662
Flags: W
LayerCount: 2
Fore
SplineSet
539 102 m 1,0,-1
 89 553 l 1,1,-1
 132 549 l 1,2,-1
 130 95 l 1,3,-1
 60 164 l 1,4,-1
 63 629 l 1,5,-1
 528 630 l 1,6,-1
 598 561 l 1,7,-1
 143 560 l 1,8,-1
 139 603 l 1,9,-1
 589 152 l 1,10,-1
 539 102 l 1,0,-1
EndSplineSet
Validated: 5
EndChar

StartChar: arrowboth
Encoding: 8596 8596 464
Width: 1016
Flags: W
LayerCount: 2
Fore
SplineSet
388 30 m 1,0,-1
 60 360 l 1,1,-1
 387 690 l 1,2,-1
 485 690 l 1,3,-1
 193 395 l 1,4,-1
 824 395 l 1,5,-1
 531 690 l 1,6,-1
 629 690 l 1,7,-1
 956 360 l 1,8,-1
 628 30 l 1,9,-1
 530 30 l 1,10,-1
 824 325 l 1,11,-1
 193 325 l 1,12,-1
 486 30 l 1,13,-1
 388 30 l 1,0,-1
EndSplineSet
Validated: 1
EndChar

StartChar: arrowupdn
Encoding: 8597 8597 465
Width: 780
Flags: W
LayerCount: 2
Fore
SplineSet
390 -88 m 1,0,-1
 60 239 l 1,1,-1
 60 337 l 1,2,-1
 355 45 l 1,3,-1
 355 676 l 1,4,-1
 60 383 l 1,5,-1
 60 481 l 1,6,-1
 390 808 l 1,7,-1
 720 480 l 1,8,-1
 720 382 l 1,9,-1
 425 676 l 1,10,-1
 425 45 l 1,11,-1
 720 338 l 1,12,-1
 720 240 l 1,13,-1
 390 -88 l 1,0,-1
EndSplineSet
Validated: 1
EndChar

StartChar: uni0308
Encoding: 776 776 466
Width: 0
GlyphClass: 4
Flags: W
AnchorPoint: "Anchor-7" 218 720 basemark 0
AnchorPoint: "Anchor-7" 218 510 mark 0
AnchorPoint: "Anchor-4" 218 510 mark 0
AnchorPoint: "Anchor-0" 218 510 mark 0
LayerCount: 2
Fore
SplineSet
284 627 m 1,0,-1
 284 720 l 1,1,-1
 375 720 l 1,2,-1
 375 627 l 1,3,-1
 284 627 l 1,0,-1
60 627 m 1,4,-1
 60 720 l 1,5,-1
 151 720 l 1,6,-1
 151 627 l 1,7,-1
 60 627 l 1,4,-1
EndSplineSet
Validated: 1
Substitution2: "'ss01' Style Set 1 in Latin lookup 22 subtable" uni0308.ss01
Substitution2: "'aalt' Access All Alternates in Latin lookup 0 subtable" uni0308.ss01
EndChar

StartChar: uni0307
Encoding: 775 775 467
Width: 0
GlyphClass: 4
Flags: W
AnchorPoint: "Anchor-7" 106 720 basemark 0
AnchorPoint: "Anchor-7" 106 510 mark 0
AnchorPoint: "Anchor-4" 106 510 mark 0
AnchorPoint: "Anchor-0" 106 510 mark 0
LayerCount: 2
Fore
SplineSet
60 627 m 1,0,-1
 60 720 l 1,1,-1
 151 720 l 1,2,-1
 151 627 l 1,3,-1
 60 627 l 1,0,-1
EndSplineSet
Validated: 1
Substitution2: "'ss01' Style Set 1 in Latin lookup 22 subtable" uni0307.ss01
Substitution2: "'aalt' Access All Alternates in Latin lookup 0 subtable" uni0307.ss01
EndChar

StartChar: gravecomb
Encoding: 768 768 468
Width: 0
GlyphClass: 4
Flags: W
AnchorPoint: "Anchor-7" 211 740 basemark 0
AnchorPoint: "Anchor-7" 211 510 mark 0
AnchorPoint: "Anchor-4" 211 510 mark 0
AnchorPoint: "Anchor-0" 211 510 mark 0
LayerCount: 2
Fore
SplineSet
216 583 m 1,0,-1
 60 740 l 1,1,-1
 178 740 l 1,2,-1
 289 583 l 1,3,-1
 216 583 l 1,0,-1
EndSplineSet
Validated: 1
EndChar

StartChar: acutecomb
Encoding: 769 769 469
Width: 0
GlyphClass: 4
Flags: W
AnchorPoint: "Anchor-7" 138 740 basemark 0
AnchorPoint: "Anchor-7" 138 510 mark 0
AnchorPoint: "Anchor-4" 138 510 mark 0
AnchorPoint: "Anchor-0" 138 510 mark 0
LayerCount: 2
Fore
SplineSet
133 583 m 1,0,-1
 60 583 l 1,1,-1
 170 740 l 1,2,-1
 289 740 l 1,3,-1
 133 583 l 1,0,-1
EndSplineSet
Validated: 1
EndChar

StartChar: uni030B
Encoding: 779 779 470
Width: 0
GlyphClass: 4
Flags: W
AnchorPoint: "Anchor-7" 205 740 basemark 0
AnchorPoint: "Anchor-7" 205 510 mark 0
AnchorPoint: "Anchor-4" 205 510 mark 0
AnchorPoint: "Anchor-0" 205 510 mark 0
LayerCount: 2
Fore
SplineSet
124 583 m 1,0,-1
 60 583 l 1,1,-1
 114 740 l 1,2,-1
 208 740 l 1,3,-1
 124 583 l 1,0,-1
318 583 m 1,4,-1
 254 583 l 1,5,-1
 308 740 l 1,6,-1
 402 740 l 1,7,-1
 318 583 l 1,4,-1
EndSplineSet
Validated: 1
EndChar

StartChar: uni030C.alt
Encoding: 65687 -1 471
Width: 0
GlyphClass: 4
Flags: W
AnchorPoint: "Anchor-1" 60 720 mark 0
LayerCount: 2
Fore
SplineSet
109 503 m 1,0,-1
 60 503 l 1,1,-1
 60 720 l 1,2,-1
 135 720 l 1,3,-1
 109 503 l 1,0,-1
EndSplineSet
Validated: 1
EndChar

StartChar: uni0302
Encoding: 770 770 472
Width: 0
GlyphClass: 4
Flags: W
AnchorPoint: "Anchor-7" 240 740 basemark 0
AnchorPoint: "Anchor-7" 240 510 mark 0
AnchorPoint: "Anchor-4" 240 510 mark 0
AnchorPoint: "Anchor-0" 240 510 mark 0
LayerCount: 2
Fore
SplineSet
60 583 m 1,0,-1
 198 740 l 1,1,-1
 282 740 l 1,2,-1
 420 583 l 1,3,-1
 349 583 l 1,4,-1
 201 720 l 1,5,-1
 279 720 l 1,6,-1
 131 583 l 1,7,-1
 60 583 l 1,0,-1
EndSplineSet
Validated: 5
EndChar

StartChar: uni030C
Encoding: 780 780 473
Width: 0
GlyphClass: 4
Flags: W
AnchorPoint: "Anchor-7" 240 740 basemark 0
AnchorPoint: "Anchor-7" 240 510 mark 0
AnchorPoint: "Anchor-4" 240 510 mark 0
AnchorPoint: "Anchor-0" 240 510 mark 0
LayerCount: 2
Fore
SplineSet
198 583 m 1,0,-1
 60 740 l 1,1,-1
 131 740 l 1,2,-1
 279 603 l 1,3,-1
 201 603 l 1,4,-1
 349 740 l 1,5,-1
 420 740 l 1,6,-1
 282 583 l 1,7,-1
 198 583 l 1,0,-1
EndSplineSet
Validated: 5
EndChar

StartChar: uni0306
Encoding: 774 774 474
Width: 0
GlyphClass: 4
Flags: W
AnchorPoint: "Anchor-7" 221 740 basemark 0
AnchorPoint: "Anchor-7" 221 510 mark 0
AnchorPoint: "Anchor-4" 221 510 mark 0
AnchorPoint: "Anchor-0" 221 510 mark 0
LayerCount: 2
Fore
SplineSet
221 579 m 0,0,1
 176 579 176 579 139 598.5 c 128,-1,2
 102 618 102 618 81 654 c 128,-1,3
 60 690 60 690 60 740 c 1,4,-1
 122 740 l 1,5,6
 122 695 122 695 148 670 c 128,-1,7
 174 645 174 645 221 645 c 0,8,9
 267 645 267 645 293 670 c 128,-1,10
 319 695 319 695 319 740 c 1,11,-1
 382 740 l 1,12,13
 382 690 382 690 360.5 654 c 128,-1,14
 339 618 339 618 303 598.5 c 128,-1,15
 267 579 267 579 221 579 c 0,0,1
EndSplineSet
Validated: 1
EndChar

StartChar: uni030A
Encoding: 778 778 475
Width: 0
GlyphClass: 4
Flags: W
AnchorPoint: "Anchor-7" 168 776 basemark 0
AnchorPoint: "Anchor-7" 168 510 mark 0
AnchorPoint: "Anchor-4" 168 510 mark 0
AnchorPoint: "Anchor-0" 168 510 mark 0
LayerCount: 2
Fore
SplineSet
168 561 m 256,0,1
 122 561 122 561 91 592.5 c 128,-1,2
 60 624 60 624 60 669 c 0,3,4
 60 713 60 713 91 744.5 c 128,-1,5
 122 776 122 776 168 776 c 256,6,7
 214 776 214 776 244.5 744.5 c 128,-1,8
 275 713 275 713 275 669 c 0,9,10
 275 624 275 624 244.5 592.5 c 128,-1,11
 214 561 214 561 168 561 c 256,0,1
168 610 m 0,12,13
 193 610 193 610 208.5 627 c 128,-1,14
 224 644 224 644 224 669 c 0,15,16
 224 693 224 693 208.5 710 c 128,-1,17
 193 727 193 727 168 727 c 256,18,19
 143 727 143 727 127 710 c 128,-1,20
 111 693 111 693 111 669 c 0,21,22
 111 644 111 644 126.5 627 c 128,-1,23
 142 610 142 610 168 610 c 0,12,13
EndSplineSet
Validated: 1
EndChar

StartChar: tildecomb
Encoding: 771 771 476
Width: 0
GlyphClass: 4
Flags: W
AnchorPoint: "Anchor-7" 243 722 basemark 0
AnchorPoint: "Anchor-7" 243 510 mark 0
AnchorPoint: "Anchor-4" 243 510 mark 0
AnchorPoint: "Anchor-0" 243 510 mark 0
LayerCount: 2
Fore
SplineSet
318 594 m 0,0,1
 289 594 289 594 268 604.5 c 128,-1,2
 247 615 247 615 230 628.5 c 128,-1,3
 213 642 213 642 197 652.5 c 128,-1,4
 181 663 181 663 163 663 c 0,5,6
 143 663 143 663 129.5 649 c 128,-1,7
 116 635 116 635 116 604 c 1,8,-1
 60 604 l 1,9,10
 60 642 60 642 74 668.5 c 128,-1,11
 88 695 88 695 113.5 708.5 c 128,-1,12
 139 722 139 722 171 722 c 0,13,14
 201 722 201 722 221.5 711.5 c 128,-1,15
 242 701 242 701 257.5 687.5 c 128,-1,16
 273 674 273 674 288.5 663.5 c 128,-1,17
 304 653 304 653 322 653 c 0,18,19
 343 653 343 653 356.5 667 c 128,-1,20
 370 681 370 681 370 712 c 1,21,-1
 426 712 l 1,22,23
 426 676 426 676 412 649 c 128,-1,24
 398 622 398 622 373.5 608 c 128,-1,25
 349 594 349 594 318 594 c 0,0,1
EndSplineSet
Validated: 1
EndChar

StartChar: uni0304
Encoding: 772 772 477
Width: 0
GlyphClass: 4
Flags: W
AnchorPoint: "Anchor-7" 228 699 basemark 0
AnchorPoint: "Anchor-7" 228 510 mark 0
AnchorPoint: "Anchor-4" 228 510 mark 0
AnchorPoint: "Anchor-0" 228 510 mark 0
LayerCount: 2
Fore
SplineSet
60 643 m 1,0,-1
 60 699 l 1,1,-1
 396 699 l 1,2,-1
 396 643 l 1,3,-1
 60 643 l 1,0,-1
EndSplineSet
Validated: 1
EndChar

StartChar: uni0312
Encoding: 786 786 478
Width: 0
GlyphClass: 4
Flags: W
AnchorPoint: "Anchor-7" 117 802 basemark 0
AnchorPoint: "Anchor-7" 117 510 mark 0
AnchorPoint: "Anchor-4" 117 510 mark 0
AnchorPoint: "Anchor-0" 117 510 mark 0
LayerCount: 2
Fore
SplineSet
65 581 m 1,0,-1
 65 659 l 2,1,2
 65 708 65 708 90 747.5 c 128,-1,3
 115 787 115 787 169 802 c 1,4,-1
 169 762 l 1,5,6
 142 751 142 751 126.5 730.5 c 128,-1,7
 111 710 111 710 111 677 c 1,8,-1
 82 682 l 1,9,-1
 169 682 l 1,10,-1
 169 581 l 1,11,-1
 65 581 l 1,0,-1
EndSplineSet
Validated: 5
Substitution2: "'ss01' Style Set 1 in Latin lookup 22 subtable" uni0312.ss01
Substitution2: "'aalt' Access All Alternates in Latin lookup 0 subtable" uni0312.ss01
EndChar

StartChar: uni0326
Encoding: 806 806 479
Width: 0
GlyphClass: 4
Flags: W
AnchorPoint: "Anchor-6" 117 -293 basemark 0
AnchorPoint: "Anchor-6" 117 0 mark 0
AnchorPoint: "Anchor-5" 117 0 mark 0
AnchorPoint: "Anchor-2" 117 0 mark 0
LayerCount: 2
Fore
SplineSet
65 -293 m 1,0,-1
 65 -253 l 1,1,2
 92 -242 92 -242 107.5 -221 c 128,-1,3
 123 -200 123 -200 123 -168 c 1,4,-1
 152 -173 l 1,5,-1
 65 -173 l 1,6,-1
 65 -72 l 1,7,-1
 169 -72 l 1,8,-1
 169 -150 l 2,9,10
 169 -199 169 -199 143.5 -238 c 128,-1,11
 118 -277 118 -277 65 -293 c 1,0,-1
EndSplineSet
Validated: 5
Substitution2: "'ss01' Style Set 1 in Latin lookup 22 subtable" uni0326.ss01
Substitution2: "'aalt' Access All Alternates in Latin lookup 0 subtable" uni0326.ss01
EndChar

StartChar: uni0327
Encoding: 807 807 480
Width: 0
GlyphClass: 4
Flags: W
AnchorPoint: "Anchor-6" 175 -215 basemark 0
AnchorPoint: "Anchor-6" 184 0 mark 0
AnchorPoint: "Anchor-5" 184 0 mark 0
AnchorPoint: "Anchor-2" 184 0 mark 0
LayerCount: 2
Fore
SplineSet
175 -215 m 0,0,1
 124 -215 124 -215 93 -191 c 128,-1,2
 62 -167 62 -167 60 -127 c 1,3,-1
 115 -127 l 1,4,5
 117 -147 117 -147 135 -155.5 c 128,-1,6
 153 -164 153 -164 177 -164 c 0,7,8
 199 -164 199 -164 215 -155.5 c 128,-1,9
 231 -147 231 -147 231 -131 c 0,10,11
 231 -113 231 -113 212 -101 c 128,-1,12
 193 -89 193 -89 139 -86 c 1,13,-1
 163 12 l 1,14,-1
 219 12 l 1,15,-1
 203 -45 l 1,16,17
 250 -55 250 -55 269.5 -78.5 c 128,-1,18
 289 -102 289 -102 289 -130 c 0,19,20
 289 -171 289 -171 257 -193 c 128,-1,21
 225 -215 225 -215 175 -215 c 0,0,1
EndSplineSet
Validated: 1
EndChar

StartChar: uni0328
Encoding: 808 808 481
Width: 0
GlyphClass: 4
Flags: W
AnchorPoint: "Anchor-3" 213 0 mark 0
LayerCount: 2
Fore
SplineSet
144 -216 m 0,0,1
 103 -216 103 -216 81.5 -193.5 c 128,-1,2
 60 -171 60 -171 60 -137 c 0,3,4
 60 -93 60 -93 96 -53 c 128,-1,5
 132 -13 132 -13 187 17 c 1,6,-1
 213 0 l 1,7,8
 169 -32 169 -32 143.5 -63 c 128,-1,9
 118 -94 118 -94 118 -129 c 0,10,11
 118 -146 118 -146 127 -155.5 c 128,-1,12
 136 -165 136 -165 150 -165 c 0,13,14
 171 -165 171 -165 184 -150 c 1,15,-1
 216 -190 l 1,16,17
 202 -204 202 -204 184.5 -210 c 128,-1,18
 167 -216 167 -216 144 -216 c 0,0,1
EndSplineSet
Validated: 1
EndChar

StartChar: uni0308.ss01
Encoding: 65688 -1 482
Width: 0
GlyphClass: 4
Flags: W
AnchorPoint: "Anchor-7" 228 718 basemark 0
AnchorPoint: "Anchor-7" 228 510 mark 0
AnchorPoint: "Anchor-4" 228 510 mark 0
AnchorPoint: "Anchor-0" 228 510 mark 0
LayerCount: 2
Fore
SplineSet
115 607 m 0,0,1
 93 607 93 607 76.5 623 c 128,-1,2
 60 639 60 639 60 663 c 0,3,4
 60 688 60 688 76.5 703 c 128,-1,5
 93 718 93 718 115 718 c 0,6,7
 138 718 138 718 154 703 c 128,-1,8
 170 688 170 688 170 663 c 0,9,10
 170 639 170 639 154 623 c 128,-1,11
 138 607 138 607 115 607 c 0,0,1
340 607 m 0,12,13
 318 607 318 607 301.5 623 c 128,-1,14
 285 639 285 639 285 663 c 0,15,16
 285 688 285 688 301.5 703 c 128,-1,17
 318 718 318 718 340 718 c 0,18,19
 363 718 363 718 379 703 c 128,-1,20
 395 688 395 688 395 663 c 0,21,22
 395 639 395 639 379 623 c 128,-1,23
 363 607 363 607 340 607 c 0,12,13
EndSplineSet
Validated: 1
EndChar

StartChar: uni0307.ss01
Encoding: 65689 -1 483
Width: 0
GlyphClass: 4
Flags: W
AnchorPoint: "Anchor-7" 115 718 basemark 0
AnchorPoint: "Anchor-7" 115 510 mark 0
AnchorPoint: "Anchor-4" 115 510 mark 0
AnchorPoint: "Anchor-0" 115 510 mark 0
LayerCount: 2
Fore
SplineSet
115 607 m 0,0,1
 93 607 93 607 76.5 623 c 128,-1,2
 60 639 60 639 60 663 c 0,3,4
 60 688 60 688 76.5 703 c 128,-1,5
 93 718 93 718 115 718 c 0,6,7
 138 718 138 718 154 703 c 128,-1,8
 170 688 170 688 170 663 c 0,9,10
 170 639 170 639 154 623 c 128,-1,11
 138 607 138 607 115 607 c 0,0,1
EndSplineSet
Validated: 1
EndChar

StartChar: uni0312.ss01
Encoding: 65690 -1 484
Width: 0
GlyphClass: 4
Flags: W
AnchorPoint: "Anchor-7" 117 802 basemark 0
AnchorPoint: "Anchor-7" 117 510 mark 0
AnchorPoint: "Anchor-4" 117 510 mark 0
AnchorPoint: "Anchor-0" 117 510 mark 0
LayerCount: 2
Fore
SplineSet
119 576 m 0,0,1
 95 576 95 576 77.5 595 c 128,-1,2
 60 614 60 614 60 659 c 0,3,4
 60 692 60 692 72.5 720 c 128,-1,5
 85 748 85 748 107.5 769.5 c 128,-1,6
 130 791 130 791 163 802 c 1,7,-1
 163 762 l 1,8,9
 137 751 137 751 121 730 c 128,-1,10
 105 709 105 709 105 677 c 1,11,-1
 82 674 l 1,12,13
 89 679 89 679 97.5 683 c 128,-1,14
 106 687 106 687 116 687 c 0,15,16
 141 687 141 687 157.5 671.5 c 128,-1,17
 174 656 174 656 174 632 c 256,18,19
 174 608 174 608 158 592 c 128,-1,20
 142 576 142 576 119 576 c 0,0,1
EndSplineSet
Validated: 5
EndChar

StartChar: uni0326.ss01
Encoding: 65691 -1 485
Width: 0
GlyphClass: 4
Flags: W
AnchorPoint: "Anchor-6" 117 -293 basemark 0
AnchorPoint: "Anchor-6" 117 0 mark 0
AnchorPoint: "Anchor-5" 117 0 mark 0
AnchorPoint: "Anchor-2" 117 0 mark 0
LayerCount: 2
Fore
SplineSet
71 -293 m 1,0,-1
 71 -253 l 1,1,2
 97 -242 97 -242 112.5 -221 c 128,-1,3
 128 -200 128 -200 128 -168 c 1,4,-1
 152 -165 l 1,5,6
 145 -170 145 -170 136 -174 c 128,-1,7
 127 -178 127 -178 117 -178 c 0,8,9
 93 -178 93 -178 76.5 -162.5 c 128,-1,10
 60 -147 60 -147 60 -123 c 0,11,12
 60 -98 60 -98 76.5 -82.5 c 128,-1,13
 93 -67 93 -67 114 -67 c 0,14,15
 139 -67 139 -67 156.5 -86 c 128,-1,16
 174 -105 174 -105 174 -150 c 0,17,18
 174 -181 174 -181 162 -210 c 128,-1,19
 150 -239 150 -239 126.5 -260.5 c 128,-1,20
 103 -282 103 -282 71 -293 c 1,0,-1
EndSplineSet
Validated: 5
EndChar

StartChar: uni20B1
Encoding: 8369 8369 501
Width: 678
Flags: W
LayerCount: 2
Fore
SplineSet
84 538 m 5,0,-1
 96 596 l 5,1,-1
 676 595 l 5,2,-1
 665 537 l 5,3,-1
 84 538 l 5,0,-1
84 417 m 5,4,-1
 96 474 l 5,5,-1
 676 473 l 5,6,-1
 664 416 l 5,7,-1
 84 417 l 5,4,-1
157 0 m 5,8,-1
 157 720 l 5,9,-1
 373 720 l 6,10,11
 449.000976562 720 449.000976562 720 501.5 695 c 132,-1,12
 554 669.999023438 554 669.999023438 582 623 c 132,-1,13
 610.000976562 576.000976562 610.000976562 576.000976562 610 510 c 132,-1,14
 610 444 610 444 582 396.5 c 132,-1,15
 553.999023438 348.999023438 553.999023438 348.999023438 501.5 323 c 132,-1,16
 449 297.000976562 449 297.000976562 373 297 c 6,17,-1
 216 297 l 5,18,-1
 216 368 l 5,19,-1
 370 368 l 6,20,21
 448 368 448 368 489 405 c 132,-1,22
 529.999023438 442.000976562 529.999023438 442.000976562 530 510 c 132,-1,23
 530 577.999023438 530 577.999023438 489.5 613.5 c 132,-1,24
 449 649.000976562 449 649.000976562 370 649 c 6,25,-1
 238 649 l 5,26,-1
 238 0 l 5,27,-1
 157 0 l 5,8,-1
EndSplineSet
Validated: 37
EndChar
